SplineFontDB: 3.0
FontName: Neuton-SC-Bold
FullName: Neuton SC Bold
FamilyName: Neuton SC
Weight: Bold
Copyright: Copyright (c) 2010, 2011 Brian M Zick (http://21326.info/), \nwith Reserved Font Name 'Neuton SC'.\n\nThis Font Software is licensed under the SIL Open Font License, Version 1.1.\nThis license is available with a FAQ at: http://scripts.sil.org/OFL\n   WITHOUT WARRANTIES OR CONDITIONS OF ANY KIND, either express or implied.\n   See the License for the specific language governing permissions and\n   limitations under the License.
UComments: "2011-12-4: Created." 
Version: 1.46
ItalicAngle: 0
UnderlinePosition: -100
UnderlineWidth: 50
Ascent: 1638
Descent: 410
LayerCount: 2
Layer: 0 1 "Back"  1
Layer: 1 1 "Fore"  0
XUID: [1021 741 12624067 6057423]
FSType: 1
OS2Version: 0
OS2_WeightWidthSlopeOnly: 0
OS2_UseTypoMetrics: 1
CreationTime: 1323019878
ModificationTime: 1333038475
PfmFamily: 17
TTFWeight: 700
TTFWidth: 5
LineGap: 0
VLineGap: 184
OS2TypoAscent: 2106
OS2TypoAOffset: 0
OS2TypoDescent: -485
OS2TypoDOffset: 0
OS2TypoLinegap: 0
OS2WinAscent: 2106
OS2WinAOffset: 0
OS2WinDescent: 485
OS2WinDOffset: 0
HheadAscent: 2106
HheadAOffset: 0
HheadDescent: -485
HheadDOffset: 0
OS2Vendor: 'PfEd'
MarkAttachClasses: 1
DEI: 91125
TtTable: prep
PUSHW_1
 511
SCANCTRL
PUSHB_1
 4
SCANTYPE
EndTTInstrs
GaspTable: 1 65535 3 0
Encoding: UnicodeBmp
Compacted: 1
UnicodeInterp: none
NameList: Adobe Glyph List
DisplaySize: -48
AntiAlias: 1
FitToEm: 0
WinInfo: 32 16 6
BeginPrivate: 0
EndPrivate
BeginChars: 65538 210

StartChar: A
Encoding: 65 65 0
Width: 1461
VWidth: 0
Flags: MW
LayerCount: 2
Fore
SplineSet
535 548 m 1,0,-1
 836 548 l 1,1,-1
 690 984 l 1,2,-1
 535 548 l 1,0,-1
45 0 m 1,3,-1
 59 106 l 1,4,-1
 213 185 l 1,5,-1
 627 1221 l 1,6,-1
 875 1269 l 1,7,-1
 1265 181 l 1,8,-1
 1408 112 l 1,9,-1
 1397 -1 l 1,10,-1
 777 -1 l 1,11,-1
 791 105 l 1,12,-1
 960 184 l 1,13,-1
 886 392 l 1,14,-1
 481 392 l 1,15,-1
 407 182 l 1,16,-1
 594 114 l 1,17,-1
 581 0 l 1,18,-1
 45 0 l 1,3,-1
EndSplineSet
EndChar

StartChar: AE
Encoding: 198 198 1
Width: 1880
VWidth: 0
Flags: MW
LayerCount: 2
Fore
SplineSet
651 592 m 1,0,-1
 948 592 l 1,1,-1
 942 1033 l 1,2,-1
 651 592 l 1,0,-1
48 0 m 1,3,-1
 62 119 l 1,4,-1
 198 184 l 1,5,-1
 794 1073 l 1,6,-1
 598 1131 l 1,7,-1
 613 1244 l 1,8,-1
 1770 1244 l 1,9,-1
 1738 876 l 1,10,-1
 1610 896 l 1,11,-1
 1548 1112 l 1,12,-1
 1204 1112 l 1,13,-1
 1213 694 l 1,14,-1
 1408 702 l 1,15,-1
 1444 765 l 1,16,-1
 1580 780 l 1,17,-1
 1547 466 l 1,18,-1
 1422 466 l 1,19,-1
 1392 556 l 1,20,-1
 1216 561 l 1,21,-1
 1224 147 l 1,22,-1
 1590 138 l 1,23,-1
 1713 378 l 1,24,-1
 1836 362 l 1,25,-1
 1806 0 l 1,26,-1
 784 0 l 1,27,-1
 795 106 l 1,28,-1
 960 169 l 1,29,-1
 954 458 l 1,30,-1
 573 458 l 1,31,-1
 398 184 l 1,32,-1
 582 116 l 1,33,-1
 568 0 l 1,34,-1
 48 0 l 1,3,-1
EndSplineSet
EndChar

StartChar: Aacute
Encoding: 193 193 2
Width: 1461
VWidth: 0
Flags: MW
LayerCount: 2
Fore
SplineSet
535 548 m 1,0,-1
 836 548 l 1,1,-1
 690 984 l 1,2,-1
 535 548 l 1,0,-1
45 0 m 1,3,-1
 59 106 l 1,4,-1
 213 185 l 1,5,-1
 627 1221 l 1,6,-1
 875 1269 l 1,7,-1
 1265 181 l 1,8,-1
 1408 112 l 1,9,-1
 1397 -1 l 1,10,-1
 777 -1 l 1,11,-1
 791 105 l 1,12,-1
 960 184 l 1,13,-1
 886 392 l 1,14,-1
 481 392 l 1,15,-1
 407 182 l 1,16,-1
 594 114 l 1,17,-1
 581 0 l 1,18,-1
 45 0 l 1,3,-1
607 1420 m 1,19,-1
 721 1734 l 1,20,-1
 943 1706 l 1,21,-1
 761 1393 l 1,22,-1
 607 1420 l 1,19,-1
EndSplineSet
EndChar

StartChar: Acircumflex
Encoding: 194 194 3
Width: 1461
VWidth: 0
Flags: MW
LayerCount: 2
Fore
SplineSet
535 548 m 1,0,-1
 836 548 l 1,1,-1
 690 984 l 1,2,-1
 535 548 l 1,0,-1
45 0 m 1,3,-1
 59 106 l 1,4,-1
 213 185 l 1,5,-1
 627 1221 l 1,6,-1
 875 1269 l 1,7,-1
 1265 181 l 1,8,-1
 1408 112 l 1,9,-1
 1397 -1 l 1,10,-1
 777 -1 l 1,11,-1
 791 105 l 1,12,-1
 960 184 l 1,13,-1
 886 392 l 1,14,-1
 481 392 l 1,15,-1
 407 182 l 1,16,-1
 594 114 l 1,17,-1
 581 0 l 1,18,-1
 45 0 l 1,3,-1
522 1392 m 1,19,-1
 682 1609 l 1,20,-1
 872 1616 l 1,21,-1
 1038 1396 l 1,22,-1
 888 1373 l 1,23,-1
 774 1488 l 1,24,-1
 762 1488 l 1,25,-1
 658 1372 l 1,26,-1
 522 1392 l 1,19,-1
EndSplineSet
EndChar

StartChar: Adieresis
Encoding: 196 196 4
Width: 1461
VWidth: 0
Flags: MW
LayerCount: 2
Fore
SplineSet
535 548 m 1,0,-1
 836 548 l 1,1,-1
 690 984 l 1,2,-1
 535 548 l 1,0,-1
45 0 m 1,3,-1
 59 106 l 1,4,-1
 213 185 l 1,5,-1
 627 1221 l 1,6,-1
 875 1269 l 1,7,-1
 1265 181 l 1,8,-1
 1408 112 l 1,9,-1
 1397 -1 l 1,10,-1
 777 -1 l 1,11,-1
 791 105 l 1,12,-1
 960 184 l 1,13,-1
 886 392 l 1,14,-1
 481 392 l 1,15,-1
 407 182 l 1,16,-1
 594 114 l 1,17,-1
 581 0 l 1,18,-1
 45 0 l 1,3,-1
796 1501 m 0,19,20
 796 1538 796 1538 825.5 1565.5 c 128,-1,21
 855 1593 855 1593 908 1593 c 0,22,23
 964 1593 964 1593 993.5 1566 c 128,-1,24
 1023 1539 1023 1539 1023 1502 c 0,25,26
 1023 1459 1023 1459 993 1432.5 c 128,-1,27
 963 1406 963 1406 907 1406 c 0,28,29
 851 1406 851 1406 823.5 1433 c 128,-1,30
 796 1460 796 1460 796 1501 c 0,19,20
508 1501 m 0,31,32
 508 1538 508 1538 537.5 1565.5 c 128,-1,33
 567 1593 567 1593 619 1593 c 0,34,35
 675 1593 675 1593 704.5 1566 c 128,-1,36
 734 1539 734 1539 734 1502 c 0,37,38
 734 1459 734 1459 704.5 1432.5 c 128,-1,39
 675 1406 675 1406 619 1406 c 0,40,41
 563 1406 563 1406 535.5 1433 c 128,-1,42
 508 1460 508 1460 508 1501 c 0,31,32
EndSplineSet
EndChar

StartChar: Agrave
Encoding: 192 192 5
Width: 1461
VWidth: 0
Flags: MW
LayerCount: 2
Fore
SplineSet
535 548 m 1,0,-1
 836 548 l 1,1,-1
 690 984 l 1,2,-1
 535 548 l 1,0,-1
45 0 m 1,3,-1
 59 106 l 1,4,-1
 213 185 l 1,5,-1
 627 1221 l 1,6,-1
 875 1269 l 1,7,-1
 1265 181 l 1,8,-1
 1408 112 l 1,9,-1
 1397 -1 l 1,10,-1
 777 -1 l 1,11,-1
 791 105 l 1,12,-1
 960 184 l 1,13,-1
 886 392 l 1,14,-1
 481 392 l 1,15,-1
 407 182 l 1,16,-1
 594 114 l 1,17,-1
 581 0 l 1,18,-1
 45 0 l 1,3,-1
501 1728 m 1,19,-1
 718 1766 l 1,20,-1
 858 1426 l 1,21,-1
 701 1393 l 1,22,-1
 501 1728 l 1,19,-1
EndSplineSet
EndChar

StartChar: Aring
Encoding: 197 197 6
Width: 1461
VWidth: 0
Flags: MW
LayerCount: 2
Fore
SplineSet
535 548 m 1,0,-1
 836 548 l 1,1,-1
 690 984 l 1,2,-1
 535 548 l 1,0,-1
45 0 m 1,3,-1
 59 106 l 1,4,-1
 213 185 l 1,5,-1
 627 1221 l 1,6,-1
 875 1269 l 1,7,-1
 1265 181 l 1,8,-1
 1408 112 l 1,9,-1
 1397 -1 l 1,10,-1
 777 -1 l 1,11,-1
 791 105 l 1,12,-1
 960 184 l 1,13,-1
 886 392 l 1,14,-1
 481 392 l 1,15,-1
 407 182 l 1,16,-1
 594 114 l 1,17,-1
 581 0 l 1,18,-1
 45 0 l 1,3,-1
638 1434 m 0,19,20
 638 1394 638 1394 660.5 1368 c 128,-1,21
 683 1342 683 1342 720 1342 c 0,22,23
 753 1342 753 1342 774.5 1365 c 128,-1,24
 796 1388 796 1388 796 1428 c 0,25,26
 796 1466 796 1466 772 1493 c 128,-1,27
 748 1520 748 1520 712 1520 c 0,28,29
 680 1520 680 1520 659 1494.5 c 128,-1,30
 638 1469 638 1469 638 1434 c 0,19,20
498 1426 m 0,31,32
 498 1499 498 1499 557.5 1549 c 128,-1,33
 617 1599 617 1599 723 1599 c 0,34,35
 832 1599 832 1599 888 1555.5 c 128,-1,36
 944 1512 944 1512 944 1436 c 0,37,38
 944 1364 944 1364 884 1313 c 128,-1,39
 824 1262 824 1262 712 1262 c 0,40,41
 604 1262 604 1262 551 1305 c 128,-1,42
 498 1348 498 1348 498 1426 c 0,31,32
EndSplineSet
EndChar

StartChar: Atilde
Encoding: 195 195 7
Width: 1461
VWidth: 0
Flags: MW
LayerCount: 2
Fore
SplineSet
535 548 m 1,0,-1
 836 548 l 1,1,-1
 690 984 l 1,2,-1
 535 548 l 1,0,-1
45 0 m 1,3,-1
 59 106 l 1,4,-1
 213 185 l 1,5,-1
 627 1221 l 1,6,-1
 875 1269 l 1,7,-1
 1265 181 l 1,8,-1
 1408 112 l 1,9,-1
 1397 -1 l 1,10,-1
 777 -1 l 1,11,-1
 791 105 l 1,12,-1
 960 184 l 1,13,-1
 886 392 l 1,14,-1
 481 392 l 1,15,-1
 407 182 l 1,16,-1
 594 114 l 1,17,-1
 581 0 l 1,18,-1
 45 0 l 1,3,-1
452 1398 m 1,19,20
 455 1504 455 1504 515.5 1562 c 128,-1,21
 576 1620 576 1620 672 1597 c 1,22,-1
 820 1572 l 1,23,24
 861 1561 861 1561 888.5 1574.5 c 128,-1,25
 916 1588 916 1588 924 1616 c 1,26,-1
 1006 1610 l 1,27,28
 1003 1561 1003 1561 988 1519.5 c 128,-1,29
 973 1478 973 1478 945 1448.5 c 128,-1,30
 917 1419 917 1419 877.5 1408 c 128,-1,31
 838 1397 838 1397 786 1409 c 1,32,-1
 641 1435 l 1,33,34
 556 1458 556 1458 530 1388 c 1,35,-1
 452 1398 l 1,19,20
EndSplineSet
EndChar

StartChar: B
Encoding: 66 66 8
Width: 1228
VWidth: 0
Flags: MW
LayerCount: 2
Fore
SplineSet
507 708 m 1,0,-1
 723 708 l 1,1,2
 819 771 819 771 819 903 c 0,3,4
 819 1001 819 1001 760.5 1063.5 c 128,-1,5
 702 1126 702 1126 573 1126 c 0,6,7
 542 1126 542 1126 507 1120 c 1,8,-1
 507 708 l 1,0,-1
507 141 m 1,9,-1
 673 141 l 2,10,11
 775 141 775 141 837 199.5 c 128,-1,12
 899 258 899 258 899 348 c 0,13,14
 899 446 899 446 834 514.5 c 128,-1,15
 769 583 769 583 658 583 c 2,16,-1
 507 583 l 1,17,-1
 507 141 l 1,9,-1
46 0 m 1,18,-1
 59 106 l 1,19,-1
 225 169 l 1,20,-1
 225 1056 l 1,21,-1
 55 1093 l 1,22,-1
 65 1211 l 1,23,24
 396 1257 396 1257 605 1257 c 0,25,26
 734 1257 734 1257 831 1232 c 128,-1,27
 928 1207 928 1207 983.5 1164 c 128,-1,28
 1039 1121 1039 1121 1065.5 1069.5 c 128,-1,29
 1092 1018 1092 1018 1092 959 c 0,30,31
 1092 874 1092 874 1037 794.5 c 128,-1,32
 982 715 982 715 887 682 c 1,33,-1
 887 673 l 1,34,35
 1030 665 1030 665 1107.5 577 c 128,-1,36
 1185 489 1185 489 1185 380 c 0,37,38
 1185 210 1185 210 1045 105 c 128,-1,39
 905 0 905 0 627 0 c 2,40,-1
 46 0 l 1,18,-1
EndSplineSet
EndChar

StartChar: C
Encoding: 67 67 9
Width: 1232
VWidth: 0
Flags: MW
LayerCount: 2
Fore
SplineSet
47 586 m 0,0,1
 47 679 47 679 70 770.5 c 128,-1,2
 93 862 93 862 147.5 953.5 c 128,-1,3
 202 1045 202 1045 282 1114.5 c 128,-1,4
 362 1184 362 1184 487 1227 c 128,-1,5
 612 1270 612 1270 765 1270 c 0,6,7
 872 1270 872 1270 983 1243.5 c 128,-1,8
 1094 1217 1094 1217 1155 1170 c 1,9,-1
 1125 792 l 1,10,-1
 995 810 l 1,11,-1
 943 1036 l 1,12,13
 908 1080 908 1080 843.5 1106 c 128,-1,14
 779 1132 779 1132 705 1132 c 0,15,16
 542 1132 542 1132 446.5 1014.5 c 128,-1,17
 351 897 351 897 351 682 c 0,18,19
 351 434 351 434 473.5 296 c 128,-1,20
 596 158 596 158 799 158 c 0,21,22
 980 158 980 158 1147 281 c 1,23,-1
 1195 176 l 1,24,25
 1128 97 1128 97 991.5 35.5 c 128,-1,26
 855 -26 855 -26 695 -26 c 0,27,28
 401 -26 401 -26 224 136 c 128,-1,29
 47 298 47 298 47 586 c 0,0,1
EndSplineSet
EndChar

StartChar: Ccedilla
Encoding: 199 199 10
Width: 1232
VWidth: 0
Flags: MW
LayerCount: 2
Fore
SplineSet
47 586 m 0,0,1
 47 679 47 679 70 770.5 c 128,-1,2
 93 862 93 862 147.5 953.5 c 128,-1,3
 202 1045 202 1045 282 1114.5 c 128,-1,4
 362 1184 362 1184 487 1227 c 128,-1,5
 612 1270 612 1270 765 1270 c 0,6,7
 872 1270 872 1270 983 1243.5 c 128,-1,8
 1094 1217 1094 1217 1155 1170 c 1,9,-1
 1125 792 l 1,10,-1
 995 810 l 1,11,-1
 943 1036 l 1,12,13
 908 1080 908 1080 843.5 1106 c 128,-1,14
 779 1132 779 1132 705 1132 c 0,15,16
 542 1132 542 1132 446.5 1014.5 c 128,-1,17
 351 897 351 897 351 682 c 0,18,19
 351 434 351 434 473.5 296 c 128,-1,20
 596 158 596 158 799 158 c 0,21,22
 980 158 980 158 1147 281 c 1,23,-1
 1195 176 l 1,24,25
 1139 110 1139 110 1028 53 c 128,-1,26
 917 -4 917 -4 784 -21 c 1,27,-1
 706 -96 l 1,28,29
 729 -109 729 -109 743 -118 c 128,-1,30
 757 -127 757 -127 777.5 -144.5 c 128,-1,31
 798 -162 798 -162 808 -184 c 128,-1,32
 818 -206 818 -206 818 -232 c 0,33,34
 818 -307 818 -307 740 -346.5 c 128,-1,35
 662 -386 662 -386 526 -404 c 1,36,-1
 498 -320 l 1,37,38
 546 -313 546 -313 583 -296 c 128,-1,39
 620 -279 620 -279 620 -258 c 0,40,41
 620 -241 620 -241 597 -220.5 c 128,-1,42
 574 -200 574 -200 553 -188 c 128,-1,43
 532 -176 532 -176 495 -157 c 1,44,-1
 662 -25 l 1,45,46
 477 -19 477 -19 339.5 53.5 c 128,-1,47
 202 126 202 126 124.5 263 c 128,-1,48
 47 400 47 400 47 586 c 0,0,1
EndSplineSet
EndChar

StartChar: D
Encoding: 68 68 11
Width: 1444
VWidth: 0
Flags: MW
LayerCount: 2
Fore
SplineSet
517 153 m 1,0,-1
 627 153 l 2,1,2
 730 153 730 153 811.5 180 c 128,-1,3
 893 207 893 207 944 251 c 128,-1,4
 995 295 995 295 1028.5 354 c 128,-1,5
 1062 413 1062 413 1075.5 473 c 128,-1,6
 1089 533 1089 533 1089 598 c 0,7,8
 1089 695 1089 695 1058.5 783.5 c 128,-1,9
 1028 872 1028 872 969 945.5 c 128,-1,10
 910 1019 910 1019 811.5 1062.5 c 128,-1,11
 713 1106 713 1106 587 1106 c 0,12,13
 565 1106 565 1106 549.5 1104 c 128,-1,14
 534 1102 534 1102 517 1101 c 1,15,-1
 517 153 l 1,0,-1
43 0 m 1,16,-1
 61 106 l 1,17,-1
 237 185 l 1,18,-1
 237 1053 l 1,19,-1
 65 1091 l 1,20,-1
 73 1208 l 1,21,22
 389 1258 389 1258 625 1258 c 0,23,24
 754 1258 754 1258 861.5 1240.5 c 128,-1,25
 969 1223 969 1223 1047.5 1192 c 128,-1,26
 1126 1161 1126 1161 1187 1116 c 128,-1,27
 1248 1071 1248 1071 1287 1020 c 128,-1,28
 1326 969 1326 969 1351.5 907 c 128,-1,29
 1377 845 1377 845 1387 783 c 128,-1,30
 1397 721 1397 721 1397 652 c 0,31,32
 1397 549 1397 549 1363.5 453 c 128,-1,33
 1330 357 1330 357 1262.5 274.5 c 128,-1,34
 1195 192 1195 192 1101 131 c 128,-1,35
 1007 70 1007 70 877.5 35 c 128,-1,36
 748 0 748 0 599 0 c 2,37,-1
 43 0 l 1,16,-1
EndSplineSet
EndChar

StartChar: E
Encoding: 69 69 12
Width: 1236
VWidth: 0
Flags: MW
LayerCount: 2
Fore
SplineSet
46 1134 m 1,0,-1
 61 1244 l 1,1,-1
 1145 1244 l 1,2,-1
 1114 875 l 1,3,-1
 985 894 l 1,4,-1
 923 1112 l 1,5,-1
 516 1112 l 1,6,-1
 516 684 l 1,7,-1
 751 684 l 1,8,-1
 795 813 l 1,9,-1
 939 840 l 1,10,-1
 905 416 l 1,11,-1
 766 393 l 1,12,-1
 733 562 l 1,13,-1
 516 562 l 1,14,-1
 516 151 l 1,15,-1
 945 151 l 1,16,-1
 1067 377 l 1,17,-1
 1191 362 l 1,18,-1
 1161 0 l 1,19,-1
 57 0 l 1,20,-1
 67 106 l 1,21,-1
 232 169 l 1,22,-1
 232 1078 l 1,23,-1
 46 1134 l 1,0,-1
EndSplineSet
EndChar

StartChar: Eacute
Encoding: 201 201 13
Width: 1236
VWidth: 0
Flags: MW
LayerCount: 2
Fore
SplineSet
46 1134 m 1,0,-1
 61 1244 l 1,1,-1
 1145 1244 l 1,2,-1
 1114 875 l 1,3,-1
 985 894 l 1,4,-1
 923 1112 l 1,5,-1
 516 1112 l 1,6,-1
 516 684 l 1,7,-1
 751 684 l 1,8,-1
 795 813 l 1,9,-1
 939 840 l 1,10,-1
 905 416 l 1,11,-1
 766 393 l 1,12,-1
 733 562 l 1,13,-1
 516 562 l 1,14,-1
 516 151 l 1,15,-1
 945 151 l 1,16,-1
 1067 377 l 1,17,-1
 1191 362 l 1,18,-1
 1161 0 l 1,19,-1
 57 0 l 1,20,-1
 67 106 l 1,21,-1
 232 169 l 1,22,-1
 232 1078 l 1,23,-1
 46 1134 l 1,0,-1
477 1420 m 1,24,-1
 591 1734 l 1,25,-1
 813 1706 l 1,26,-1
 631 1393 l 1,27,-1
 477 1420 l 1,24,-1
EndSplineSet
EndChar

StartChar: Ecircumflex
Encoding: 202 202 14
Width: 1236
VWidth: 0
Flags: MW
LayerCount: 2
Fore
SplineSet
46 1134 m 1,0,-1
 61 1244 l 1,1,-1
 1145 1244 l 1,2,-1
 1114 875 l 1,3,-1
 985 894 l 1,4,-1
 923 1112 l 1,5,-1
 516 1112 l 1,6,-1
 516 684 l 1,7,-1
 751 684 l 1,8,-1
 795 813 l 1,9,-1
 939 840 l 1,10,-1
 905 416 l 1,11,-1
 766 393 l 1,12,-1
 733 562 l 1,13,-1
 516 562 l 1,14,-1
 516 151 l 1,15,-1
 945 151 l 1,16,-1
 1067 377 l 1,17,-1
 1191 362 l 1,18,-1
 1161 0 l 1,19,-1
 57 0 l 1,20,-1
 67 106 l 1,21,-1
 232 169 l 1,22,-1
 232 1078 l 1,23,-1
 46 1134 l 1,0,-1
391 1392 m 1,24,-1
 552 1609 l 1,25,-1
 742 1616 l 1,26,-1
 908 1396 l 1,27,-1
 756 1373 l 1,28,-1
 643 1488 l 1,29,-1
 630 1488 l 1,30,-1
 527 1372 l 1,31,-1
 391 1392 l 1,24,-1
EndSplineSet
EndChar

StartChar: Edieresis
Encoding: 203 203 15
Width: 1236
VWidth: 0
Flags: MW
LayerCount: 2
Fore
SplineSet
46 1134 m 1,0,-1
 61 1244 l 1,1,-1
 1145 1244 l 1,2,-1
 1114 875 l 1,3,-1
 985 894 l 1,4,-1
 923 1112 l 1,5,-1
 516 1112 l 1,6,-1
 516 684 l 1,7,-1
 751 684 l 1,8,-1
 795 813 l 1,9,-1
 939 840 l 1,10,-1
 905 416 l 1,11,-1
 766 393 l 1,12,-1
 733 562 l 1,13,-1
 516 562 l 1,14,-1
 516 151 l 1,15,-1
 945 151 l 1,16,-1
 1067 377 l 1,17,-1
 1191 362 l 1,18,-1
 1161 0 l 1,19,-1
 57 0 l 1,20,-1
 67 106 l 1,21,-1
 232 169 l 1,22,-1
 232 1078 l 1,23,-1
 46 1134 l 1,0,-1
685 1501 m 0,24,25
 685 1538 685 1538 714.5 1565.5 c 128,-1,26
 744 1593 744 1593 797 1593 c 0,27,28
 853 1593 853 1593 882.5 1566 c 128,-1,29
 912 1539 912 1539 912 1502 c 0,30,31
 912 1459 912 1459 882 1432.5 c 128,-1,32
 852 1406 852 1406 796 1406 c 0,33,34
 740 1406 740 1406 712.5 1433 c 128,-1,35
 685 1460 685 1460 685 1501 c 0,24,25
397 1501 m 0,36,37
 397 1538 397 1538 426.5 1565.5 c 128,-1,38
 456 1593 456 1593 508 1593 c 0,39,40
 564 1593 564 1593 593.5 1566 c 128,-1,41
 623 1539 623 1539 623 1502 c 0,42,43
 623 1459 623 1459 593.5 1432.5 c 128,-1,44
 564 1406 564 1406 508 1406 c 0,45,46
 452 1406 452 1406 424.5 1433 c 128,-1,47
 397 1460 397 1460 397 1501 c 0,36,37
EndSplineSet
EndChar

StartChar: Egrave
Encoding: 200 200 16
Width: 1236
VWidth: 0
Flags: MW
LayerCount: 2
Fore
SplineSet
46 1134 m 1,0,-1
 61 1244 l 1,1,-1
 1145 1244 l 1,2,-1
 1114 875 l 1,3,-1
 985 894 l 1,4,-1
 923 1112 l 1,5,-1
 516 1112 l 1,6,-1
 516 684 l 1,7,-1
 751 684 l 1,8,-1
 795 813 l 1,9,-1
 939 840 l 1,10,-1
 905 416 l 1,11,-1
 766 393 l 1,12,-1
 733 562 l 1,13,-1
 516 562 l 1,14,-1
 516 151 l 1,15,-1
 945 151 l 1,16,-1
 1067 377 l 1,17,-1
 1191 362 l 1,18,-1
 1161 0 l 1,19,-1
 57 0 l 1,20,-1
 67 106 l 1,21,-1
 232 169 l 1,22,-1
 232 1078 l 1,23,-1
 46 1134 l 1,0,-1
396 1728 m 1,24,-1
 613 1766 l 1,25,-1
 753 1426 l 1,26,-1
 596 1393 l 1,27,-1
 396 1728 l 1,24,-1
EndSplineSet
EndChar

StartChar: Eth
Encoding: 208 208 17
Width: 1453
VWidth: 0
Flags: MW
LayerCount: 2
Fore
SplineSet
521 153 m 1,0,-1
 665 153 l 2,1,2
 764 153 764 153 841.5 180.5 c 128,-1,3
 919 208 919 208 966 252 c 128,-1,4
 1013 296 1013 296 1043.5 356 c 128,-1,5
 1074 416 1074 416 1085.5 475 c 128,-1,6
 1097 534 1097 534 1097 598 c 0,7,8
 1097 675 1097 675 1078.5 747.5 c 128,-1,9
 1060 820 1060 820 1019.5 885.5 c 128,-1,10
 979 951 979 951 921 1000 c 128,-1,11
 863 1049 863 1049 778 1078 c 128,-1,12
 693 1107 693 1107 591 1107 c 0,13,14
 570 1107 570 1107 554.5 1104.5 c 128,-1,15
 539 1102 539 1102 521 1101 c 1,16,-1
 521 692 l 1,17,-1
 749 715 l 1,18,-1
 734 575 l 1,19,-1
 521 558 l 1,20,-1
 521 153 l 1,0,-1
61 519 m 1,21,-1
 74 656 l 1,22,-1
 241 670 l 1,23,-1
 241 1054 l 1,24,-1
 69 1092 l 1,25,-1
 77 1208 l 1,26,27
 399 1259 399 1259 629 1259 c 0,28,29
 808 1259 808 1259 946 1225 c 128,-1,30
 1084 1191 1084 1191 1169.5 1135.5 c 128,-1,31
 1255 1080 1255 1080 1310 1000 c 128,-1,32
 1365 920 1365 920 1386 836.5 c 128,-1,33
 1407 753 1407 753 1407 655 c 0,34,35
 1407 555 1407 555 1373 459 c 128,-1,36
 1339 363 1339 363 1271 280 c 128,-1,37
 1203 197 1203 197 1109 134.5 c 128,-1,38
 1015 72 1015 72 887 36 c 128,-1,39
 759 0 759 0 612 0 c 2,40,-1
 47 0 l 1,41,-1
 65 106 l 1,42,-1
 241 185 l 1,43,-1
 241 534 l 1,44,-1
 61 519 l 1,21,-1
EndSplineSet
EndChar

StartChar: Euro
Encoding: 8364 8364 18
Width: 1120
VWidth: 0
Flags: MW
LayerCount: 2
Fore
SplineSet
22 499 m 1,0,-1
 37 616 l 1,1,-1
 160 616 l 1,2,3
 184 693 184 693 227 757 c 128,-1,4
 270 821 270 821 332.5 869.5 c 128,-1,5
 395 918 395 918 481.5 945 c 128,-1,6
 568 972 568 972 670 972 c 0,7,8
 753 972 753 972 827.5 948.5 c 128,-1,9
 902 925 902 925 930 904 c 1,10,-1
 908 611 l 1,11,-1
 784 629 l 1,12,-1
 757 777 l 1,13,14
 706 837 706 837 608 837 c 0,15,16
 456 836 456 836 427 616 c 1,17,-1
 698 616 l 1,18,-1
 674 499 l 1,19,-1
 421 499 l 1,20,-1
 420 498 l 2,21,22
 420 464 420 464 424 432 c 1,23,-1
 658 432 l 1,24,-1
 634 316 l 1,25,-1
 452 316 l 1,26,27
 484 236 484 236 544 193.5 c 128,-1,28
 604 151 604 151 683 151 c 0,29,30
 829 151 829 151 923 255 c 1,31,-1
 988 160 l 1,32,33
 970 127 970 127 937 95 c 128,-1,34
 904 63 904 63 857 35.5 c 128,-1,35
 810 8 810 8 744 -9 c 128,-1,36
 678 -26 678 -26 604 -26 c 0,37,38
 413 -26 413 -26 294.5 63 c 128,-1,39
 176 152 176 152 144 316 c 1,40,-1
 24 316 l 1,41,-1
 37 432 l 1,42,-1
 134 432 l 1,43,44
 134 434 134 434 134 436 c 0,45,46
 134 468 134 468 137 499 c 1,47,-1
 22 499 l 1,0,-1
EndSplineSet
EndChar

StartChar: F
Encoding: 70 70 19
Width: 1183
VWidth: 0
Flags: MW
LayerCount: 2
Fore
SplineSet
45 1134 m 1,0,-1
 60 1244 l 1,1,-1
 1140 1244 l 1,2,-1
 1090 878 l 1,3,-1
 963 898 l 1,4,-1
 916 1112 l 1,5,-1
 516 1112 l 1,6,-1
 516 638 l 1,7,-1
 749 638 l 1,8,-1
 795 770 l 1,9,-1
 942 800 l 1,10,-1
 902 354 l 1,11,-1
 767 326 l 1,12,-1
 735 506 l 1,13,-1
 516 506 l 1,14,-1
 516 174 l 1,15,-1
 746 113 l 1,16,-1
 731 0 l 1,17,-1
 56 0 l 1,18,-1
 68 106 l 1,19,-1
 232 169 l 1,20,-1
 232 1078 l 1,21,-1
 45 1134 l 1,0,-1
EndSplineSet
EndChar

StartChar: G
Encoding: 71 71 20
Width: 1381
VWidth: 0
Flags: MW
LayerCount: 2
Fore
SplineSet
47 579 m 0,0,1
 47 707 47 707 86.5 818.5 c 128,-1,2
 126 930 126 930 195 1010.5 c 128,-1,3
 264 1091 264 1091 354 1149.5 c 128,-1,4
 444 1208 444 1208 547 1237 c 128,-1,5
 650 1266 650 1266 756 1266 c 0,6,7
 906 1266 906 1266 1008.5 1241.5 c 128,-1,8
 1111 1217 1111 1217 1207 1174 c 1,9,-1
 1175 794 l 1,10,-1
 1037 808 l 1,11,-1
 999 1013 l 1,12,13
 888 1124 888 1124 707 1124 c 0,14,15
 632 1124 632 1124 570.5 1098.5 c 128,-1,16
 509 1073 509 1073 460.5 1020 c 128,-1,17
 412 967 412 967 385.5 878.5 c 128,-1,18
 359 790 359 790 359 672 c 0,19,20
 359 520 359 520 406.5 397.5 c 128,-1,21
 454 275 454 275 547.5 201.5 c 128,-1,22
 641 128 641 128 765 128 c 0,23,24
 873 128 873 128 943 177 c 1,25,-1
 943 394 l 1,26,-1
 715 446 l 1,27,-1
 732 573 l 1,28,-1
 1340 573 l 1,29,-1
 1323 458 l 1,30,-1
 1209 401 l 1,31,-1
 1209 86 l 1,32,33
 1128 36 1128 36 989 4 c 128,-1,34
 850 -28 850 -28 716 -28 c 0,35,36
 388 -28 388 -28 217.5 134 c 128,-1,37
 47 296 47 296 47 579 c 0,0,1
EndSplineSet
EndChar

StartChar: H
Encoding: 72 72 21
Width: 1576
VWidth: 0
Flags: MW
LayerCount: 2
Fore
SplineSet
47 1131 m 1,0,-1
 65 1244 l 1,1,-1
 697 1244 l 1,2,-1
 682 1131 l 1,3,-1
 515 1078 l 1,4,-1
 515 718 l 1,5,-1
 1052 718 l 1,6,-1
 1052 1073 l 1,7,-1
 870 1131 l 1,8,-1
 884 1244 l 1,9,-1
 1521 1244 l 1,10,-1
 1506 1131 l 1,11,-1
 1338 1078 l 1,12,-1
 1338 162 l 1,13,-1
 1518 114 l 1,14,-1
 1506 0 l 1,15,-1
 874 0 l 1,16,-1
 886 106 l 1,17,-1
 1052 169 l 1,18,-1
 1052 541 l 1,19,-1
 515 541 l 1,20,-1
 515 162 l 1,21,-1
 698 114 l 1,22,-1
 682 0 l 1,23,-1
 53 0 l 1,24,-1
 63 106 l 1,25,-1
 231 169 l 1,26,-1
 231 1073 l 1,27,-1
 47 1131 l 1,0,-1
EndSplineSet
EndChar

StartChar: I
Encoding: 73 73 22
Width: 755
VWidth: 0
Flags: MW
LayerCount: 2
Fore
SplineSet
49 1131 m 1,0,-1
 64 1244 l 1,1,-1
 700 1244 l 1,2,-1
 687 1126 l 1,3,-1
 513 1074 l 1,4,-1
 513 168 l 1,5,-1
 694 120 l 1,6,-1
 682 0 l 1,7,-1
 54 0 l 1,8,-1
 62 108 l 1,9,-1
 234 171 l 1,10,-1
 234 1073 l 1,11,-1
 49 1131 l 1,0,-1
EndSplineSet
EndChar

StartChar: Iacute
Encoding: 205 205 23
Width: 755
VWidth: 0
Flags: MW
LayerCount: 2
Fore
SplineSet
49 1131 m 1,0,-1
 64 1244 l 1,1,-1
 700 1244 l 1,2,-1
 687 1126 l 1,3,-1
 513 1074 l 1,4,-1
 513 168 l 1,5,-1
 694 120 l 1,6,-1
 682 0 l 1,7,-1
 54 0 l 1,8,-1
 62 108 l 1,9,-1
 234 171 l 1,10,-1
 234 1073 l 1,11,-1
 49 1131 l 1,0,-1
253 1420 m 1,12,-1
 367 1734 l 1,13,-1
 589 1706 l 1,14,-1
 407 1393 l 1,15,-1
 253 1420 l 1,12,-1
EndSplineSet
EndChar

StartChar: Icircumflex
Encoding: 206 206 24
Width: 755
VWidth: 0
Flags: MW
LayerCount: 2
Fore
SplineSet
49 1131 m 1,0,-1
 64 1244 l 1,1,-1
 700 1244 l 1,2,-1
 687 1126 l 1,3,-1
 513 1074 l 1,4,-1
 513 168 l 1,5,-1
 694 120 l 1,6,-1
 682 0 l 1,7,-1
 54 0 l 1,8,-1
 62 108 l 1,9,-1
 234 171 l 1,10,-1
 234 1073 l 1,11,-1
 49 1131 l 1,0,-1
168 1392 m 1,12,-1
 328 1609 l 1,13,-1
 518 1616 l 1,14,-1
 684 1396 l 1,15,-1
 534 1373 l 1,16,-1
 420 1488 l 1,17,-1
 408 1488 l 1,18,-1
 304 1372 l 1,19,-1
 168 1392 l 1,12,-1
EndSplineSet
EndChar

StartChar: Idieresis
Encoding: 207 207 25
Width: 755
VWidth: 0
Flags: MW
LayerCount: 2
Fore
SplineSet
49 1131 m 1,0,-1
 64 1244 l 1,1,-1
 700 1244 l 1,2,-1
 687 1126 l 1,3,-1
 513 1074 l 1,4,-1
 513 168 l 1,5,-1
 694 120 l 1,6,-1
 682 0 l 1,7,-1
 54 0 l 1,8,-1
 62 108 l 1,9,-1
 234 171 l 1,10,-1
 234 1073 l 1,11,-1
 49 1131 l 1,0,-1
462 1501 m 0,12,13
 462 1538 462 1538 491.5 1565.5 c 128,-1,14
 521 1593 521 1593 574 1593 c 0,15,16
 630 1593 630 1593 659.5 1566 c 128,-1,17
 689 1539 689 1539 689 1502 c 0,18,19
 689 1459 689 1459 659 1432.5 c 128,-1,20
 629 1406 629 1406 573 1406 c 0,21,22
 517 1406 517 1406 489.5 1433 c 128,-1,23
 462 1460 462 1460 462 1501 c 0,12,13
174 1501 m 0,24,25
 174 1538 174 1538 203.5 1565.5 c 128,-1,26
 233 1593 233 1593 285 1593 c 0,27,28
 341 1593 341 1593 370.5 1566 c 128,-1,29
 400 1539 400 1539 400 1502 c 0,30,31
 400 1459 400 1459 370.5 1432.5 c 128,-1,32
 341 1406 341 1406 285 1406 c 0,33,34
 229 1406 229 1406 201.5 1433 c 128,-1,35
 174 1460 174 1460 174 1501 c 0,24,25
EndSplineSet
EndChar

StartChar: Igrave
Encoding: 204 204 26
Width: 755
VWidth: 0
Flags: MW
LayerCount: 2
Fore
SplineSet
49 1131 m 1,0,-1
 64 1244 l 1,1,-1
 700 1244 l 1,2,-1
 687 1126 l 1,3,-1
 513 1074 l 1,4,-1
 513 168 l 1,5,-1
 694 120 l 1,6,-1
 682 0 l 1,7,-1
 54 0 l 1,8,-1
 62 108 l 1,9,-1
 234 171 l 1,10,-1
 234 1073 l 1,11,-1
 49 1131 l 1,0,-1
172 1728 m 1,12,-1
 389 1766 l 1,13,-1
 529 1426 l 1,14,-1
 372 1393 l 1,15,-1
 172 1728 l 1,12,-1
EndSplineSet
EndChar

StartChar: J
Encoding: 74 74 27
Width: 763
VWidth: 0
Flags: MW
LayerCount: 2
Fore
SplineSet
35 -194 m 1,0,1
 255 -1 255 -1 255 241 c 2,2,-1
 255 1073 l 1,3,-1
 75 1131 l 1,4,-1
 90 1244 l 1,5,-1
 721 1244 l 1,6,-1
 706 1131 l 1,7,-1
 536 1078 l 1,8,-1
 535 410 l 2,9,10
 535 285 535 285 522.5 195 c 128,-1,11
 510 105 510 105 483.5 33.5 c 128,-1,12
 457 -38 457 -38 405.5 -98.5 c 128,-1,13
 354 -159 354 -159 289 -210.5 c 128,-1,14
 224 -262 224 -262 121 -326 c 1,15,-1
 35 -194 l 1,0,1
EndSplineSet
EndChar

StartChar: K
Encoding: 75 75 28
Width: 1452
VWidth: 0
Flags: MW
LayerCount: 2
Fore
SplineSet
565 640 m 1,0,1
 636 717 636 717 673 769 c 2,2,-1
 882 1062 l 1,3,-1
 811 1125 l 1,4,-1
 829 1244 l 1,5,-1
 1335 1244 l 1,6,-1
 1315 1131 l 1,7,-1
 1114 1060 l 1,8,-1
 811 669 l 1,9,-1
 1004 428 l 2,10,11
 1061 356 1061 356 1089.5 321 c 128,-1,12
 1118 286 1118 286 1157 243 c 128,-1,13
 1196 200 1196 200 1225 180 c 128,-1,14
 1254 160 1254 160 1290.5 141 c 128,-1,15
 1327 122 1327 122 1371 111 c 1,16,-1
 1401 102 l 1,17,-1
 1381 2 l 1,18,19
 1349 -10 1349 -10 1294.5 -17 c 128,-1,20
 1240 -24 1240 -24 1205 -24 c 0,21,22
 1132 -24 1132 -24 1068.5 -0.5 c 128,-1,23
 1005 23 1005 23 950 69.5 c 128,-1,24
 895 116 895 116 850.5 171.5 c 128,-1,25
 806 227 806 227 757 304 c 1,26,-1
 563 594 l 1,27,-1
 565 640 l 1,0,1
47 1131 m 1,28,-1
 69 1244 l 1,29,-1
 699 1244 l 1,30,-1
 684 1131 l 1,31,-1
 530 1060 l 1,32,-1
 530 182 l 1,33,-1
 722 114 l 1,34,-1
 711 0 l 1,35,-1
 51 0 l 1,36,-1
 65 106 l 1,37,-1
 251 185 l 1,38,-1
 251 1055 l 1,39,-1
 47 1131 l 1,28,-1
EndSplineSet
EndChar

StartChar: L
Encoding: 76 76 29
Width: 1188
VWidth: 0
Flags: MW
LayerCount: 2
Fore
SplineSet
52 0 m 1,0,-1
 65 106 l 1,1,-1
 227 169 l 1,2,-1
 227 1058 l 1,3,-1
 47 1133 l 1,4,-1
 63 1244 l 1,5,-1
 710 1244 l 1,6,-1
 695 1133 l 1,7,-1
 511 1060 l 1,8,-1
 511 148 l 1,9,-1
 867 137 l 1,10,-1
 1019 398 l 1,11,-1
 1145 380 l 1,12,-1
 1103 0 l 1,13,-1
 52 0 l 1,0,-1
EndSplineSet
EndChar

StartChar: M
Encoding: 77 77 30
Width: 1821
VWidth: 0
Flags: MW
LayerCount: 2
Fore
SplineSet
43 0 m 1,0,-1
 59 114 l 1,1,-1
 227 177 l 1,2,-1
 292 1078 l 1,3,-1
 109 1128 l 1,4,-1
 121 1244 l 1,5,-1
 626 1244 l 1,6,-1
 701 1044 l 1,7,-1
 909 426 l 1,8,-1
 1143 1062 l 1,9,-1
 1211 1244 l 1,10,-1
 1709 1244 l 1,11,-1
 1695 1128 l 1,12,-1
 1530 1082 l 1,13,-1
 1591 172 l 1,14,-1
 1770 120 l 1,15,-1
 1758 0 l 1,16,-1
 1169 0 l 1,17,-1
 1187 114 l 1,18,-1
 1325 177 l 1,19,-1
 1271 890 l 1,20,-1
 968 40 l 1,21,-1
 763 12 l 1,22,-1
 471 877 l 1,23,-1
 423 172 l 1,24,-1
 579 120 l 1,25,-1
 561 0 l 1,26,-1
 43 0 l 1,0,-1
EndSplineSet
EndChar

StartChar: N
Encoding: 78 78 31
Width: 1445
VWidth: 0
Flags: MW
LayerCount: 2
Fore
SplineSet
51 1128 m 1,0,-1
 64 1244 l 1,1,-1
 459 1244 l 1,2,-1
 1046 402 l 1,3,-1
 1046 1073 l 1,4,-1
 860 1131 l 1,5,-1
 878 1244 l 1,6,-1
 1404 1244 l 1,7,-1
 1384 1131 l 1,8,-1
 1217 1078 l 1,9,-1
 1217 8 l 1,10,-1
 999 -30 l 1,11,-1
 411 790 l 1,12,-1
 411 162 l 1,13,-1
 592 114 l 1,14,-1
 580 0 l 1,15,-1
 52 0 l 1,16,-1
 62 106 l 1,17,-1
 230 169 l 1,18,-1
 230 1060 l 1,19,-1
 51 1128 l 1,0,-1
EndSplineSet
EndChar

StartChar: Ntilde
Encoding: 209 209 32
Width: 1445
VWidth: 0
Flags: MW
LayerCount: 2
Fore
SplineSet
51 1128 m 1,0,-1
 64 1244 l 1,1,-1
 459 1244 l 1,2,-1
 1046 402 l 1,3,-1
 1046 1073 l 1,4,-1
 860 1131 l 1,5,-1
 878 1244 l 1,6,-1
 1404 1244 l 1,7,-1
 1384 1131 l 1,8,-1
 1217 1078 l 1,9,-1
 1217 8 l 1,10,-1
 999 -30 l 1,11,-1
 411 790 l 1,12,-1
 411 162 l 1,13,-1
 592 114 l 1,14,-1
 580 0 l 1,15,-1
 52 0 l 1,16,-1
 62 106 l 1,17,-1
 230 169 l 1,18,-1
 230 1060 l 1,19,-1
 51 1128 l 1,0,-1
468 1398 m 1,20,21
 471 1504 471 1504 532 1562 c 128,-1,22
 593 1620 593 1620 689 1597 c 1,23,-1
 837 1572 l 1,24,25
 878 1561 878 1561 905 1574.5 c 128,-1,26
 932 1588 932 1588 940 1616 c 1,27,-1
 1022 1610 l 1,28,29
 1019 1561 1019 1561 1004.5 1519.5 c 128,-1,30
 990 1478 990 1478 962 1448.5 c 128,-1,31
 934 1419 934 1419 895 1408 c 128,-1,32
 856 1397 856 1397 804 1409 c 1,33,-1
 658 1435 l 1,34,35
 572 1458 572 1458 546 1388 c 1,36,-1
 468 1398 l 1,20,21
EndSplineSet
EndChar

StartChar: O
Encoding: 79 79 33
Width: 1397
VWidth: 0
Flags: MW
LayerCount: 2
Fore
SplineSet
363 674 m 0,0,1
 363 616 363 616 370.5 556.5 c 128,-1,2
 378 497 378 497 393.5 433.5 c 128,-1,3
 409 370 409 370 436.5 315 c 128,-1,4
 464 260 464 260 501 216 c 128,-1,5
 538 172 538 172 591 146.5 c 128,-1,6
 644 121 644 121 708 121 c 0,7,8
 1027 121 1027 121 1027 573 c 0,9,10
 1027 630 1027 630 1019.5 689.5 c 128,-1,11
 1012 749 1012 749 997 814 c 128,-1,12
 982 879 982 879 954 935 c 128,-1,13
 926 991 926 991 889.5 1036.5 c 128,-1,14
 853 1082 853 1082 798.5 1108.5 c 128,-1,15
 744 1135 744 1135 679 1135 c 0,16,17
 590 1135 590 1135 527 1100.5 c 128,-1,18
 464 1066 464 1066 429 1001.5 c 128,-1,19
 394 937 394 937 378.5 857.5 c 128,-1,20
 363 778 363 778 363 674 c 0,0,1
47 619 m 0,21,22
 47 913 47 913 227 1091.5 c 128,-1,23
 407 1270 407 1270 727 1270 c 0,24,25
 1019 1270 1019 1270 1184.5 1098 c 128,-1,26
 1350 926 1350 926 1350 616 c 0,27,28
 1350 328 1350 328 1161.5 150.5 c 128,-1,29
 973 -27 973 -27 657 -27 c 0,30,31
 507 -27 507 -27 390 21.5 c 128,-1,32
 273 70 273 70 198.5 157 c 128,-1,33
 124 244 124 244 85.5 361 c 128,-1,34
 47 478 47 478 47 619 c 0,21,22
EndSplineSet
EndChar

StartChar: Oacute
Encoding: 211 211 34
Width: 1397
VWidth: 0
Flags: MW
LayerCount: 2
Fore
SplineSet
363 674 m 0,0,1
 363 616 363 616 370.5 556.5 c 128,-1,2
 378 497 378 497 393.5 433.5 c 128,-1,3
 409 370 409 370 436.5 315 c 128,-1,4
 464 260 464 260 501 216 c 128,-1,5
 538 172 538 172 591 146.5 c 128,-1,6
 644 121 644 121 708 121 c 0,7,8
 1027 121 1027 121 1027 573 c 0,9,10
 1027 630 1027 630 1019.5 689.5 c 128,-1,11
 1012 749 1012 749 997 814 c 128,-1,12
 982 879 982 879 954 935 c 128,-1,13
 926 991 926 991 889.5 1036.5 c 128,-1,14
 853 1082 853 1082 798.5 1108.5 c 128,-1,15
 744 1135 744 1135 679 1135 c 0,16,17
 590 1135 590 1135 527 1100.5 c 128,-1,18
 464 1066 464 1066 429 1001.5 c 128,-1,19
 394 937 394 937 378.5 857.5 c 128,-1,20
 363 778 363 778 363 674 c 0,0,1
47 619 m 0,21,22
 47 913 47 913 227 1091.5 c 128,-1,23
 407 1270 407 1270 727 1270 c 0,24,25
 1019 1270 1019 1270 1184.5 1098 c 128,-1,26
 1350 926 1350 926 1350 616 c 0,27,28
 1350 328 1350 328 1161.5 150.5 c 128,-1,29
 973 -27 973 -27 657 -27 c 0,30,31
 507 -27 507 -27 390 21.5 c 128,-1,32
 273 70 273 70 198.5 157 c 128,-1,33
 124 244 124 244 85.5 361 c 128,-1,34
 47 478 47 478 47 619 c 0,21,22
625 1420 m 1,35,-1
 739 1734 l 1,36,-1
 961 1706 l 1,37,-1
 779 1393 l 1,38,-1
 625 1420 l 1,35,-1
EndSplineSet
EndChar

StartChar: Ocircumflex
Encoding: 212 212 35
Width: 1397
VWidth: 0
Flags: MW
LayerCount: 2
Fore
SplineSet
363 674 m 0,0,1
 363 616 363 616 370.5 556.5 c 128,-1,2
 378 497 378 497 393.5 433.5 c 128,-1,3
 409 370 409 370 436.5 315 c 128,-1,4
 464 260 464 260 501 216 c 128,-1,5
 538 172 538 172 591 146.5 c 128,-1,6
 644 121 644 121 708 121 c 0,7,8
 1027 121 1027 121 1027 573 c 0,9,10
 1027 630 1027 630 1019.5 689.5 c 128,-1,11
 1012 749 1012 749 997 814 c 128,-1,12
 982 879 982 879 954 935 c 128,-1,13
 926 991 926 991 889.5 1036.5 c 128,-1,14
 853 1082 853 1082 798.5 1108.5 c 128,-1,15
 744 1135 744 1135 679 1135 c 0,16,17
 590 1135 590 1135 527 1100.5 c 128,-1,18
 464 1066 464 1066 429 1001.5 c 128,-1,19
 394 937 394 937 378.5 857.5 c 128,-1,20
 363 778 363 778 363 674 c 0,0,1
47 619 m 0,21,22
 47 913 47 913 227 1091.5 c 128,-1,23
 407 1270 407 1270 727 1270 c 0,24,25
 1019 1270 1019 1270 1184.5 1098 c 128,-1,26
 1350 926 1350 926 1350 616 c 0,27,28
 1350 328 1350 328 1161.5 150.5 c 128,-1,29
 973 -27 973 -27 657 -27 c 0,30,31
 507 -27 507 -27 390 21.5 c 128,-1,32
 273 70 273 70 198.5 157 c 128,-1,33
 124 244 124 244 85.5 361 c 128,-1,34
 47 478 47 478 47 619 c 0,21,22
479 1392 m 1,35,-1
 640 1609 l 1,36,-1
 830 1616 l 1,37,-1
 996 1396 l 1,38,-1
 844 1373 l 1,39,-1
 731 1488 l 1,40,-1
 718 1488 l 1,41,-1
 615 1372 l 1,42,-1
 479 1392 l 1,35,-1
EndSplineSet
EndChar

StartChar: Odieresis
Encoding: 214 214 36
Width: 1397
VWidth: 0
Flags: MW
LayerCount: 2
Fore
SplineSet
363 674 m 0,0,1
 363 616 363 616 370.5 556.5 c 128,-1,2
 378 497 378 497 393.5 433.5 c 128,-1,3
 409 370 409 370 436.5 315 c 128,-1,4
 464 260 464 260 501 216 c 128,-1,5
 538 172 538 172 591 146.5 c 128,-1,6
 644 121 644 121 708 121 c 0,7,8
 1027 121 1027 121 1027 573 c 0,9,10
 1027 630 1027 630 1019.5 689.5 c 128,-1,11
 1012 749 1012 749 997 814 c 128,-1,12
 982 879 982 879 954 935 c 128,-1,13
 926 991 926 991 889.5 1036.5 c 128,-1,14
 853 1082 853 1082 798.5 1108.5 c 128,-1,15
 744 1135 744 1135 679 1135 c 0,16,17
 590 1135 590 1135 527 1100.5 c 128,-1,18
 464 1066 464 1066 429 1001.5 c 128,-1,19
 394 937 394 937 378.5 857.5 c 128,-1,20
 363 778 363 778 363 674 c 0,0,1
47 619 m 0,21,22
 47 913 47 913 227 1091.5 c 128,-1,23
 407 1270 407 1270 727 1270 c 0,24,25
 1019 1270 1019 1270 1184.5 1098 c 128,-1,26
 1350 926 1350 926 1350 616 c 0,27,28
 1350 328 1350 328 1161.5 150.5 c 128,-1,29
 973 -27 973 -27 657 -27 c 0,30,31
 507 -27 507 -27 390 21.5 c 128,-1,32
 273 70 273 70 198.5 157 c 128,-1,33
 124 244 124 244 85.5 361 c 128,-1,34
 47 478 47 478 47 619 c 0,21,22
833 1501 m 0,35,36
 833 1538 833 1538 862.5 1565.5 c 128,-1,37
 892 1593 892 1593 945 1593 c 0,38,39
 1001 1593 1001 1593 1030.5 1566 c 128,-1,40
 1060 1539 1060 1539 1060 1502 c 0,41,42
 1060 1459 1060 1459 1030 1432.5 c 128,-1,43
 1000 1406 1000 1406 944 1406 c 0,44,45
 888 1406 888 1406 860.5 1433 c 128,-1,46
 833 1460 833 1460 833 1501 c 0,35,36
545 1501 m 0,47,48
 545 1538 545 1538 574.5 1565.5 c 128,-1,49
 604 1593 604 1593 656 1593 c 0,50,51
 712 1593 712 1593 741.5 1566 c 128,-1,52
 771 1539 771 1539 771 1502 c 0,53,54
 771 1459 771 1459 741.5 1432.5 c 128,-1,55
 712 1406 712 1406 656 1406 c 0,56,57
 600 1406 600 1406 572.5 1433 c 128,-1,58
 545 1460 545 1460 545 1501 c 0,47,48
EndSplineSet
EndChar

StartChar: Ograve
Encoding: 210 210 37
Width: 1397
VWidth: 0
Flags: MW
LayerCount: 2
Fore
SplineSet
363 674 m 0,0,1
 363 616 363 616 370.5 556.5 c 128,-1,2
 378 497 378 497 393.5 433.5 c 128,-1,3
 409 370 409 370 436.5 315 c 128,-1,4
 464 260 464 260 501 216 c 128,-1,5
 538 172 538 172 591 146.5 c 128,-1,6
 644 121 644 121 708 121 c 0,7,8
 1027 121 1027 121 1027 573 c 0,9,10
 1027 630 1027 630 1019.5 689.5 c 128,-1,11
 1012 749 1012 749 997 814 c 128,-1,12
 982 879 982 879 954 935 c 128,-1,13
 926 991 926 991 889.5 1036.5 c 128,-1,14
 853 1082 853 1082 798.5 1108.5 c 128,-1,15
 744 1135 744 1135 679 1135 c 0,16,17
 590 1135 590 1135 527 1100.5 c 128,-1,18
 464 1066 464 1066 429 1001.5 c 128,-1,19
 394 937 394 937 378.5 857.5 c 128,-1,20
 363 778 363 778 363 674 c 0,0,1
47 619 m 0,21,22
 47 913 47 913 227 1091.5 c 128,-1,23
 407 1270 407 1270 727 1270 c 0,24,25
 1019 1270 1019 1270 1184.5 1098 c 128,-1,26
 1350 926 1350 926 1350 616 c 0,27,28
 1350 328 1350 328 1161.5 150.5 c 128,-1,29
 973 -27 973 -27 657 -27 c 0,30,31
 507 -27 507 -27 390 21.5 c 128,-1,32
 273 70 273 70 198.5 157 c 128,-1,33
 124 244 124 244 85.5 361 c 128,-1,34
 47 478 47 478 47 619 c 0,21,22
543 1728 m 1,35,-1
 760 1766 l 1,36,-1
 900 1426 l 1,37,-1
 743 1393 l 1,38,-1
 543 1728 l 1,35,-1
EndSplineSet
EndChar

StartChar: Oslash
Encoding: 216 216 38
Width: 1437
VWidth: 0
Flags: MW
LayerCount: 2
Fore
SplineSet
47 619 m 0,0,1
 47 763 47 763 95.5 883 c 128,-1,2
 144 1003 144 1003 233.5 1089 c 128,-1,3
 323 1175 323 1175 455 1222.5 c 128,-1,4
 587 1270 587 1270 747 1270 c 0,5,6
 902 1270 902 1270 1027 1220 c 1,7,-1
 1085 1293 l 1,8,-1
 1282 1272 l 1,9,-1
 1173 1135 l 1,10,11
 1278 1050 1278 1050 1334 918.5 c 128,-1,12
 1390 787 1390 787 1390 616 c 0,13,14
 1390 475 1390 475 1338 355 c 128,-1,15
 1286 235 1286 235 1193 151 c 128,-1,16
 1100 67 1100 67 967 20 c 128,-1,17
 834 -27 834 -27 677 -27 c 0,18,19
 519 -27 519 -27 393 28 c 1,20,-1
 331 -60 l 1,21,-1
 135 -34 l 1,22,-1
 245 121 l 1,23,24
 148 208 148 208 97.5 336 c 128,-1,25
 47 464 47 464 47 619 c 0,0,1
510 229 m 1,26,27
 597 121 597 121 728 121 c 0,28,29
 1047 121 1047 121 1047 573 c 0,30,31
 1047 663 1047 663 1029 760.5 c 128,-1,32
 1011 858 1011 858 973 938 c 1,33,-1
 510 229 l 1,26,27
460 308 m 1,34,-1
 926 1016 l 1,35,36
 837 1135 837 1135 699 1135 c 0,37,38
 627 1135 627 1135 572 1112 c 128,-1,39
 517 1089 517 1089 481.5 1048.5 c 128,-1,40
 446 1008 446 1008 423.5 949 c 128,-1,41
 401 890 401 890 392 823 c 128,-1,42
 383 756 383 756 383 674 c 0,43,44
 383 582 383 582 402 484.5 c 128,-1,45
 421 387 421 387 460 308 c 1,34,-1
EndSplineSet
EndChar

StartChar: Otilde
Encoding: 213 213 39
Width: 1397
VWidth: 0
Flags: MW
LayerCount: 2
Fore
SplineSet
363 674 m 0,0,1
 363 616 363 616 370.5 556.5 c 128,-1,2
 378 497 378 497 393.5 433.5 c 128,-1,3
 409 370 409 370 436.5 315 c 128,-1,4
 464 260 464 260 501 216 c 128,-1,5
 538 172 538 172 591 146.5 c 128,-1,6
 644 121 644 121 708 121 c 0,7,8
 1027 121 1027 121 1027 573 c 0,9,10
 1027 630 1027 630 1019.5 689.5 c 128,-1,11
 1012 749 1012 749 997 814 c 128,-1,12
 982 879 982 879 954 935 c 128,-1,13
 926 991 926 991 889.5 1036.5 c 128,-1,14
 853 1082 853 1082 798.5 1108.5 c 128,-1,15
 744 1135 744 1135 679 1135 c 0,16,17
 590 1135 590 1135 527 1100.5 c 128,-1,18
 464 1066 464 1066 429 1001.5 c 128,-1,19
 394 937 394 937 378.5 857.5 c 128,-1,20
 363 778 363 778 363 674 c 0,0,1
47 619 m 0,21,22
 47 913 47 913 227 1091.5 c 128,-1,23
 407 1270 407 1270 727 1270 c 0,24,25
 1019 1270 1019 1270 1184.5 1098 c 128,-1,26
 1350 926 1350 926 1350 616 c 0,27,28
 1350 328 1350 328 1161.5 150.5 c 128,-1,29
 973 -27 973 -27 657 -27 c 0,30,31
 507 -27 507 -27 390 21.5 c 128,-1,32
 273 70 273 70 198.5 157 c 128,-1,33
 124 244 124 244 85.5 361 c 128,-1,34
 47 478 47 478 47 619 c 0,21,22
488 1398 m 1,35,36
 491 1504 491 1504 552 1562 c 128,-1,37
 613 1620 613 1620 709 1597 c 1,38,-1
 857 1572 l 1,39,40
 898 1561 898 1561 925 1574.5 c 128,-1,41
 952 1588 952 1588 960 1616 c 1,42,-1
 1042 1610 l 1,43,44
 1039 1561 1039 1561 1024.5 1519.5 c 128,-1,45
 1010 1478 1010 1478 982 1448.5 c 128,-1,46
 954 1419 954 1419 915 1408 c 128,-1,47
 876 1397 876 1397 824 1409 c 1,48,-1
 678 1435 l 1,49,50
 592 1458 592 1458 566 1388 c 1,51,-1
 488 1398 l 1,35,36
EndSplineSet
EndChar

StartChar: P
Encoding: 80 80 40
Width: 1181
VWidth: 0
Flags: MW
LayerCount: 2
Fore
SplineSet
44 0 m 1,0,-1
 61 106 l 1,1,-1
 237 169 l 1,2,-1
 237 1056 l 1,3,-1
 57 1093 l 1,4,-1
 69 1211 l 1,5,6
 400 1261 400 1261 631 1261 c 0,7,8
 722 1261 722 1261 795 1251 c 128,-1,9
 868 1241 868 1241 934 1215 c 128,-1,10
 1000 1189 1000 1189 1044 1148 c 128,-1,11
 1088 1107 1088 1107 1113.5 1041.5 c 128,-1,12
 1139 976 1139 976 1139 890 c 0,13,14
 1139 712 1139 712 1001 591 c 128,-1,15
 863 470 863 470 660 470 c 0,16,17
 629 470 629 470 569 474 c 1,18,-1
 545 602 l 1,19,-1
 581 603 l 1,20,21
 715 605 715 605 783 669 c 128,-1,22
 851 733 851 733 851 848 c 0,23,24
 851 965 851 965 787 1039 c 128,-1,25
 723 1113 723 1113 595 1113 c 0,26,27
 553 1113 553 1113 511 1106 c 1,28,-1
 511 178 l 1,29,-1
 749 120 l 1,30,-1
 731 0 l 1,31,-1
 44 0 l 1,0,-1
EndSplineSet
EndChar

StartChar: Q
Encoding: 81 81 41
Width: 1399
VWidth: 0
Flags: MW
LayerCount: 2
Fore
SplineSet
356 675 m 0,0,1
 356 601 356 601 369 528.5 c 128,-1,2
 382 456 382 456 413.5 382.5 c 128,-1,3
 445 309 445 309 491.5 252 c 128,-1,4
 538 195 538 195 612 155.5 c 128,-1,5
 686 116 686 116 777 108 c 1,6,7
 855 135 855 135 907 180 c 128,-1,8
 959 225 959 225 985.5 287.5 c 128,-1,9
 1012 350 1012 350 1022.5 415.5 c 128,-1,10
 1033 481 1033 481 1033 568 c 0,11,12
 1033 643 1033 643 1021 718.5 c 128,-1,13
 1009 794 1009 794 981.5 869 c 128,-1,14
 954 944 954 944 914 1001.5 c 128,-1,15
 874 1059 874 1059 812.5 1095 c 128,-1,16
 751 1131 751 1131 677 1131 c 0,17,18
 515 1131 515 1131 435.5 1013 c 128,-1,19
 356 895 356 895 356 675 c 0,0,1
47 608 m 0,20,21
 47 752 47 752 95.5 874 c 128,-1,22
 144 996 144 996 232 1083.5 c 128,-1,23
 320 1171 320 1171 449.5 1220.5 c 128,-1,24
 579 1270 579 1270 735 1270 c 0,25,26
 1025 1270 1025 1270 1188.5 1099.5 c 128,-1,27
 1352 929 1352 929 1352 626 c 0,28,29
 1352 399 1352 399 1229.5 229 c 128,-1,30
 1107 59 1107 59 903 5 c 1,31,32
 949 -91 949 -91 1053 -148.5 c 128,-1,33
 1157 -206 1157 -206 1336 -238 c 1,34,35
 1336 -247 1336 -247 1329.5 -291.5 c 128,-1,36
 1323 -336 1323 -336 1321 -343 c 1,37,38
 1217 -384 1217 -384 1091 -384 c 0,39,40
 986 -384 986 -384 900 -345.5 c 128,-1,41
 814 -307 814 -307 760.5 -223.5 c 128,-1,42
 707 -140 707 -140 711 -24 c 1,43,44
 690 -27 690 -27 659 -27 c 0,45,46
 466 -27 466 -27 326.5 55 c 128,-1,47
 187 137 187 137 117 279 c 128,-1,48
 47 421 47 421 47 608 c 0,20,21
EndSplineSet
EndChar

StartChar: R
Encoding: 82 82 42
Width: 1419
VWidth: 0
Flags: MW
LayerCount: 2
Fore
SplineSet
520 648 m 1,0,-1
 695 648 l 1,1,2
 854 717 854 717 854 874 c 0,3,4
 854 981 854 981 784 1051.5 c 128,-1,5
 714 1122 714 1122 596 1122 c 0,6,7
 578 1122 578 1122 560.5 1121 c 128,-1,8
 543 1120 543 1120 532.5 1119.5 c 128,-1,9
 522 1119 522 1119 520 1119 c 1,10,-1
 520 648 l 1,0,-1
45 0 m 1,11,-1
 60 106 l 1,12,-1
 238 169 l 1,13,-1
 238 1048 l 1,14,-1
 57 1086 l 1,15,-1
 68 1205 l 1,16,17
 187 1224 187 1224 348 1239 c 128,-1,18
 509 1254 509 1254 614 1254 c 0,19,20
 882 1254 882 1254 1020 1178.5 c 128,-1,21
 1158 1103 1158 1103 1158 926 c 0,22,23
 1158 813 1158 813 1075.5 717 c 128,-1,24
 993 621 993 621 877 580 c 1,25,-1
 1028 374 l 2,26,27
 1074 311 1074 311 1100.5 278.5 c 128,-1,28
 1127 246 1127 246 1166 206.5 c 128,-1,29
 1205 167 1205 167 1245 145 c 128,-1,30
 1285 123 1285 123 1334 110 c 2,31,-1
 1370 100 l 1,32,-1
 1347 0 l 1,33,34
 1273 -24 1273 -24 1178 -24 c 0,35,36
 1036 -24 1036 -24 939 52 c 128,-1,37
 842 128 842 128 768 268 c 1,38,-1
 644 498 l 1,39,-1
 520 498 l 1,40,-1
 520 178 l 1,41,-1
 685 119 l 1,42,-1
 674 0 l 1,43,-1
 45 0 l 1,11,-1
EndSplineSet
EndChar

StartChar: S
Encoding: 83 83 43
Width: 984
VWidth: 0
Flags: MW
LayerCount: 2
Fore
SplineSet
51 124 m 1,0,-1
 74 438 l 1,1,-1
 214 417 l 1,2,-1
 254 230 l 1,3,4
 284 186 284 186 344 157.5 c 128,-1,5
 404 129 404 129 470 129 c 0,6,7
 544 129 544 129 598 171 c 128,-1,8
 652 213 652 213 652 284 c 0,9,10
 652 330 652 330 619.5 368 c 128,-1,11
 587 406 587 406 535.5 434 c 128,-1,12
 484 462 484 462 422 490.5 c 128,-1,13
 360 519 360 519 297.5 554 c 128,-1,14
 235 589 235 589 183.5 632 c 128,-1,15
 132 675 132 675 99.5 740 c 128,-1,16
 67 805 67 805 67 886 c 0,17,18
 67 961 67 961 93.5 1024.5 c 128,-1,19
 120 1088 120 1088 165 1132 c 128,-1,20
 210 1176 210 1176 270 1207 c 128,-1,21
 330 1238 330 1238 396 1253 c 128,-1,22
 462 1268 462 1268 532 1268 c 0,23,24
 616 1268 616 1268 709.5 1241 c 128,-1,25
 803 1214 803 1214 850 1172 c 1,26,-1
 824 850 l 1,27,-1
 688 872 l 1,28,-1
 656 1038 l 1,29,30
 632 1077 632 1077 576.5 1106.5 c 128,-1,31
 521 1136 521 1136 464 1136 c 0,32,33
 399 1136 399 1136 359.5 1098.5 c 128,-1,34
 320 1061 320 1061 320 992 c 0,35,36
 320 943 320 943 354 903 c 128,-1,37
 388 863 388 863 443 832.5 c 128,-1,38
 498 802 498 802 564 772 c 128,-1,39
 630 742 630 742 696.5 705.5 c 128,-1,40
 763 669 763 669 818 625 c 128,-1,41
 873 581 873 581 907 515 c 128,-1,42
 941 449 941 449 941 368 c 0,43,44
 941 290 941 290 909.5 223.5 c 128,-1,45
 878 157 878 157 826.5 112.5 c 128,-1,46
 775 68 775 68 709.5 36.5 c 128,-1,47
 644 5 644 5 576.5 -9.5 c 128,-1,48
 509 -24 509 -24 445 -24 c 0,49,50
 310 -24 310 -24 203.5 18 c 128,-1,51
 97 60 97 60 51 124 c 1,0,-1
EndSplineSet
EndChar

StartChar: T
Encoding: 84 84 44
Width: 1280
VWidth: 0
Flags: MW
LayerCount: 2
Fore
SplineSet
47 1244 m 1,0,-1
 1234 1244 l 1,1,-1
 1201 851 l 1,2,-1
 1062 874 l 1,3,-1
 1011 1112 l 1,4,-1
 767 1112 l 1,5,-1
 767 161 l 1,6,-1
 960 116 l 1,7,-1
 945 0 l 1,8,-1
 307 0 l 1,9,-1
 317 107 l 1,10,-1
 490 165 l 1,11,-1
 490 1112 l 1,12,-1
 253 1112 l 1,13,-1
 183 848 l 1,14,-1
 52 867 l 1,15,-1
 47 1244 l 1,0,-1
EndSplineSet
EndChar

StartChar: Thorn
Encoding: 222 222 45
Width: 1185
VWidth: 0
Flags: MW
LayerCount: 2
Fore
SplineSet
49 1131 m 1,0,-1
 64 1244 l 1,1,-1
 700 1244 l 1,2,-1
 686 1126 l 1,3,-1
 512 1074 l 1,4,-1
 512 1001 l 1,5,6
 582 1008 582 1008 633 1008 c 0,7,8
 725 1008 725 1008 797 999.5 c 128,-1,9
 869 991 869 991 935.5 967.5 c 128,-1,10
 1002 944 1002 944 1045.5 904.5 c 128,-1,11
 1089 865 1089 865 1115 801.5 c 128,-1,12
 1141 738 1141 738 1141 652 c 0,13,14
 1141 475 1141 475 1008 363 c 128,-1,15
 875 251 875 251 670 251 c 0,16,17
 614 251 614 251 572 256 c 1,18,-1
 547 386 l 1,19,20
 699 381 699 381 775.5 435 c 128,-1,21
 852 489 852 489 852 610 c 0,22,23
 852 724 852 724 789 791 c 128,-1,24
 726 858 726 858 599 858 c 0,25,26
 554 858 554 858 512 851 c 1,27,-1
 512 172 l 1,28,-1
 720 122 l 1,29,-1
 707 0 l 1,30,-1
 52 0 l 1,31,-1
 62 108 l 1,32,-1
 234 170 l 1,33,-1
 234 1073 l 1,34,-1
 49 1131 l 1,0,-1
EndSplineSet
EndChar

StartChar: U
Encoding: 85 85 46
Width: 1535
VWidth: 0
Flags: MW
LayerCount: 2
Fore
SplineSet
41 1131 m 1,0,-1
 62 1244 l 1,1,-1
 693 1244 l 1,2,-1
 678 1131 l 1,3,-1
 510 1078 l 1,4,-1
 510 526 l 2,5,6
 510 344 510 344 596 256.5 c 128,-1,7
 682 169 682 169 832 169 c 0,8,9
 970 169 970 169 1047 253 c 128,-1,10
 1124 337 1124 337 1124 510 c 2,11,-1
 1125 1073 l 1,12,-1
 946 1131 l 1,13,-1
 960 1244 l 1,14,-1
 1492 1244 l 1,15,-1
 1478 1131 l 1,16,-1
 1312 1078 l 1,17,-1
 1308 540 l 2,18,19
 1305 252 1305 252 1171 112.5 c 128,-1,20
 1037 -27 1037 -27 767 -27 c 0,21,22
 711 -27 711 -27 664 -23 c 128,-1,23
 617 -19 617 -19 559.5 -6.5 c 128,-1,24
 502 6 502 6 457 27.5 c 128,-1,25
 412 49 412 49 367.5 87 c 128,-1,26
 323 125 323 125 293.5 177 c 128,-1,27
 264 229 264 229 246 305 c 128,-1,28
 228 381 228 381 228 476 c 2,29,-1
 228 1073 l 1,30,-1
 41 1131 l 1,0,-1
EndSplineSet
EndChar

StartChar: Uacute
Encoding: 218 218 47
Width: 1535
VWidth: 0
Flags: MW
LayerCount: 2
Fore
SplineSet
41 1131 m 1,0,-1
 62 1244 l 1,1,-1
 693 1244 l 1,2,-1
 678 1131 l 1,3,-1
 510 1078 l 1,4,-1
 510 526 l 2,5,6
 510 344 510 344 596 256.5 c 128,-1,7
 682 169 682 169 832 169 c 0,8,9
 970 169 970 169 1047 253 c 128,-1,10
 1124 337 1124 337 1124 510 c 2,11,-1
 1125 1073 l 1,12,-1
 946 1131 l 1,13,-1
 960 1244 l 1,14,-1
 1492 1244 l 1,15,-1
 1478 1131 l 1,16,-1
 1312 1078 l 1,17,-1
 1308 540 l 2,18,19
 1305 252 1305 252 1171 112.5 c 128,-1,20
 1037 -27 1037 -27 767 -27 c 0,21,22
 711 -27 711 -27 664 -23 c 128,-1,23
 617 -19 617 -19 559.5 -6.5 c 128,-1,24
 502 6 502 6 457 27.5 c 128,-1,25
 412 49 412 49 367.5 87 c 128,-1,26
 323 125 323 125 293.5 177 c 128,-1,27
 264 229 264 229 246 305 c 128,-1,28
 228 381 228 381 228 476 c 2,29,-1
 228 1073 l 1,30,-1
 41 1131 l 1,0,-1
642 1420 m 1,31,-1
 756 1734 l 1,32,-1
 978 1706 l 1,33,-1
 796 1393 l 1,34,-1
 642 1420 l 1,31,-1
EndSplineSet
EndChar

StartChar: Ucircumflex
Encoding: 219 219 48
Width: 1535
VWidth: 0
Flags: MW
LayerCount: 2
Fore
SplineSet
41 1131 m 1,0,-1
 62 1244 l 1,1,-1
 693 1244 l 1,2,-1
 678 1131 l 1,3,-1
 510 1078 l 1,4,-1
 510 526 l 2,5,6
 510 344 510 344 596 256.5 c 128,-1,7
 682 169 682 169 832 169 c 0,8,9
 970 169 970 169 1047 253 c 128,-1,10
 1124 337 1124 337 1124 510 c 2,11,-1
 1125 1073 l 1,12,-1
 946 1131 l 1,13,-1
 960 1244 l 1,14,-1
 1492 1244 l 1,15,-1
 1478 1131 l 1,16,-1
 1312 1078 l 1,17,-1
 1308 540 l 2,18,19
 1305 252 1305 252 1171 112.5 c 128,-1,20
 1037 -27 1037 -27 767 -27 c 0,21,22
 711 -27 711 -27 664 -23 c 128,-1,23
 617 -19 617 -19 559.5 -6.5 c 128,-1,24
 502 6 502 6 457 27.5 c 128,-1,25
 412 49 412 49 367.5 87 c 128,-1,26
 323 125 323 125 293.5 177 c 128,-1,27
 264 229 264 229 246 305 c 128,-1,28
 228 381 228 381 228 476 c 2,29,-1
 228 1073 l 1,30,-1
 41 1131 l 1,0,-1
556 1392 m 1,31,-1
 716 1609 l 1,32,-1
 906 1616 l 1,33,-1
 1072 1396 l 1,34,-1
 922 1373 l 1,35,-1
 808 1488 l 1,36,-1
 796 1488 l 1,37,-1
 692 1372 l 1,38,-1
 556 1392 l 1,31,-1
EndSplineSet
EndChar

StartChar: Udieresis
Encoding: 220 220 49
Width: 1535
VWidth: 0
Flags: MW
LayerCount: 2
Fore
SplineSet
41 1131 m 1,0,-1
 62 1244 l 1,1,-1
 693 1244 l 1,2,-1
 678 1131 l 1,3,-1
 510 1078 l 1,4,-1
 510 526 l 2,5,6
 510 344 510 344 596 256.5 c 128,-1,7
 682 169 682 169 832 169 c 0,8,9
 970 169 970 169 1047 253 c 128,-1,10
 1124 337 1124 337 1124 510 c 2,11,-1
 1125 1073 l 1,12,-1
 946 1131 l 1,13,-1
 960 1244 l 1,14,-1
 1492 1244 l 1,15,-1
 1478 1131 l 1,16,-1
 1312 1078 l 1,17,-1
 1308 540 l 2,18,19
 1305 252 1305 252 1171 112.5 c 128,-1,20
 1037 -27 1037 -27 767 -27 c 0,21,22
 711 -27 711 -27 664 -23 c 128,-1,23
 617 -19 617 -19 559.5 -6.5 c 128,-1,24
 502 6 502 6 457 27.5 c 128,-1,25
 412 49 412 49 367.5 87 c 128,-1,26
 323 125 323 125 293.5 177 c 128,-1,27
 264 229 264 229 246 305 c 128,-1,28
 228 381 228 381 228 476 c 2,29,-1
 228 1073 l 1,30,-1
 41 1131 l 1,0,-1
850 1501 m 0,31,32
 850 1538 850 1538 879.5 1565.5 c 128,-1,33
 909 1593 909 1593 962 1593 c 0,34,35
 1018 1593 1018 1593 1047.5 1566 c 128,-1,36
 1077 1539 1077 1539 1077 1502 c 0,37,38
 1077 1459 1077 1459 1047 1432.5 c 128,-1,39
 1017 1406 1017 1406 961 1406 c 0,40,41
 905 1406 905 1406 877.5 1433 c 128,-1,42
 850 1460 850 1460 850 1501 c 0,31,32
562 1501 m 0,43,44
 562 1538 562 1538 591.5 1565.5 c 128,-1,45
 621 1593 621 1593 673 1593 c 0,46,47
 729 1593 729 1593 758.5 1566 c 128,-1,48
 788 1539 788 1539 788 1502 c 0,49,50
 788 1459 788 1459 758.5 1432.5 c 128,-1,51
 729 1406 729 1406 673 1406 c 0,52,53
 617 1406 617 1406 589.5 1433 c 128,-1,54
 562 1460 562 1460 562 1501 c 0,43,44
EndSplineSet
EndChar

StartChar: Ugrave
Encoding: 217 217 50
Width: 1535
VWidth: 0
Flags: MW
LayerCount: 2
Fore
SplineSet
41 1131 m 1,0,-1
 62 1244 l 1,1,-1
 693 1244 l 1,2,-1
 678 1131 l 1,3,-1
 510 1078 l 1,4,-1
 510 526 l 2,5,6
 510 344 510 344 596 256.5 c 128,-1,7
 682 169 682 169 832 169 c 0,8,9
 970 169 970 169 1047 253 c 128,-1,10
 1124 337 1124 337 1124 510 c 2,11,-1
 1125 1073 l 1,12,-1
 946 1131 l 1,13,-1
 960 1244 l 1,14,-1
 1492 1244 l 1,15,-1
 1478 1131 l 1,16,-1
 1312 1078 l 1,17,-1
 1308 540 l 2,18,19
 1305 252 1305 252 1171 112.5 c 128,-1,20
 1037 -27 1037 -27 767 -27 c 0,21,22
 711 -27 711 -27 664 -23 c 128,-1,23
 617 -19 617 -19 559.5 -6.5 c 128,-1,24
 502 6 502 6 457 27.5 c 128,-1,25
 412 49 412 49 367.5 87 c 128,-1,26
 323 125 323 125 293.5 177 c 128,-1,27
 264 229 264 229 246 305 c 128,-1,28
 228 381 228 381 228 476 c 2,29,-1
 228 1073 l 1,30,-1
 41 1131 l 1,0,-1
561 1728 m 1,31,-1
 778 1766 l 1,32,-1
 918 1426 l 1,33,-1
 761 1393 l 1,34,-1
 561 1728 l 1,31,-1
EndSplineSet
EndChar

StartChar: V
Encoding: 86 86 51
Width: 1463
VWidth: 0
Flags: MW
LayerCount: 2
Fore
SplineSet
43 1128 m 1,0,-1
 57 1244 l 1,1,-1
 705 1244 l 1,2,-1
 688 1128 l 1,3,-1
 522 1078 l 1,4,-1
 796 336 l 1,5,-1
 1065 1076 l 1,6,-1
 887 1128 l 1,7,-1
 898 1244 l 1,8,-1
 1418 1244 l 1,9,-1
 1407 1128 l 1,10,-1
 1274 1078 l 1,11,-1
 865 20 l 1,12,-1
 612 -24 l 1,13,-1
 189 1076 l 1,14,-1
 43 1128 l 1,0,-1
EndSplineSet
EndChar

StartChar: W
Encoding: 87 87 52
Width: 2019
VWidth: 0
Flags: MW
LayerCount: 2
Fore
SplineSet
43 1128 m 1,0,-1
 53 1244 l 1,1,-1
 688 1244 l 1,2,-1
 663 1124 l 1,3,-1
 503 1078 l 1,4,-1
 701 378 l 1,5,-1
 929 1197 l 1,6,-1
 1186 1230 l 1,7,-1
 1413 394 l 1,8,-1
 1620 1078 l 1,9,-1
 1446 1126 l 1,10,-1
 1462 1244 l 1,11,-1
 1976 1244 l 1,12,-1
 1958 1128 l 1,13,-1
 1831 1082 l 1,14,-1
 1481 21 l 1,15,-1
 1237 -24 l 1,16,-1
 1003 836 l 1,17,-1
 771 21 l 1,18,-1
 517 -24 l 1,19,-1
 201 1074 l 1,20,-1
 43 1128 l 1,0,-1
EndSplineSet
EndChar

StartChar: X
Encoding: 88 88 53
Width: 1363
VWidth: 0
Flags: MW
LayerCount: 2
Fore
SplineSet
46 0 m 1,0,-1
 64 116 l 1,1,-1
 192 177 l 1,2,-1
 538 602 l 1,3,-1
 198 1068 l 1,4,-1
 66 1116 l 1,5,-1
 86 1244 l 1,6,-1
 666 1244 l 1,7,-1
 647 1121 l 1,8,-1
 523 1066 l 1,9,-1
 727 769 l 1,10,-1
 942 1070 l 1,11,-1
 800 1125 l 1,12,-1
 820 1244 l 1,13,-1
 1291 1244 l 1,14,-1
 1275 1128 l 1,15,-1
 1146 1072 l 1,16,-1
 825 650 l 1,17,-1
 1192 170 l 1,18,-1
 1310 130 l 1,19,-1
 1291 0 l 1,20,-1
 718 0 l 1,21,-1
 738 120 l 1,22,-1
 864 176 l 1,23,-1
 641 486 l 1,24,-1
 414 174 l 1,25,-1
 568 125 l 1,26,-1
 546 0 l 1,27,-1
 46 0 l 1,0,-1
EndSplineSet
EndChar

StartChar: Y
Encoding: 89 89 54
Width: 1310
VWidth: 0
Flags: MW
LayerCount: 2
Fore
SplineSet
41 1128 m 1,0,-1
 63 1244 l 1,1,-1
 647 1244 l 1,2,-1
 627 1128 l 1,3,-1
 511 1079 l 1,4,-1
 724 690 l 1,5,-1
 931 1076 l 1,6,-1
 791 1128 l 1,7,-1
 807 1244 l 1,8,-1
 1267 1244 l 1,9,-1
 1249 1128 l 1,10,-1
 1130 1078 l 1,11,-1
 799 514 l 1,12,-1
 799 168 l 1,13,-1
 965 110 l 1,14,-1
 953 0 l 1,15,-1
 349 0 l 1,16,-1
 363 106 l 1,17,-1
 517 169 l 1,18,-1
 517 494 l 1,19,-1
 177 1076 l 1,20,-1
 41 1128 l 1,0,-1
EndSplineSet
EndChar

StartChar: Yacute
Encoding: 221 221 55
Width: 1310
VWidth: 0
Flags: MW
LayerCount: 2
Fore
SplineSet
41 1128 m 1,0,-1
 63 1244 l 1,1,-1
 647 1244 l 1,2,-1
 627 1128 l 1,3,-1
 511 1079 l 1,4,-1
 724 690 l 1,5,-1
 931 1076 l 1,6,-1
 791 1128 l 1,7,-1
 807 1244 l 1,8,-1
 1267 1244 l 1,9,-1
 1249 1128 l 1,10,-1
 1130 1078 l 1,11,-1
 799 514 l 1,12,-1
 799 168 l 1,13,-1
 965 110 l 1,14,-1
 953 0 l 1,15,-1
 349 0 l 1,16,-1
 363 106 l 1,17,-1
 517 169 l 1,18,-1
 517 494 l 1,19,-1
 177 1076 l 1,20,-1
 41 1128 l 1,0,-1
489 1420 m 1,21,-1
 603 1734 l 1,22,-1
 825 1706 l 1,23,-1
 643 1393 l 1,24,-1
 489 1420 l 1,21,-1
EndSplineSet
EndChar

StartChar: Z
Encoding: 90 90 56
Width: 1136
VWidth: 0
Flags: MW
LayerCount: 2
Fore
SplineSet
53 170 m 1,0,-1
 741 1109 l 1,1,-1
 302 1109 l 1,2,-1
 232 858 l 1,3,-1
 87 882 l 1,4,-1
 97 1244 l 1,5,-1
 1077 1244 l 1,6,-1
 1073 1128 l 1,7,-1
 349 153 l 1,8,-1
 813 138 l 1,9,-1
 967 404 l 1,10,-1
 1089 384 l 1,11,-1
 1030 0 l 1,12,-1
 63 0 l 1,13,-1
 53 170 l 1,0,-1
EndSplineSet
EndChar

StartChar: a
Encoding: 97 97 57
Width: 1126
VWidth: 845
Flags: MW
LayerCount: 2
Fore
SplineSet
35 0 m 1,0,-1
 49 106 l 1,1,-1
 159 185 l 1,2,-1
 465 926 l 1,3,-1
 709 974 l 1,4,-1
 994 181 l 1,5,-1
 1092 112 l 1,6,-1
 1082 -1 l 1,7,-1
 583 -1 l 1,8,-1
 597 105 l 1,9,-1
 700 180 l 1,10,-1
 653 326 l 1,11,-1
 393 326 l 1,12,-1
 342 182 l 1,13,-1
 464 114 l 1,14,-1
 452 0 l 1,15,-1
 35 0 l 1,0,-1
433 436 m 1,16,-1
 617 436 l 1,17,-1
 528 706 l 1,18,-1
 433 436 l 1,16,-1
EndSplineSet
EndChar

StartChar: aacute
Encoding: 225 225 58
Width: 1126
VWidth: 0
Flags: MW
LayerCount: 2
Fore
SplineSet
496 1058 m 1,0,-1
 630 1373 l 1,1,-1
 860 1348 l 1,2,-1
 638 1029 l 1,3,-1
 496 1058 l 1,0,-1
35 0 m 1,4,-1
 49 106 l 1,5,-1
 159 185 l 1,6,-1
 465 926 l 1,7,-1
 709 974 l 1,8,-1
 994 181 l 1,9,-1
 1092 112 l 1,10,-1
 1082 -1 l 1,11,-1
 583 -1 l 1,12,-1
 597 105 l 1,13,-1
 700 180 l 1,14,-1
 653 326 l 1,15,-1
 393 326 l 1,16,-1
 342 182 l 1,17,-1
 464 114 l 1,18,-1
 452 0 l 1,19,-1
 35 0 l 1,4,-1
433 436 m 1,20,-1
 617 436 l 1,21,-1
 528 706 l 1,22,-1
 433 436 l 1,20,-1
EndSplineSet
EndChar

StartChar: acircumflex
Encoding: 226 226 59
Width: 1126
VWidth: 0
Flags: MW
LayerCount: 2
Fore
SplineSet
336 1054 m 1,0,-1
 496 1270 l 1,1,-1
 686 1278 l 1,2,-1
 852 1058 l 1,3,-1
 702 1034 l 1,4,-1
 588 1150 l 1,5,-1
 576 1150 l 1,6,-1
 472 1034 l 1,7,-1
 336 1054 l 1,0,-1
35 0 m 1,8,-1
 49 106 l 1,9,-1
 159 185 l 1,10,-1
 465 926 l 1,11,-1
 709 974 l 1,12,-1
 994 181 l 1,13,-1
 1092 112 l 1,14,-1
 1082 -1 l 1,15,-1
 583 -1 l 1,16,-1
 597 105 l 1,17,-1
 700 180 l 1,18,-1
 653 326 l 1,19,-1
 393 326 l 1,20,-1
 342 182 l 1,21,-1
 464 114 l 1,22,-1
 452 0 l 1,23,-1
 35 0 l 1,8,-1
433 436 m 1,24,-1
 617 436 l 1,25,-1
 528 706 l 1,26,-1
 433 436 l 1,24,-1
EndSplineSet
EndChar

StartChar: acute
Encoding: 180 180 60
Width: 487
VWidth: 0
Flags: MW
LayerCount: 2
Fore
SplineSet
75 1390 m 1,0,-1
 189 1704 l 1,1,-1
 411 1676 l 1,2,-1
 229 1363 l 1,3,-1
 75 1390 l 1,0,-1
EndSplineSet
EndChar

StartChar: adieresis
Encoding: 228 228 61
Width: 1126
VWidth: 0
Flags: MW
LayerCount: 2
Fore
SplineSet
617 1128 m 0,0,1
 617 1166 617 1166 646.5 1193 c 128,-1,2
 676 1220 676 1220 728 1220 c 0,3,4
 784 1220 784 1220 814 1193 c 128,-1,5
 844 1166 844 1166 844 1128 c 0,6,7
 844 1085 844 1085 814 1059 c 128,-1,8
 784 1033 784 1033 728 1033 c 128,-1,9
 672 1033 672 1033 644.5 1060.5 c 128,-1,10
 617 1088 617 1088 617 1128 c 0,0,1
328 1128 m 0,11,12
 328 1166 328 1166 357.5 1193 c 128,-1,13
 387 1220 387 1220 440 1220 c 0,14,15
 496 1220 496 1220 525 1193 c 128,-1,16
 554 1166 554 1166 554 1128 c 0,17,18
 554 1085 554 1085 525 1059 c 128,-1,19
 496 1033 496 1033 440 1033 c 0,20,21
 384 1033 384 1033 356 1060 c 128,-1,22
 328 1087 328 1087 328 1128 c 0,11,12
35 0 m 1,23,-1
 49 106 l 1,24,-1
 159 185 l 1,25,-1
 465 926 l 1,26,-1
 709 974 l 1,27,-1
 994 181 l 1,28,-1
 1092 112 l 1,29,-1
 1082 -1 l 1,30,-1
 583 -1 l 1,31,-1
 597 105 l 1,32,-1
 700 180 l 1,33,-1
 653 326 l 1,34,-1
 393 326 l 1,35,-1
 342 182 l 1,36,-1
 464 114 l 1,37,-1
 452 0 l 1,38,-1
 35 0 l 1,23,-1
433 436 m 1,39,-1
 617 436 l 1,40,-1
 528 706 l 1,41,-1
 433 436 l 1,39,-1
EndSplineSet
EndChar

StartChar: ae
Encoding: 230 230 62
Width: 1508
VWidth: 0
Flags: MW
LayerCount: 2
Fore
SplineSet
534 448 m 1,0,-1
 733 448 l 1,1,-1
 724 748 l 1,2,-1
 534 448 l 1,0,-1
42 -0 m 1,3,-1
 57 119 l 1,4,-1
 167 184 l 1,5,-1
 576 784 l 1,6,-1
 410 840 l 1,7,-1
 425 953 l 1,8,-1
 1430 953 l 1,9,-1
 1404 632 l 1,10,-1
 1270 652 l 1,11,-1
 1212 821 l 1,12,-1
 970 821 l 1,13,-1
 980 526 l 1,14,-1
 1128 534 l 1,15,-1
 1152 576 l 1,16,-1
 1268 592 l 1,17,-1
 1234 339 l 1,18,-1
 1132 340 l 1,19,-1
 1114 405 l 1,20,-1
 986 412 l 1,21,-1
 994 150 l 1,22,-1
 1244 138 l 1,23,-1
 1345 327 l 1,24,-1
 1474 312 l 1,25,-1
 1450 0 l 1,26,-1
 606 0 l 1,27,-1
 617 106 l 1,28,-1
 742 169 l 1,29,-1
 738 334 l 1,30,-1
 462 334 l 1,31,-1
 368 184 l 1,32,-1
 507 116 l 1,33,-1
 492 -0 l 1,34,-1
 42 -0 l 1,3,-1
EndSplineSet
EndChar

StartChar: agrave
Encoding: 224 224 63
Width: 1612
VWidth: 0
Flags: MW
LayerCount: 2
Fore
SplineSet
282 1354 m 1,0,-1
 515 1378 l 1,1,-1
 654 1059 l 1,2,-1
 508 1028 l 1,3,-1
 282 1354 l 1,0,-1
26 0 m 1,4,-1
 40 106 l 1,5,-1
 150 185 l 1,6,-1
 456 926 l 1,7,-1
 700 974 l 1,8,-1
 985 181 l 1,9,-1
 1082 112 l 1,10,-1
 1072 -1 l 1,11,-1
 574 -1 l 1,12,-1
 588 105 l 1,13,-1
 691 180 l 1,14,-1
 643 326 l 1,15,-1
 384 326 l 1,16,-1
 332 182 l 1,17,-1
 455 114 l 1,18,-1
 442 0 l 1,19,-1
 26 0 l 1,4,-1
423 436 m 1,20,-1
 607 436 l 1,21,-1
 519 706 l 1,22,-1
 423 436 l 1,20,-1
EndSplineSet
EndChar

StartChar: ampersand
Encoding: 38 38 64
Width: 1211
VWidth: 0
Flags: MW
LayerCount: 2
Fore
SplineSet
390 398 m 1,0,1
 322 332 322 332 322 246 c 0,2,3
 322 203 322 203 353 168 c 128,-1,4
 384 133 384 133 436 133 c 0,5,6
 517 133 517 133 589 184 c 1,7,-1
 390 398 l 1,0,1
666 106 m 1,8,9
 524 -18 524 -18 352 -18 c 0,10,11
 228 -18 228 -18 159 39 c 128,-1,12
 90 96 90 96 90 194 c 0,13,14
 90 234 90 234 103.5 270.5 c 128,-1,15
 117 307 117 307 136 333 c 128,-1,16
 155 359 155 359 188.5 387 c 128,-1,17
 222 415 222 415 248.5 433 c 128,-1,18
 275 451 275 451 317 476 c 1,19,-1
 295 500 l 1,20,21
 192 614 192 614 192 718 c 0,22,23
 192 788 192 788 235.5 847 c 128,-1,24
 279 906 279 906 348.5 939 c 128,-1,25
 418 972 418 972 494 972 c 0,26,27
 602 972 602 972 671.5 918 c 128,-1,28
 741 864 741 864 741 780 c 0,29,30
 741 732 741 732 727.5 692 c 128,-1,31
 714 652 714 652 687.5 620.5 c 128,-1,32
 661 589 661 589 633.5 566 c 128,-1,33
 606 543 606 543 567 518 c 1,34,-1
 731 345 l 1,35,36
 766 400 766 400 802 474 c 1,37,-1
 718 529 l 1,38,-1
 736 632 l 1,39,-1
 1107 632 l 1,40,-1
 1091 529 l 1,41,-1
 947 478 l 1,42,43
 872 352 872 352 808 265 c 1,44,-1
 812 260 l 2,45,46
 871 197 871 197 928.5 165.5 c 128,-1,47
 986 134 986 134 1052 116 c 2,48,-1
 1080 108 l 1,49,-1
 1058 6 l 1,50,51
 1002 -16 1002 -16 916 -16 c 0,52,53
 796 -16 796 -16 666 106 c 1,8,9
492 596 m 1,54,55
 558 661 558 661 558 740 c 0,56,57
 558 803 558 803 529 836.5 c 128,-1,58
 500 870 500 870 460 870 c 0,59,60
 431 870 431 870 410.5 846 c 128,-1,61
 390 822 390 822 390 786 c 0,62,63
 390 743 390 743 414 700 c 128,-1,64
 438 657 438 657 492 596 c 1,54,55
EndSplineSet
EndChar

StartChar: aring
Encoding: 229 229 65
Width: 1126
VWidth: 0
Flags: MW
LayerCount: 2
Fore
SplineSet
506 1192 m 0,0,1
 506 1152 506 1152 529 1126 c 128,-1,2
 552 1100 552 1100 588 1100 c 0,3,4
 622 1100 622 1100 643 1123 c 128,-1,5
 664 1146 664 1146 664 1186 c 0,6,7
 664 1224 664 1224 640 1251 c 128,-1,8
 616 1278 616 1278 580 1278 c 0,9,10
 548 1278 548 1278 527 1252 c 128,-1,11
 506 1226 506 1226 506 1192 c 0,0,1
365 1184 m 0,12,13
 365 1258 365 1258 424.5 1307.5 c 128,-1,14
 484 1357 484 1357 590 1357 c 0,15,16
 698 1357 698 1357 754.5 1313.5 c 128,-1,17
 811 1270 811 1270 811 1194 c 0,18,19
 811 1122 811 1122 751 1071 c 128,-1,20
 691 1020 691 1020 580 1020 c 0,21,22
 472 1020 472 1020 418.5 1063 c 128,-1,23
 365 1106 365 1106 365 1184 c 0,12,13
35 0 m 1,24,-1
 49 106 l 1,25,-1
 159 185 l 1,26,-1
 465 926 l 1,27,-1
 709 974 l 1,28,-1
 994 181 l 1,29,-1
 1092 112 l 1,30,-1
 1082 -1 l 1,31,-1
 583 -1 l 1,32,-1
 597 105 l 1,33,-1
 700 180 l 1,34,-1
 653 326 l 1,35,-1
 393 326 l 1,36,-1
 342 182 l 1,37,-1
 464 114 l 1,38,-1
 452 0 l 1,39,-1
 35 0 l 1,24,-1
433 436 m 1,40,-1
 617 436 l 1,41,-1
 528 706 l 1,42,-1
 433 436 l 1,40,-1
EndSplineSet
EndChar

StartChar: asciicircum
Encoding: 94 94 66
Width: 740
VWidth: 0
Flags: MW
LayerCount: 2
Fore
SplineSet
49 826 m 1,0,-1
 314 1237 l 1,1,-1
 414 1250 l 1,2,-1
 688 824 l 1,3,-1
 599 788 l 1,4,-1
 356 1018 l 1,5,-1
 345 1018 l 1,6,-1
 131 794 l 1,7,-1
 49 826 l 1,0,-1
EndSplineSet
EndChar

StartChar: asciitilde
Encoding: 126 126 67
Width: 989
VWidth: 0
Flags: MW
LayerCount: 2
Fore
SplineSet
58 347 m 1,0,1
 57 388 57 388 64.5 431.5 c 128,-1,2
 72 475 72 475 91.5 520 c 128,-1,3
 111 565 111 565 140 597.5 c 128,-1,4
 169 630 169 630 216.5 646.5 c 128,-1,5
 264 663 264 663 322 654 c 2,6,-1
 718 590 l 2,7,8
 741 586 741 586 759 592.5 c 128,-1,9
 777 599 777 599 786.5 611 c 128,-1,10
 796 623 796 623 802 635 c 128,-1,11
 808 647 808 647 810 656 c 2,12,-1
 812 665 l 1,13,-1
 931 655 l 1,14,15
 930 582 930 582 912.5 522.5 c 128,-1,16
 895 463 895 463 861 420.5 c 128,-1,17
 827 378 827 378 771.5 360 c 128,-1,18
 716 342 716 342 645 355 c 2,19,-1
 262 424 l 2,20,21
 240 428 240 428 223 420.5 c 128,-1,22
 206 413 206 413 197.5 399 c 128,-1,23
 189 385 189 385 183.5 371 c 128,-1,24
 178 357 178 357 176 346 c 2,25,-1
 175 336 l 1,26,-1
 58 347 l 1,0,1
EndSplineSet
EndChar

StartChar: asterisk
Encoding: 42 42 68
Width: 667
VWidth: 0
Flags: MW
LayerCount: 2
Fore
SplineSet
89 1102 m 1,0,-1
 198 1184 l 1,1,-1
 301 990 l 1,2,-1
 419 1210 l 1,3,-1
 527 1132 l 1,4,-1
 372 963 l 1,5,-1
 621 934 l 1,6,-1
 581 806 l 1,7,-1
 377 888 l 1,8,-1
 421 654 l 1,9,-1
 284 654 l 1,10,-1
 308 864 l 1,11,-1
 89 756 l 1,12,-1
 47 888 l 1,13,-1
 266 926 l 1,14,-1
 89 1102 l 1,0,-1
EndSplineSet
EndChar

StartChar: at
Encoding: 64 64 69
Width: 1457
VWidth: 0
Flags: MW
LayerCount: 2
Fore
SplineSet
593 378 m 0,0,1
 593 297 593 297 611 265.5 c 128,-1,2
 629 234 629 234 662 234 c 0,3,4
 708 234 708 234 758 276 c 1,5,-1
 808 675 l 1,6,7
 804 675 804 675 785 680.5 c 128,-1,8
 766 686 766 686 748 686 c 0,9,10
 710 686 710 686 679 652.5 c 128,-1,11
 648 619 648 619 630 569 c 128,-1,12
 612 519 612 519 602.5 468.5 c 128,-1,13
 593 418 593 418 593 378 c 0,0,1
53 326 m 0,14,15
 53 468 53 468 111.5 598.5 c 128,-1,16
 170 729 170 729 273.5 827.5 c 128,-1,17
 377 926 377 926 530 985 c 128,-1,18
 683 1044 683 1044 860 1044 c 0,19,20
 966 1044 966 1044 1062.5 1015.5 c 128,-1,21
 1159 987 1159 987 1235.5 934 c 128,-1,22
 1312 881 1312 881 1357.5 796 c 128,-1,23
 1403 711 1403 711 1403 606 c 0,24,25
 1403 502 1403 502 1362.5 404.5 c 128,-1,26
 1322 307 1322 307 1254 235 c 128,-1,27
 1186 163 1186 163 1093 119.5 c 128,-1,28
 1000 76 1000 76 899 76 c 0,29,30
 835 76 835 76 795 104.5 c 128,-1,31
 755 133 755 133 757 192 c 1,32,-1
 746 192 l 1,33,34
 710 139 710 139 660 105.5 c 128,-1,35
 610 72 610 72 560 72 c 0,36,37
 480 72 480 72 428 141.5 c 128,-1,38
 376 211 376 211 376 334 c 0,39,40
 376 521 376 521 508.5 656.5 c 128,-1,41
 641 792 641 792 836 792 c 0,42,43
 927 792 927 792 1000 776 c 1,44,-1
 1018 756 l 1,45,-1
 978 390 l 1,46,47
 967 320 967 320 968.5 263 c 128,-1,48
 970 206 970 206 1000 206 c 0,49,50
 1064 206 1064 206 1115.5 264 c 128,-1,51
 1167 322 1167 322 1191.5 401.5 c 128,-1,52
 1216 481 1216 481 1216 558 c 0,53,54
 1216 741 1216 741 1103 841.5 c 128,-1,55
 990 942 990 942 807 942 c 0,56,57
 681 942 681 942 575 895 c 128,-1,58
 469 848 469 848 399.5 768.5 c 128,-1,59
 330 689 330 689 292 586.5 c 128,-1,60
 254 484 254 484 254 371 c 0,61,62
 254 144 254 144 389 15 c 128,-1,63
 524 -114 524 -114 781 -114 c 0,64,65
 882 -114 882 -114 981 -79 c 128,-1,66
 1080 -44 1080 -44 1138 4 c 1,67,-1
 1178 -84 l 1,68,69
 974 -224 974 -224 726 -224 c 0,70,71
 584 -224 584 -224 462 -188.5 c 128,-1,72
 340 -153 340 -153 248.5 -86 c 128,-1,73
 157 -19 157 -19 105 87 c 128,-1,74
 53 193 53 193 53 326 c 0,14,15
EndSplineSet
EndChar

StartChar: atilde
Encoding: 227 227 70
Width: 1126
VWidth: 0
Flags: MW
LayerCount: 2
Fore
SplineSet
324 1037 m 1,0,1
 327 1143 327 1143 387.5 1201.5 c 128,-1,2
 448 1260 448 1260 544 1236 c 1,3,-1
 692 1211 l 1,4,5
 733 1200 733 1200 760.5 1214 c 128,-1,6
 788 1228 788 1228 796 1256 c 1,7,-1
 878 1250 l 1,8,9
 875 1201 875 1201 860 1159.5 c 128,-1,10
 845 1118 845 1118 817 1088 c 128,-1,11
 789 1058 789 1058 749.5 1047 c 128,-1,12
 710 1036 710 1036 658 1048 c 1,13,-1
 513 1074 l 1,14,15
 428 1097 428 1097 402 1027 c 1,16,-1
 324 1037 l 1,0,1
35 0 m 1,17,-1
 49 106 l 1,18,-1
 159 185 l 1,19,-1
 465 926 l 1,20,-1
 709 974 l 1,21,-1
 994 181 l 1,22,-1
 1092 112 l 1,23,-1
 1082 -1 l 1,24,-1
 583 -1 l 1,25,-1
 597 105 l 1,26,-1
 700 180 l 1,27,-1
 653 326 l 1,28,-1
 393 326 l 1,29,-1
 342 182 l 1,30,-1
 464 114 l 1,31,-1
 452 0 l 1,32,-1
 35 0 l 1,17,-1
433 436 m 1,33,-1
 617 436 l 1,34,-1
 528 706 l 1,35,-1
 433 436 l 1,33,-1
EndSplineSet
EndChar

StartChar: b
Encoding: 98 98 71
Width: 1045
VWidth: 845
Flags: MW
LayerCount: 2
Fore
SplineSet
451 534 m 1,0,-1
 611 534 l 1,1,2
 680 578 680 578 680 678 c 0,3,4
 680 711 680 711 671 739.5 c 128,-1,5
 662 768 662 768 643.5 792.5 c 128,-1,6
 625 817 625 817 590.5 831.5 c 128,-1,7
 556 846 556 846 508 846 c 0,8,9
 477 846 477 846 451 842 c 1,10,-1
 451 534 l 1,0,-1
451 141 m 1,11,-1
 552 141 l 2,12,13
 640 141 640 141 687 179.5 c 128,-1,14
 734 218 734 218 734 288 c 0,15,16
 734 354 734 354 685 398 c 128,-1,17
 636 442 636 442 546 442 c 2,18,-1
 451 442 l 1,19,-1
 451 141 l 1,11,-1
35 0 m 1,20,-1
 48 106 l 1,21,-1
 169 169 l 1,22,-1
 169 781 l 1,23,-1
 44 818 l 1,24,-1
 54 936 l 1,25,26
 302 977 302 977 534 977 c 0,27,28
 738 977 738 977 840 911 c 128,-1,29
 942 845 942 845 942 734 c 0,30,31
 942 668 942 668 891 608 c 128,-1,32
 840 548 840 548 746 526 c 1,33,-1
 746 517 l 1,34,35
 861 512 861 512 936 457 c 128,-1,36
 1011 402 1011 402 1011 310 c 0,37,38
 1011 168 1011 168 887.5 84 c 128,-1,39
 764 0 764 0 516 0 c 2,40,-1
 35 0 l 1,20,-1
EndSplineSet
EndChar

StartChar: backslash
Encoding: 92 92 72
Width: 720
VWidth: 0
Flags: MW
LayerCount: 2
Fore
SplineSet
37 1304 m 1,0,-1
 222 1291 l 1,1,-1
 683 -393 l 1,2,-1
 505 -382 l 1,3,-1
 37 1304 l 1,0,-1
EndSplineSet
EndChar

StartChar: bar
Encoding: 124 124 73
Width: 307
VWidth: 0
Flags: MW
LayerCount: 2
Fore
SplineSet
75 -364 m 1,0,-1
 75 1260 l 1,1,-1
 231 1248 l 1,2,-1
 231 -380 l 1,3,-1
 75 -364 l 1,0,-1
EndSplineSet
EndChar

StartChar: braceleft
Encoding: 123 123 74
Width: 694
VWidth: 0
Flags: MW
LayerCount: 2
Fore
SplineSet
618 -378 m 1,0,-1
 443 -378 l 2,1,2
 359 -378 359 -378 307 -340 c 128,-1,3
 255 -302 255 -302 236 -241 c 128,-1,4
 217 -180 217 -180 210.5 -105.5 c 128,-1,5
 204 -31 204 -31 203 46 c 128,-1,6
 202 123 202 123 195 188.5 c 128,-1,7
 188 254 188 254 158.5 300.5 c 128,-1,8
 129 347 129 347 73 357 c 2,9,-1
 16 368 l 1,10,-1
 16 516 l 1,11,-1
 69 527 l 2,12,13
 126 538 126 538 157 584 c 128,-1,14
 188 630 188 630 196 695 c 128,-1,15
 204 760 204 760 205.5 836 c 128,-1,16
 207 912 207 912 213 985.5 c 128,-1,17
 219 1059 219 1059 237.5 1119.5 c 128,-1,18
 256 1180 256 1180 307 1217.5 c 128,-1,19
 358 1255 358 1255 441 1255 c 2,20,-1
 611 1255 l 1,21,-1
 605 1104 l 1,22,-1
 497 1099 l 2,23,24
 457 1097 457 1097 444.5 1034.5 c 128,-1,25
 432 972 432 972 433.5 883 c 128,-1,26
 435 794 435 794 431.5 702.5 c 128,-1,27
 428 611 428 611 392.5 539.5 c 128,-1,28
 357 468 357 468 283 452 c 1,29,-1
 283 442 l 1,30,31
 337 418 337 418 370.5 368.5 c 128,-1,32
 404 319 404 319 415.5 259.5 c 128,-1,33
 427 200 427 200 430.5 133.5 c 128,-1,34
 434 67 434 67 433.5 5.5 c 128,-1,35
 433 -56 433 -56 437 -106 c 128,-1,36
 441 -156 441 -156 458 -187 c 128,-1,37
 475 -218 475 -218 509 -220 c 2,38,-1
 607 -225 l 1,39,-1
 618 -378 l 1,0,-1
EndSplineSet
EndChar

StartChar: braceright
Encoding: 125 125 75
Width: 693
VWidth: 0
Flags: MW
LayerCount: 2
Fore
SplineSet
43 -378 m 1,0,-1
 54 -225 l 1,1,-1
 152 -220 l 2,2,3
 186 -218 186 -218 203 -187 c 128,-1,4
 220 -156 220 -156 224 -106 c 128,-1,5
 228 -56 228 -56 227.5 5.5 c 128,-1,6
 227 67 227 67 230.5 133.5 c 128,-1,7
 234 200 234 200 245.5 259.5 c 128,-1,8
 257 319 257 319 290.5 368.5 c 128,-1,9
 324 418 324 418 378 442 c 1,10,-1
 378 452 l 1,11,12
 304 468 304 468 268.5 539.5 c 128,-1,13
 233 611 233 611 229.5 702.5 c 128,-1,14
 226 794 226 794 227.5 883 c 128,-1,15
 229 972 229 972 216.5 1034.5 c 128,-1,16
 204 1097 204 1097 164 1099 c 2,17,-1
 56 1104 l 1,18,-1
 50 1255 l 1,19,-1
 220 1255 l 2,20,21
 303 1255 303 1255 354 1217.5 c 128,-1,22
 405 1180 405 1180 423.5 1119.5 c 128,-1,23
 442 1059 442 1059 448 985.5 c 128,-1,24
 454 912 454 912 455.5 836 c 128,-1,25
 457 760 457 760 465 695 c 128,-1,26
 473 630 473 630 504 584 c 128,-1,27
 535 538 535 538 592 527 c 2,28,-1
 645 516 l 1,29,-1
 645 368 l 1,30,-1
 588 357 l 2,31,32
 532 347 532 347 502.5 300.5 c 128,-1,33
 473 254 473 254 466 188.5 c 128,-1,34
 459 123 459 123 458 46 c 128,-1,35
 457 -31 457 -31 450.5 -105.5 c 128,-1,36
 444 -180 444 -180 425 -241 c 128,-1,37
 406 -302 406 -302 354 -340 c 128,-1,38
 302 -378 302 -378 218 -378 c 2,39,-1
 43 -378 l 1,0,-1
EndSplineSet
EndChar

StartChar: bracketleft
Encoding: 91 91 76
Width: 540
VWidth: 0
Flags: MW
LayerCount: 2
Fore
SplineSet
456 -246 m 1,0,-1
 437 -376 l 1,1,-1
 34 -377 l 1,2,-1
 36 1255 l 1,3,-1
 431 1255 l 1,4,-1
 452 1130 l 1,5,-1
 224 1110 l 1,6,-1
 224 -226 l 1,7,-1
 456 -246 l 1,0,-1
EndSplineSet
EndChar

StartChar: bracketright
Encoding: 93 93 77
Width: 538
VWidth: 0
Flags: MW
LayerCount: 2
Fore
SplineSet
41 -246 m 1,0,-1
 273 -226 l 1,1,-1
 273 1110 l 1,2,-1
 45 1130 l 1,3,-1
 66 1255 l 1,4,-1
 461 1255 l 1,5,-1
 463 -377 l 1,6,-1
 60 -376 l 1,7,-1
 41 -246 l 1,0,-1
EndSplineSet
EndChar

StartChar: brokenbar
Encoding: 166 166 78
Width: 350
VWidth: 0
Flags: MW
LayerCount: 2
Fore
SplineSet
92 534 m 1,0,-1
 92 1267 l 1,1,-1
 258 1248 l 1,2,-1
 258 517 l 1,3,-1
 92 534 l 1,0,-1
92 -358 m 1,4,-1
 92 419 l 1,5,-1
 260 399 l 1,6,-1
 260 -380 l 1,7,-1
 92 -358 l 1,4,-1
EndSplineSet
EndChar

StartChar: c
Encoding: 99 99 79
Width: 929
VWidth: 845
Flags: MW
LayerCount: 2
Fore
SplineSet
37 439 m 0,0,1
 37 517 37 517 55.5 591 c 128,-1,2
 74 665 74 665 115 735 c 128,-1,3
 156 805 156 805 216.5 857 c 128,-1,4
 277 909 277 909 366.5 940.5 c 128,-1,5
 456 972 456 972 566 972 c 0,6,7
 646 972 646 972 726 954 c 128,-1,8
 806 936 806 936 854 904 c 1,9,-1
 828 578 l 1,10,-1
 694 596 l 1,11,-1
 650 772 l 1,12,13
 606 822 606 822 522 822 c 0,14,15
 432 822 432 822 381 740 c 128,-1,16
 330 658 330 658 330 515 c 0,17,18
 330 431 330 431 353 362 c 128,-1,19
 376 293 376 293 415.5 248.5 c 128,-1,20
 455 204 455 204 504.5 180 c 128,-1,21
 554 156 554 156 610 156 c 0,22,23
 688 156 688 156 742 174.5 c 128,-1,24
 796 193 796 193 848 227 c 1,25,-1
 896 122 l 1,26,27
 842 61 842 61 743 17.5 c 128,-1,28
 644 -26 644 -26 512 -26 c 0,29,30
 292 -26 292 -26 164.5 96.5 c 128,-1,31
 37 219 37 219 37 439 c 0,0,1
EndSplineSet
EndChar

StartChar: ccedilla
Encoding: 231 231 80
Width: 929
VWidth: 0
Flags: MW
LayerCount: 2
Fore
SplineSet
377 -319 m 1,0,1
 427 -312 427 -312 457.5 -290.5 c 128,-1,2
 488 -269 488 -269 488 -245 c 0,3,4
 488 -233 488 -233 479 -220 c 128,-1,5
 470 -207 470 -207 451 -193.5 c 128,-1,6
 432 -180 432 -180 418.5 -171.5 c 128,-1,7
 405 -163 405 -163 382 -149 c 0,8,9
 376 -146 376 -146 374 -144 c 1,10,-1
 491 -26 l 1,11,12
 281 -20 281 -20 159 102.5 c 128,-1,13
 37 225 37 225 37 439 c 0,14,15
 37 517 37 517 55.5 591 c 128,-1,16
 74 665 74 665 115 735 c 128,-1,17
 156 805 156 805 216.5 857 c 128,-1,18
 277 909 277 909 366.5 940.5 c 128,-1,19
 456 972 456 972 566 972 c 0,20,21
 646 972 646 972 726 954 c 128,-1,22
 806 936 806 936 854 904 c 1,23,-1
 828 578 l 1,24,-1
 694 596 l 1,25,-1
 650 772 l 1,26,27
 606 822 606 822 522 822 c 0,28,29
 432 822 432 822 381 740 c 128,-1,30
 330 658 330 658 330 515 c 0,31,32
 330 431 330 431 353 362 c 128,-1,33
 376 293 376 293 415.5 248.5 c 128,-1,34
 455 204 455 204 504.5 180 c 128,-1,35
 554 156 554 156 610 156 c 0,36,37
 688 156 688 156 742 174.5 c 128,-1,38
 796 193 796 193 848 227 c 1,39,-1
 896 122 l 1,40,41
 854 75 854 75 784.5 36.5 c 128,-1,42
 715 -2 715 -2 623 -17 c 1,43,-1
 555 -83 l 1,44,45
 613 -100 613 -100 650 -137 c 128,-1,46
 687 -174 687 -174 687 -230 c 0,47,48
 687 -300 687 -300 618.5 -339.5 c 128,-1,49
 550 -379 550 -379 404 -392 c 1,50,-1
 377 -319 l 1,0,1
EndSplineSet
EndChar

StartChar: cedilla
Encoding: 184 184 81
Width: 436
VWidth: 0
Flags: MW
LayerCount: 2
Fore
SplineSet
56 -304 m 1,0,1
 104 -297 104 -297 141 -280 c 128,-1,2
 178 -263 178 -263 178 -242 c 0,3,4
 178 -225 178 -225 155 -204.5 c 128,-1,5
 132 -184 132 -184 111 -172 c 128,-1,6
 90 -160 90 -160 53 -141 c 1,7,-1
 236 3 l 1,8,-1
 350 3 l 1,9,-1
 264 -80 l 1,10,11
 287 -93 287 -93 301 -102 c 128,-1,12
 315 -111 315 -111 335.5 -128.5 c 128,-1,13
 356 -146 356 -146 366 -168 c 128,-1,14
 376 -190 376 -190 376 -216 c 0,15,16
 376 -291 376 -291 298 -330.5 c 128,-1,17
 220 -370 220 -370 84 -388 c 1,18,-1
 56 -304 l 1,0,1
EndSplineSet
EndChar

StartChar: cent
Encoding: 162 162 82
Width: 885
VWidth: 0
Flags: MW
LayerCount: 2
Fore
SplineSet
373 1193 m 1,0,-1
 560 1210 l 1,1,-1
 538 976 l 1,2,3
 603 975 603 975 654 956 c 128,-1,4
 705 937 705 937 735 906 c 128,-1,5
 765 875 765 875 780.5 837.5 c 128,-1,6
 796 800 796 800 796 758 c 0,7,8
 796 694 796 694 754 655 c 128,-1,9
 712 616 712 616 638 610 c 1,10,11
 598 722 598 722 557 775 c 128,-1,12
 516 828 516 828 459 828 c 0,13,14
 386 828 386 828 345 741.5 c 128,-1,15
 304 655 304 655 304 519 c 0,16,17
 304 456 304 456 321 394.5 c 128,-1,18
 338 333 338 333 369.5 279.5 c 128,-1,19
 401 226 401 226 453.5 193 c 128,-1,20
 506 160 506 160 572 160 c 0,21,22
 643 160 643 160 692.5 178 c 128,-1,23
 742 196 742 196 800 231 c 1,24,-1
 833 135 l 1,25,26
 798 77 798 77 717.5 31 c 128,-1,27
 637 -15 637 -15 542 -27 c 1,28,-1
 572 -250 l 1,29,-1
 383 -266 l 1,30,-1
 407 -25 l 1,31,32
 289 -9 289 -9 206.5 57 c 128,-1,33
 124 123 124 123 85.5 219.5 c 128,-1,34
 47 316 47 316 47 434 c 0,35,36
 47 530 47 530 76 617.5 c 128,-1,37
 105 705 105 705 155 770.5 c 128,-1,38
 205 836 205 836 268.5 883.5 c 128,-1,39
 332 931 332 931 402 955 c 1,40,-1
 373 1193 l 1,0,-1
EndSplineSet
EndChar

StartChar: circumflex
Encoding: 710 710 83
Width: 638
VWidth: 0
Flags: MW
LayerCount: 2
Fore
SplineSet
60 1356 m 1,0,-1
 220 1573 l 1,1,-1
 410 1580 l 1,2,-1
 576 1360 l 1,3,-1
 426 1337 l 1,4,-1
 312 1452 l 1,5,-1
 300 1452 l 1,6,-1
 196 1336 l 1,7,-1
 60 1356 l 1,0,-1
EndSplineSet
EndChar

StartChar: colon
Encoding: 58 58 84
Width: 423
VWidth: 0
Flags: MW
LayerCount: 2
Fore
SplineSet
84 111 m 0,0,1
 84 159 84 159 121.5 194.5 c 128,-1,2
 159 230 159 230 231 230 c 0,3,4
 306 230 306 230 345 194.5 c 128,-1,5
 384 159 384 159 384 111 c 0,6,7
 384 56 384 56 345 21.5 c 128,-1,8
 306 -13 306 -13 231 -13 c 128,-1,9
 156 -13 156 -13 120 22.5 c 128,-1,10
 84 58 84 58 84 111 c 0,0,1
231 615 m 128,-1,12
 156 615 156 615 120 650.5 c 128,-1,13
 84 686 84 686 84 739 c 0,14,15
 84 787 84 787 121.5 822.5 c 128,-1,16
 159 858 159 858 231 858 c 0,17,18
 306 858 306 858 345 822.5 c 128,-1,19
 384 787 384 787 384 739 c 0,20,21
 384 684 384 684 345 649.5 c 128,-1,11
 306 615 306 615 231 615 c 128,-1,12
EndSplineSet
EndChar

StartChar: comma
Encoding: 44 44 85
Width: 498
VWidth: 0
Flags: MW
LayerCount: 2
Back
SplineSet
-9 -58.5 m 1,0,1
 15.3064 -40.4953 15.3064 -40.4953 53.7523 -2.47789 c 0
 92.1982 35.5395 92.1982 35.5395 128.414 65.4779 c 0
 164.63 95.4163 164.63 95.4163 200.5 109.5 c 1,2,3
 281.125 134.666 281.125 134.666 278.894 110.62 c 0
 277.913 100.049 277.913 100.049 259 83 c 1,4,5
 249.696 3.91994 249.696 3.91994 134.5 2 c 1,6,7
 79.6652 8.43314 79.6652 8.43314 16.243 -49.4848 c 0
 -5.37847 -69.2298 -5.37847 -69.2298 -7.97119 -64.632 c 0
 -9 -62.8075 -9 -62.8075 -9 -58.5 c 1,0,1
EndSplineSet
Fore
SplineSet
61 -252 m 1,0,1
 148 -227 148 -227 191 -177.5 c 128,-1,2
 234 -128 234 -128 234 -75 c 0,3,4
 234 -33 234 -33 205.5 -5 c 128,-1,5
 177 23 177 23 133 23 c 0,6,7
 111 23 111 23 91 16 c 1,8,9
 68 62 68 62 68 96 c 0,10,11
 68 167 68 167 115.5 207.5 c 128,-1,12
 163 248 163 248 230 248 c 0,13,14
 325 248 325 248 382 185.5 c 128,-1,15
 439 123 439 123 439 11 c 0,16,17
 439 -41 439 -41 422 -92 c 128,-1,18
 405 -143 405 -143 368 -194 c 128,-1,19
 331 -245 331 -245 260.5 -285.5 c 128,-1,20
 190 -326 190 -326 94 -345 c 1,21,-1
 61 -252 l 1,0,1
EndSplineSet
EndChar

StartChar: copyright
Encoding: 169 169 86
Width: 1443
VWidth: 0
Flags: MW
LayerCount: 2
Fore
SplineSet
214 682 m 0,0,1
 214 427 214 427 355.5 279 c 128,-1,2
 497 131 497 131 721 131 c 0,3,4
 863 131 863 131 979 195 c 128,-1,5
 1095 259 1095 259 1165 381.5 c 128,-1,6
 1235 504 1235 504 1235 664 c 0,7,8
 1235 757 1235 757 1215 840.5 c 128,-1,9
 1195 924 1195 924 1152.5 995.5 c 128,-1,10
 1110 1067 1110 1067 1050 1119 c 128,-1,11
 990 1171 990 1171 904.5 1200.5 c 128,-1,12
 819 1230 819 1230 717 1230 c 0,13,14
 568 1230 568 1230 452.5 1157.5 c 128,-1,15
 337 1085 337 1085 275.5 961 c 128,-1,16
 214 837 214 837 214 682 c 0,0,1
49 666 m 0,17,18
 49 867 49 867 140.5 1026.5 c 128,-1,19
 232 1186 232 1186 385 1272 c 128,-1,20
 538 1358 538 1358 723 1358 c 0,21,22
 925 1358 925 1358 1077.5 1270.5 c 128,-1,23
 1230 1183 1230 1183 1310.5 1028.5 c 128,-1,24
 1391 874 1391 874 1391 674 c 0,25,26
 1391 542 1391 542 1338.5 418.5 c 128,-1,27
 1286 295 1286 295 1197 202.5 c 128,-1,28
 1108 110 1108 110 981.5 54 c 128,-1,29
 855 -2 855 -2 715 -2 c 0,30,31
 515 -2 515 -2 363 82.5 c 128,-1,32
 211 167 211 167 130 318.5 c 128,-1,33
 49 470 49 470 49 666 c 0,17,18
369 660 m 0,34,35
 369 739 369 739 393 809.5 c 128,-1,36
 417 880 417 880 457 931 c 128,-1,37
 497 982 497 982 549 1019.5 c 128,-1,38
 601 1057 601 1057 659 1075.5 c 128,-1,39
 717 1094 717 1094 775 1094 c 0,40,41
 879 1094 879 1094 938.5 1046 c 128,-1,42
 998 998 998 998 998 927 c 0,43,44
 998 874 998 874 960.5 844.5 c 128,-1,45
 923 815 923 815 859 809 c 1,46,47
 830 893 830 893 798 933 c 128,-1,48
 766 973 766 973 723 973 c 0,49,50
 657 973 657 973 621.5 913.5 c 128,-1,51
 586 854 586 854 586 737 c 0,52,53
 586 684 586 684 600.5 631 c 128,-1,54
 615 578 615 578 641.5 532 c 128,-1,55
 668 486 668 486 712.5 457 c 128,-1,56
 757 428 757 428 812 428 c 0,57,58
 872 428 872 428 913.5 442 c 128,-1,59
 955 456 955 456 1001 484 c 1,60,-1
 1028 416 l 1,61,62
 994 360 994 360 913 320.5 c 128,-1,63
 832 281 832 281 740 281 c 0,64,65
 648 281 648 281 576.5 309.5 c 128,-1,66
 505 338 505 338 460 389.5 c 128,-1,67
 415 441 415 441 392 509.5 c 128,-1,68
 369 578 369 578 369 660 c 0,34,35
EndSplineSet
EndChar

StartChar: currency
Encoding: 164 164 87
Width: 855
VWidth: 0
Flags: MW
LayerCount: 2
Fore
SplineSet
294 492 m 0,0,1
 294 424 294 424 332 381 c 128,-1,2
 370 338 370 338 426 338 c 0,3,4
 484 338 484 338 521.5 379 c 128,-1,5
 559 420 559 420 559 486 c 0,6,7
 559 556 559 556 522 598 c 128,-1,8
 485 640 485 640 426 640 c 0,9,10
 370 640 370 640 332 599 c 128,-1,11
 294 558 294 558 294 492 c 0,0,1
40 740 m 1,12,-1
 164 856 l 1,13,-1
 289 725 l 1,14,15
 348 776 348 776 432 776 c 0,16,17
 510 776 510 776 566 735 c 1,18,-1
 692 860 l 1,19,-1
 812 737 l 1,20,-1
 680 616 l 1,21,22
 710 562 710 562 710 490 c 0,23,24
 710 412 710 412 674 357 c 1,25,-1
 816 222 l 1,26,-1
 686 107 l 1,27,-1
 556 245 l 1,28,29
 487 204 487 204 419 204 c 0,30,31
 358 204 358 204 302 238 c 1,32,-1
 175 95 l 1,33,-1
 51 216 l 1,34,-1
 186 347 l 1,35,36
 146 405 146 405 146 486 c 0,37,38
 146 554 146 554 179 608 c 1,39,-1
 40 740 l 1,12,-1
EndSplineSet
EndChar

StartChar: d
Encoding: 100 100 88
Width: 1122
VWidth: 845
Flags: MW
LayerCount: 2
Fore
SplineSet
460 153 m 1,0,-1
 504 153 l 2,1,2
 584 153 584 153 643 181 c 128,-1,3
 702 209 702 209 734.5 257 c 128,-1,4
 767 305 767 305 782 360.5 c 128,-1,5
 797 416 797 416 797 480 c 0,6,7
 797 576 797 576 766.5 650.5 c 128,-1,8
 736 725 736 725 668 772 c 128,-1,9
 600 819 600 819 500 819 c 0,10,11
 472 818 472 818 460 816 c 1,12,-1
 460 153 l 1,0,-1
34 0 m 1,13,-1
 48 116 l 1,14,-1
 179 185 l 1,15,-1
 179 766 l 1,16,-1
 46 804 l 1,17,-1
 54 920 l 1,18,19
 302 970 302 970 528 971 c 0,20,21
 651 971 651 971 748 946 c 128,-1,22
 845 921 845 921 907.5 879 c 128,-1,23
 970 837 970 837 1010.5 777 c 128,-1,24
 1051 717 1051 717 1068.5 651.5 c 128,-1,25
 1086 586 1086 586 1086 509 c 0,26,27
 1086 402 1086 402 1045.5 309.5 c 128,-1,28
 1005 217 1005 217 930 148 c 128,-1,29
 855 79 855 79 740.5 39.5 c 128,-1,30
 626 0 626 0 486 0 c 2,31,-1
 34 0 l 1,13,-1
EndSplineSet
EndChar

StartChar: dagger
Encoding: 8224 8224 89
Width: 858
VWidth: 0
Flags: MW
LayerCount: 2
Fore
SplineSet
44 689 m 1,0,-1
 52 844 l 1,1,-1
 348 836 l 1,2,-1
 342 1255 l 1,3,-1
 514 1244 l 1,4,-1
 506 836 l 1,5,-1
 812 844 l 1,6,-1
 804 681 l 1,7,-1
 506 692 l 1,8,-1
 520 -362 l 1,9,-1
 336 -351 l 1,10,-1
 348 694 l 1,11,-1
 44 689 l 1,0,-1
EndSplineSet
EndChar

StartChar: daggerdbl
Encoding: 8225 8225 90
Width: 863
VWidth: 0
Flags: MW
LayerCount: 2
Fore
SplineSet
50 689 m 1,0,-1
 56 844 l 1,1,-1
 350 838 l 1,2,-1
 342 1255 l 1,3,-1
 516 1244 l 1,4,-1
 504 838 l 1,5,-1
 808 844 l 1,6,-1
 802 682 l 1,7,-1
 504 692 l 1,8,-1
 494 430 l 1,9,-1
 497 193 l 1,10,-1
 812 199 l 1,11,-1
 806 42 l 1,12,-1
 497 50 l 1,13,-1
 508 -362 l 1,14,-1
 334 -352 l 1,15,-1
 344 50 l 1,16,-1
 56 42 l 1,17,-1
 65 206 l 1,18,-1
 344 192 l 1,19,-1
 353 498 l 1,20,-1
 350 696 l 1,21,-1
 50 689 l 1,0,-1
EndSplineSet
EndChar

StartChar: degree
Encoding: 176 176 91
Width: 494
VWidth: 0
Flags: MW
LayerCount: 2
Fore
SplineSet
167 1129 m 0,0,1
 167 1080 167 1080 187.5 1044.5 c 128,-1,2
 208 1009 208 1009 248 1009 c 0,3,4
 282 1009 282 1009 300 1034.5 c 128,-1,5
 318 1060 318 1060 318 1105 c 0,6,7
 318 1153 318 1153 296.5 1188 c 128,-1,8
 275 1223 275 1223 238 1223 c 0,9,10
 204 1223 204 1223 185.5 1196 c 128,-1,11
 167 1169 167 1169 167 1129 c 0,0,1
56 1107 m 0,12,13
 56 1185 56 1185 115 1244.5 c 128,-1,14
 174 1304 174 1304 254 1304 c 0,15,16
 340 1304 340 1304 387.5 1257 c 128,-1,17
 435 1210 435 1210 435 1128 c 0,18,19
 435 1044 435 1044 373.5 986 c 128,-1,20
 312 928 312 928 230 928 c 0,21,22
 151 928 151 928 103.5 974.5 c 128,-1,23
 56 1021 56 1021 56 1107 c 0,12,13
EndSplineSet
EndChar

StartChar: dieresis
Encoding: 168 168 92
Width: 683
VWidth: 0
Flags: MW
LayerCount: 2
Back
SplineSet
360 1503 m 1,0,1
 377 1518 377 1518 416.5 1519 c 0
 456 1520 456 1520 470 1503 c 1,2,3
 483.171 1489.56 483.171 1489.56 491.463 1475.41 c 0
 499.755 1461.25 499.755 1461.25 501.37 1446.93 c 0
 502.986 1432.6 502.986 1432.6 491.5 1424 c 1,4,5
 474.625 1407.91 474.625 1407.91 436.688 1406.94 c 0
 398.75 1405.96 398.75 1405.96 383 1424 c 1,6,7
 339 1480 339 1480 360 1503 c 1,0,1
361 1503 m 1,8,9
 378.407 1518.47 378.407 1518.47 416.25 1519.12 c 0
 454.093 1519.78 454.093 1519.78 468.5 1503 c 1,10,11
 482.036 1489.19 482.036 1489.19 490.741 1475.41 c 0
 499.446 1461.63 499.446 1461.63 502.093 1446.93 c 0
 504.739 1432.23 504.739 1432.23 493 1424 c 1,12,13
 476 1408 476 1408 437.5 1407 c 0
 399 1406 399 1406 383 1424 c 1,14,15
 340 1479 340 1479 361 1503 c 1,8,9
EndSplineSet
Fore
SplineSet
392 1465 m 0,0,1
 392 1502 392 1502 421.5 1529.5 c 128,-1,2
 451 1557 451 1557 504 1557 c 0,3,4
 560 1557 560 1557 589.5 1530 c 128,-1,5
 619 1503 619 1503 619 1466 c 0,6,7
 619 1423 619 1423 589 1396.5 c 128,-1,8
 559 1370 559 1370 503 1370 c 0,9,10
 447 1370 447 1370 419.5 1397 c 128,-1,11
 392 1424 392 1424 392 1465 c 0,0,1
104 1465 m 0,12,13
 104 1502 104 1502 133.5 1529.5 c 128,-1,14
 163 1557 163 1557 215 1557 c 0,15,16
 271 1557 271 1557 300.5 1530 c 128,-1,17
 330 1503 330 1503 330 1466 c 0,18,19
 330 1423 330 1423 300.5 1396.5 c 128,-1,20
 271 1370 271 1370 215 1370 c 0,21,22
 159 1370 159 1370 131.5 1397 c 128,-1,23
 104 1424 104 1424 104 1465 c 0,12,13
EndSplineSet
EndChar

StartChar: divide
Encoding: 247 247 93
Width: 921
VWidth: 0
Flags: MW
LayerCount: 2
Fore
SplineSet
288 786 m 0,0,1
 288 840 288 840 330 879 c 128,-1,2
 372 918 372 918 452 918 c 0,3,4
 535 918 535 918 578.5 879 c 128,-1,5
 622 840 622 840 622 786 c 0,6,7
 622 726 622 726 579 686.5 c 128,-1,8
 536 647 536 647 452 647 c 0,9,10
 368 647 368 647 328 687 c 128,-1,11
 288 727 288 727 288 786 c 0,0,1
288 223 m 0,12,13
 288 277 288 277 330 316.5 c 128,-1,14
 372 356 372 356 452 356 c 0,15,16
 536 356 536 356 579 317 c 128,-1,17
 622 278 622 278 622 224 c 0,18,19
 622 163 622 163 579 123.5 c 128,-1,20
 536 84 536 84 452 84 c 128,-1,21
 368 84 368 84 328 124 c 128,-1,22
 288 164 288 164 288 223 c 0,12,13
50 432 m 1,23,-1
 62 578 l 1,24,-1
 874 578 l 1,25,-1
 864 432 l 1,26,-1
 50 432 l 1,23,-1
EndSplineSet
EndChar

StartChar: dollar
Encoding: 36 36 94
Width: 851
VWidth: 0
Flags: MW
LayerCount: 2
Fore
SplineSet
324 1054 m 1,0,-1
 486 1072 l 1,1,-1
 466 922 l 1,2,3
 575 914 575 914 640.5 870 c 128,-1,4
 706 826 706 826 706 754 c 0,5,6
 706 691 706 691 659 648.5 c 128,-1,7
 612 606 612 606 540 600 c 1,8,9
 507 808 507 808 370 808 c 0,10,11
 325 808 325 808 298.5 781 c 128,-1,12
 272 754 272 754 272 714 c 0,13,14
 272 687 272 687 291.5 661.5 c 128,-1,15
 311 636 311 636 343 616 c 128,-1,16
 375 596 375 596 416 573.5 c 128,-1,17
 457 551 457 551 500 529.5 c 128,-1,18
 543 508 543 508 584 479 c 128,-1,19
 625 450 625 450 657.5 418 c 128,-1,20
 690 386 690 386 709.5 341.5 c 128,-1,21
 729 297 729 297 729 246 c 0,22,23
 729 142 729 142 655.5 70.5 c 128,-1,24
 582 -1 582 -1 465 -25 c 1,25,-1
 483 -178 l 1,26,-1
 320 -196 l 1,27,-1
 339 -35 l 1,28,29
 215 -30 215 -30 127.5 24 c 128,-1,30
 40 78 40 78 40 154 c 0,31,32
 40 216 40 216 83 255 c 128,-1,33
 126 294 126 294 202 300 c 1,34,35
 232 199 232 199 281 146.5 c 128,-1,36
 330 94 330 94 388 94 c 0,37,38
 508 94 508 94 509 176 c 0,39,40
 509 203 509 203 485 228.5 c 128,-1,41
 461 254 461 254 422 276 c 128,-1,42
 383 298 383 298 336 321.5 c 128,-1,43
 289 345 289 345 242 374.5 c 128,-1,44
 195 404 195 404 156.5 438.5 c 128,-1,45
 118 473 118 473 94 522 c 128,-1,46
 70 571 70 571 70 629 c 0,47,48
 70 661 70 661 79 695.5 c 128,-1,49
 88 730 88 730 109 766.5 c 128,-1,50
 130 803 130 803 161 833 c 128,-1,51
 192 863 192 863 239.5 886.5 c 128,-1,52
 287 910 287 910 344 919 c 1,53,-1
 324 1054 l 1,0,-1
EndSplineSet
EndChar

StartChar: dotaccent
Encoding: 729 729 95
Width: 502
VWidth: 0
Flags: MW
LayerCount: 2
Fore
SplineSet
84 1476 m 0,0,1
 84 1530 84 1530 126.5 1570 c 128,-1,2
 169 1610 169 1610 248 1610 c 0,3,4
 332 1610 332 1610 375 1570.5 c 128,-1,5
 418 1531 418 1531 418 1477 c 0,6,7
 418 1416 418 1416 374.5 1377 c 128,-1,8
 331 1338 331 1338 247.5 1338 c 128,-1,9
 164 1338 164 1338 124 1377.5 c 128,-1,10
 84 1417 84 1417 84 1476 c 0,0,1
EndSplineSet
EndChar

StartChar: e
Encoding: 101 101 96
Width: 1002
VWidth: 845
Flags: MW
LayerCount: 2
Fore
SplineSet
35 843 m 1,0,-1
 50 953 l 1,1,-1
 945 953 l 1,2,-1
 920 632 l 1,3,-1
 784 652 l 1,4,-1
 728 821 l 1,5,-1
 460 821 l 1,6,-1
 460 531 l 1,7,-1
 610 539 l 1,8,-1
 635 580 l 1,9,-1
 752 596 l 1,10,-1
 719 344 l 1,11,-1
 617 346 l 1,12,-1
 596 410 l 1,13,-1
 460 418 l 1,14,-1
 460 150 l 1,15,-1
 734 138 l 1,16,-1
 835 327 l 1,17,-1
 964 312 l 1,18,-1
 940 0 l 1,19,-1
 46 0 l 1,20,-1
 56 116 l 1,21,-1
 176 169 l 1,22,-1
 176 787 l 1,23,-1
 35 843 l 1,0,-1
EndSplineSet
EndChar

StartChar: eacute
Encoding: 233 233 97
Width: 940
VWidth: 0
Flags: MW
LayerCount: 2
Fore
SplineSet
396 1057 m 1,0,-1
 530 1372 l 1,1,-1
 760 1348 l 1,2,-1
 538 1028 l 1,3,-1
 396 1057 l 1,0,-1
31 843 m 1,4,-1
 46 953 l 1,5,-1
 941 953 l 1,6,-1
 916 632 l 1,7,-1
 780 652 l 1,8,-1
 724 821 l 1,9,-1
 456 821 l 1,10,-1
 456 531 l 1,11,-1
 606 539 l 1,12,-1
 631 580 l 1,13,-1
 748 596 l 1,14,-1
 715 344 l 1,15,-1
 613 346 l 1,16,-1
 592 410 l 1,17,-1
 456 418 l 1,18,-1
 456 150 l 1,19,-1
 730 138 l 1,20,-1
 831 327 l 1,21,-1
 960 312 l 1,22,-1
 936 0 l 1,23,-1
 42 0 l 1,24,-1
 52 116 l 1,25,-1
 172 169 l 1,26,-1
 172 787 l 1,27,-1
 31 843 l 1,4,-1
EndSplineSet
EndChar

StartChar: ecircumflex
Encoding: 234 234 98
Width: 1002
VWidth: 0
Flags: MW
LayerCount: 2
Fore
SplineSet
268 1050 m 1,0,-1
 429 1267 l 1,1,-1
 619 1274 l 1,2,-1
 785 1054 l 1,3,-1
 634 1031 l 1,4,-1
 520 1146 l 1,5,-1
 508 1146 l 1,6,-1
 404 1030 l 1,7,-1
 268 1050 l 1,0,-1
35 843 m 1,8,-1
 50 953 l 1,9,-1
 945 953 l 1,10,-1
 920 632 l 1,11,-1
 784 652 l 1,12,-1
 728 821 l 1,13,-1
 460 821 l 1,14,-1
 460 531 l 1,15,-1
 610 539 l 1,16,-1
 635 580 l 1,17,-1
 752 596 l 1,18,-1
 719 344 l 1,19,-1
 617 346 l 1,20,-1
 596 410 l 1,21,-1
 460 418 l 1,22,-1
 460 150 l 1,23,-1
 734 138 l 1,24,-1
 835 327 l 1,25,-1
 964 312 l 1,26,-1
 940 0 l 1,27,-1
 46 0 l 1,28,-1
 56 116 l 1,29,-1
 176 169 l 1,30,-1
 176 787 l 1,31,-1
 35 843 l 1,8,-1
EndSplineSet
EndChar

StartChar: edieresis
Encoding: 235 235 99
Width: 1002
VWidth: 0
Flags: MW
LayerCount: 2
Fore
SplineSet
556 1127 m 0,0,1
 556 1165 556 1165 586 1192 c 128,-1,2
 616 1219 616 1219 668 1219 c 0,3,4
 724 1219 724 1219 753 1192 c 128,-1,5
 782 1165 782 1165 782 1128 c 0,6,7
 782 1085 782 1085 752.5 1058.5 c 128,-1,8
 723 1032 723 1032 667 1032 c 0,9,10
 611 1032 611 1032 583.5 1059 c 128,-1,11
 556 1086 556 1086 556 1127 c 0,0,1
268 1127 m 0,12,13
 268 1165 268 1165 297 1192 c 128,-1,14
 326 1219 326 1219 379 1219 c 0,15,16
 435 1219 435 1219 464.5 1192 c 128,-1,17
 494 1165 494 1165 494 1128 c 0,18,19
 494 1085 494 1085 464 1058.5 c 128,-1,20
 434 1032 434 1032 378 1032 c 0,21,22
 322 1032 322 1032 295 1059 c 128,-1,23
 268 1086 268 1086 268 1127 c 0,12,13
35 843 m 1,24,-1
 50 953 l 1,25,-1
 945 953 l 1,26,-1
 920 632 l 1,27,-1
 784 652 l 1,28,-1
 728 821 l 1,29,-1
 460 821 l 1,30,-1
 460 531 l 1,31,-1
 610 539 l 1,32,-1
 635 580 l 1,33,-1
 752 596 l 1,34,-1
 719 344 l 1,35,-1
 617 346 l 1,36,-1
 596 410 l 1,37,-1
 460 418 l 1,38,-1
 460 150 l 1,39,-1
 734 138 l 1,40,-1
 835 327 l 1,41,-1
 964 312 l 1,42,-1
 940 0 l 1,43,-1
 46 0 l 1,44,-1
 56 116 l 1,45,-1
 176 169 l 1,46,-1
 176 787 l 1,47,-1
 35 843 l 1,24,-1
EndSplineSet
EndChar

StartChar: egrave
Encoding: 232 232 100
Width: 940
VWidth: 0
Flags: MW
LayerCount: 2
Fore
SplineSet
244 1350 m 1,0,-1
 476 1374 l 1,1,-1
 614 1054 l 1,2,-1
 470 1024 l 1,3,-1
 244 1350 l 1,0,-1
31 843 m 1,4,-1
 46 953 l 1,5,-1
 941 953 l 1,6,-1
 916 632 l 1,7,-1
 780 652 l 1,8,-1
 724 821 l 1,9,-1
 456 821 l 1,10,-1
 456 531 l 1,11,-1
 606 539 l 1,12,-1
 631 580 l 1,13,-1
 748 596 l 1,14,-1
 715 344 l 1,15,-1
 613 346 l 1,16,-1
 592 410 l 1,17,-1
 456 418 l 1,18,-1
 456 150 l 1,19,-1
 730 138 l 1,20,-1
 831 327 l 1,21,-1
 960 312 l 1,22,-1
 936 0 l 1,23,-1
 42 0 l 1,24,-1
 52 116 l 1,25,-1
 172 169 l 1,26,-1
 172 787 l 1,27,-1
 31 843 l 1,4,-1
EndSplineSet
EndChar

StartChar: eight
Encoding: 56 56 101
Width: 928
VWidth: 0
Flags: MW
LayerCount: 2
Fore
SplineSet
354 982 m 0,0,1
 354 916 354 916 402.5 844 c 128,-1,2
 451 772 451 772 537 722 c 1,3,4
 600 779 600 779 600 890 c 0,5,6
 600 977 600 977 558 1035.5 c 128,-1,7
 516 1094 516 1094 456 1094 c 0,8,9
 413 1094 413 1094 383.5 1062.5 c 128,-1,10
 354 1031 354 1031 354 982 c 0,0,1
310 326 m 0,11,12
 310 230 310 230 359.5 160 c 128,-1,13
 409 90 409 90 491 90 c 0,14,15
 555 90 555 90 594.5 128 c 128,-1,16
 634 166 634 166 634 230 c 0,17,18
 634 245 634 245 630.5 259.5 c 128,-1,19
 627 274 627 274 617.5 290 c 128,-1,20
 608 306 608 306 600 317.5 c 128,-1,21
 592 329 592 329 573 347 c 128,-1,22
 554 365 554 365 543 375 c 128,-1,23
 532 385 532 385 505.5 405.5 c 128,-1,24
 479 426 479 426 466 435.5 c 128,-1,25
 453 445 453 445 419.5 469.5 c 128,-1,26
 386 494 386 494 372 504 c 1,27,28
 344 475 344 475 327 428 c 128,-1,29
 310 381 310 381 310 326 c 0,11,12
52 275 m 0,30,31
 52 365 52 365 107 441.5 c 128,-1,32
 162 518 162 518 272 574 c 1,33,-1
 272 586 l 1,34,35
 198 639 198 639 150 714 c 128,-1,36
 102 789 102 789 102 875 c 0,37,38
 102 939 102 939 128.5 997 c 128,-1,39
 155 1055 155 1055 203 1100.5 c 128,-1,40
 251 1146 251 1146 326 1173 c 128,-1,41
 401 1200 401 1200 490 1200 c 0,42,43
 640 1200 640 1200 731.5 1123 c 128,-1,44
 823 1046 823 1046 823 934 c 0,45,46
 823 856 823 856 777.5 786 c 128,-1,47
 732 716 732 716 644 663 c 1,48,-1
 644 650 l 1,49,50
 766 572 766 572 823 491 c 128,-1,51
 880 410 880 410 880 320 c 0,52,53
 880 250 880 250 846.5 186.5 c 128,-1,54
 813 123 813 123 754.5 76 c 128,-1,55
 696 29 696 29 611 1 c 128,-1,56
 526 -27 526 -27 428 -27 c 0,57,58
 250 -27 250 -27 151 57.5 c 128,-1,59
 52 142 52 142 52 275 c 0,30,31
EndSplineSet
EndChar

StartChar: emdash
Encoding: 8212 8212 102
Width: 1387
VWidth: 0
Flags: MW
LayerCount: 2
Fore
SplineSet
61 388 m 1,0,-1
 79 534 l 1,1,-1
 1324 541 l 1,2,-1
 1303 394 l 1,3,-1
 61 388 l 1,0,-1
EndSplineSet
EndChar

StartChar: endash
Encoding: 8211 8211 103
Width: 816
VWidth: 0
Flags: MW
LayerCount: 2
Fore
SplineSet
61 388 m 1,0,-1
 79 534 l 1,1,-1
 753 541 l 1,2,-1
 730 394 l 1,3,-1
 61 388 l 1,0,-1
EndSplineSet
EndChar

StartChar: equal
Encoding: 61 61 104
Width: 861
VWidth: 0
Flags: MW
LayerCount: 2
Fore
SplineSet
66 519 m 1,0,-1
 88 684 l 1,1,-1
 796 684 l 1,2,-1
 776 519 l 1,3,-1
 66 519 l 1,0,-1
62 280 m 1,4,-1
 84 445 l 1,5,-1
 794 445 l 1,6,-1
 774 280 l 1,7,-1
 62 280 l 1,4,-1
EndSplineSet
EndChar

StartChar: eth
Encoding: 240 240 105
Width: 1152
VWidth: 0
Flags: MW
LayerCount: 2
Fore
SplineSet
480 153 m 1,0,-1
 526 153 l 2,1,2
 606 153 606 153 664.5 181 c 128,-1,3
 723 209 723 209 755.5 257 c 128,-1,4
 788 305 788 305 803 360.5 c 128,-1,5
 818 416 818 416 818 480 c 0,6,7
 818 576 818 576 787.5 650.5 c 128,-1,8
 757 725 757 725 688.5 772 c 128,-1,9
 620 819 620 819 520 819 c 0,10,11
 492 818 492 818 480 816 c 1,12,-1
 480 545 l 1,13,-1
 656 558 l 1,14,-1
 644 438 l 1,15,-1
 480 421 l 1,16,-1
 480 153 l 1,0,-1
62 378 m 1,17,-1
 76 516 l 1,18,-1
 200 525 l 1,19,-1
 200 766 l 1,20,-1
 68 804 l 1,21,-1
 76 920 l 1,22,23
 322 970 322 970 548 971 c 0,24,25
 671 971 671 971 768.5 946 c 128,-1,26
 866 921 866 921 928.5 879 c 128,-1,27
 991 837 991 837 1031.5 777 c 128,-1,28
 1072 717 1072 717 1089 651.5 c 128,-1,29
 1106 586 1106 586 1106 509 c 0,30,31
 1106 402 1106 402 1066 309.5 c 128,-1,32
 1026 217 1026 217 951 148 c 128,-1,33
 876 79 876 79 761 39.5 c 128,-1,34
 646 0 646 0 506 0 c 2,35,-1
 56 0 l 1,36,-1
 69 116 l 1,37,-1
 200 185 l 1,38,-1
 200 392 l 1,39,-1
 62 378 l 1,17,-1
EndSplineSet
EndChar

StartChar: exclam
Encoding: 33 33 106
Width: 465
VWidth: 0
Flags: MW
LayerCount: 2
Back
SplineSet
177.5 728.5 m 1,0,-1
 187 800.5 l 1,1,-1
 507.5 810.5 l 1,2,-1
 499.5 732 l 1,3,4
 505.115 801.541 505.115 801.541 491.586 890.434 c 0
 478.056 979.327 478.056 979.327 463.914 1046.07 c 0
 449.772 1112.81 449.772 1112.81 453 1133.5 c 1,5,-1
 453 738 l 2,6,7
 453.784 743.25 453.784 743.25 478.055 742.109 c 0
 502.326 740.969 502.326 740.969 528.188 737.5 c 0
 554.049 734.031 554.049 734.031 580.477 730.266 c 0
 606.904 726.5 606.904 726.5 612 726.5 c 0,8,9
 620.8 726.5 620.8 726.5 628.807 683.677 c 0
 636.815 640.853 636.815 640.853 634.5 626.5 c 0,10,11
 630.056 597.786 630.056 597.786 573.387 593.48 c 0
 516.718 589.174 516.718 589.174 451.277 600.575 c 0
 385.837 611.975 385.837 611.975 331.278 621.465 c 0
 276.718 630.954 276.718 630.954 276 626.5 c 0,12,13
 268.567 578.469 268.567 578.469 273.955 630.506 c 0
 275.255 643.062 275.255 643.062 278.282 670.544 c 2
 281 697.5 l 1,14,15
 274.702 656.807 274.702 656.807 303.79 677.171 c 0
 313.639 684.066 313.639 684.066 358.529 729.736 c 0
 368.599 739.254 368.599 739.254 369 737 c 0,16,17
 364.646 708.864 364.646 708.864 363.896 763.884 c 0
 363.066 824.84 363.066 824.84 367.577 1037.93 c 1
 369 1136.5 l 1,18,19
 364.729 1108.9 364.729 1108.9 338.927 1059.57 c 0
 313.125 1010.23 313.125 1010.23 283.151 961.763 c 0
 253.176 913.299 253.176 913.299 221.896 847.972 c 0
 190.616 782.645 190.616 782.645 177.5 728.5 c 1,0,-1
EndSplineSet
Fore
SplineSet
88 1220 m 0,0,1
 88 1258 88 1258 134 1278.5 c 128,-1,2
 180 1299 180 1299 256 1299 c 0,3,4
 309 1299 309 1299 337 1284.5 c 128,-1,5
 365 1270 365 1270 365 1234 c 0,6,7
 365 988 365 988 298 360 c 1,8,-1
 171 384 l 1,9,10
 166 426 166 426 151 554.5 c 128,-1,11
 136 683 136 683 128 758.5 c 128,-1,12
 120 834 120 834 109 937.5 c 128,-1,13
 98 1041 98 1041 93 1111 c 128,-1,14
 88 1181 88 1181 88 1220 c 0,0,1
65 110 m 0,15,16
 65 164 65 164 108 204.5 c 128,-1,17
 151 245 151 245 231 245 c 0,18,19
 315 245 315 245 358.5 205 c 128,-1,20
 402 165 402 165 402 110 c 0,21,22
 402 48 402 48 359 8.5 c 128,-1,23
 316 -31 316 -31 230 -31 c 0,24,25
 144 -31 144 -31 104.5 9.5 c 128,-1,26
 65 50 65 50 65 110 c 0,15,16
EndSplineSet
EndChar

StartChar: exclamdown
Encoding: 161 161 107
Width: 434
VWidth: 0
Flags: MW
LayerCount: 2
Fore
SplineSet
338 -372 m 0,0,1
 338 -410 338 -410 292 -430.5 c 128,-1,2
 246 -451 246 -451 170 -451 c 0,3,4
 117 -451 117 -451 89 -436.5 c 128,-1,5
 61 -422 61 -422 61 -386 c 0,6,7
 61 -140 61 -140 128 488 c 1,8,-1
 255 464 l 1,9,10
 260 422 260 422 275 293.5 c 128,-1,11
 290 165 290 165 298 89.5 c 128,-1,12
 306 14 306 14 317 -89.5 c 128,-1,13
 328 -193 328 -193 333 -263 c 128,-1,14
 338 -333 338 -333 338 -372 c 0,0,1
361 738 m 0,15,16
 361 684 361 684 318 643.5 c 128,-1,17
 275 603 275 603 195 603 c 0,18,19
 111 603 111 603 67.5 643 c 128,-1,20
 24 683 24 683 24 738 c 0,21,22
 24 800 24 800 67 839.5 c 128,-1,23
 110 879 110 879 196 879 c 0,24,25
 282 879 282 879 321.5 838.5 c 128,-1,26
 361 798 361 798 361 738 c 0,15,16
EndSplineSet
EndChar

StartChar: f
Encoding: 102 102 108
Width: 991
VWidth: 845
Flags: MW
LayerCount: 2
Fore
SplineSet
35 844 m 1,0,-1
 50 954 l 1,1,-1
 956 954 l 1,2,-1
 912 628 l 1,3,-1
 772 649 l 1,4,-1
 736 822 l 1,5,-1
 460 822 l 1,6,-1
 460 494 l 1,7,-1
 632 502 l 1,8,-1
 654 546 l 1,9,-1
 776 564 l 1,10,-1
 746 304 l 1,11,-1
 634 308 l 1,12,-1
 614 368 l 1,13,-1
 460 376 l 1,14,-1
 459 174 l 1,15,-1
 640 123 l 1,16,-1
 626 0 l 1,17,-1
 46 0 l 1,18,-1
 58 106 l 1,19,-1
 178 169 l 1,20,-1
 178 788 l 1,21,-1
 35 844 l 1,0,-1
EndSplineSet
EndChar

StartChar: five
Encoding: 53 53 109
Width: 829
VWidth: 0
Flags: MW
LayerCount: 2
Fore
SplineSet
-20 -134 m 0,0,1
 -20 -66 -20 -66 21 -22.5 c 128,-1,2
 62 21 62 21 132 35 c 1,3,4
 142 6 142 6 153.5 -20 c 128,-1,5
 165 -46 165 -46 185 -77 c 128,-1,6
 205 -108 205 -108 229 -130.5 c 128,-1,7
 253 -153 253 -153 287.5 -167.5 c 128,-1,8
 322 -182 322 -182 362 -182 c 0,9,10
 450 -182 450 -182 501 -122 c 128,-1,11
 552 -62 552 -62 552 42 c 0,12,13
 552 170 552 170 439 254 c 128,-1,14
 326 338 326 338 118 359 c 1,15,-1
 250 957 l 1,16,-1
 753 996 l 1,17,-1
 720 756 l 1,18,-1
 312 742 l 1,19,-1
 288 569 l 1,20,21
 412 557 412 557 508 518.5 c 128,-1,22
 604 480 604 480 664 423 c 128,-1,23
 724 366 724 366 755 295 c 128,-1,24
 786 224 786 224 786 142 c 0,25,26
 786 77 786 77 764.5 12.5 c 128,-1,27
 743 -52 743 -52 700 -108.5 c 128,-1,28
 657 -165 657 -165 598.5 -208.5 c 128,-1,29
 540 -252 540 -252 460 -277 c 128,-1,30
 380 -302 380 -302 290 -302 c 0,31,32
 150 -302 150 -302 65 -251 c 128,-1,33
 -20 -200 -20 -200 -20 -134 c 0,0,1
EndSplineSet
EndChar

StartChar: four
Encoding: 52 52 110
Width: 1063
VWidth: 0
Flags: MW
LayerCount: 2
Fore
SplineSet
248 198 m 1,0,-1
 528 198 l 1,1,-1
 528 622 l 1,2,-1
 248 198 l 1,0,-1
18 172 m 1,3,-1
 680 1004 l 1,4,-1
 791 978 l 1,5,6
 782 789 782 789 782 389 c 2,7,-1
 782 198 l 1,8,-1
 1034 198 l 1,9,-1
 1016 47 l 1,10,-1
 785 47 l 1,11,-1
 785 -273 l 1,12,-1
 526 -314 l 1,13,-1
 526 51 l 1,14,-1
 49 51 l 1,15,-1
 18 172 l 1,3,-1
EndSplineSet
EndChar

StartChar: g
Encoding: 103 103 111
Width: 1101
VWidth: 845
Flags: MW
LayerCount: 2
Fore
SplineSet
37 436 m 0,0,1
 37 558 37 558 85.5 660 c 128,-1,2
 134 762 134 762 215 829.5 c 128,-1,3
 296 897 296 897 400 934.5 c 128,-1,4
 504 972 504 972 617 972 c 0,5,6
 832 972 832 972 968 930 c 1,7,-1
 936 630 l 1,8,-1
 788 645 l 1,9,-1
 730 792 l 1,10,11
 668 830 668 830 568 830 c 0,12,13
 467 830 467 830 404.5 750.5 c 128,-1,14
 342 671 342 671 342 507 c 0,15,16
 342 331 342 331 406 233.5 c 128,-1,17
 470 136 470 136 585 136 c 0,18,19
 645 136 645 136 676.5 143 c 128,-1,20
 708 150 708 150 728 168 c 1,21,-1
 728 296 l 1,22,-1
 554 348 l 1,23,-1
 568 455 l 1,24,-1
 1066 455 l 1,25,-1
 1052 340 l 1,26,-1
 968 303 l 1,27,-1
 968 46 l 1,28,29
 900 14 900 14 787 -7 c 128,-1,30
 674 -28 674 -28 566 -28 c 0,31,32
 307 -28 307 -28 172 96 c 128,-1,33
 37 220 37 220 37 436 c 0,0,1
EndSplineSet
EndChar

StartChar: germandbls
Encoding: 223 223 112
Width: 1263
VWidth: 845
Flags: MW
LayerCount: 2
Back
SplineSet
17.5 0 m 1,0,-1
 29.5 115.5 l 1,1,-1
 182 173 l 1,2,-1
 182 744 l 1,3,-1
 38 744 l 1,4,-1
 46.5 844.5 l 1,5,-1
 183.5 867 l 1,6,7
 192.953 953.531 192.953 953.531 238.389 1035.86 c 0
 283.826 1118.19 283.826 1118.19 348.197 1177.2 c 0
 412.568 1236.22 412.568 1236.22 490.811 1272.11 c 0
 569.055 1308 569.055 1308 642.5 1308 c 0,8,9
 752 1308 752 1308 807 1252.5 c 0
 862 1197 862 1197 862 1120.5 c 0,10,11
 862 1076 862 1076 848.5 1043.5 c 0
 835 1011 835 1011 814.5 992.5 c 0
 794 974 794 974 773.5 959 c 0
 753 944 753 944 735.5 924.5 c 0
 718 905 718 905 714 882 c 1,12,13
 710.9 878.513 710.9 878.513 715.36 877.215 c 0
 719.82 875.918 719.82 875.918 730.14 875.982 c 0
 740.46 876.046 740.46 876.046 754.389 875.482 c 0
 768.318 874.917 768.318 874.917 784.156 872.894 c 0
 799.995 870.872 799.995 870.872 815.492 865.402 c 0
 830.989 859.932 830.989 859.932 844.444 850.185 c 0
 857.9 840.439 857.9 840.439 867.064 824.425 c 0
 876.227 808.412 876.227 808.412 879.399 785.303 c 0
 882.571 762.194 882.571 762.194 877.5 730 c 1,14,15
 861.205 697.409 861.205 697.409 820.624 655.531 c 0
 780.043 613.652 780.043 613.652 724.21 562.469 c 0
 668.376 511.287 668.376 511.287 640 480 c 1,16,17
 587 480 587 480 539 477 c 0
 491 474 491 474 484 473 c 0
 477 472 477 472 467 475 c 1,18,19
 467 508.262 467 508.262 513.969 535.458 c 0
 560.938 562.653 560.938 562.653 616.531 574.876 c 0
 672.123 587.099 672.123 587.099 712.5 586 c 1,20,21
 742.822 555.678 742.822 555.678 770.617 508.569 c 0
 789.243 477 789.243 477 777.5 477 c 1,22,23
 752.509 466.03 l 1
 684.393 445.222 684.393 445.222 683 487.5 c 0,24,25
 683 500.726 683 500.726 632.642 447.563 c 0
 543.414 353.364 543.414 353.364 509.81 329.862 c 0
 445.5 284.886 445.5 284.886 445.5 357.5 c 0,26,27
 445.5 382.133 445.5 382.133 466.718 401.213 c 0
 487.936 420.294 487.936 420.294 518.218 432.047 c 0
 548.5 443.799 548.5 443.799 578.782 454.133 c 0
 609.064 464.468 609.064 464.468 630.282 477.407 c 0
 651.5 490.345 651.5 490.345 651.5 506 c 0,28,29
 651.5 511.45 651.5 511.45 651.616 520.65 c 0
 651.957 547.56 651.957 547.56 647.134 551.992 c 0
 642.31 556.424 642.31 556.424 613.029 556.109 c 0
 602.969 556 602.969 556 597 556 c 0,30,31
 584.175 556 584.175 556 579.286 555.439 c 0
 574.397 554.878 574.397 554.878 563.318 546.601 c 0
 552.238 538.325 552.238 538.325 547.382 521.639 c 0
 542.527 504.953 542.527 504.953 538.014 469.721 c 0
 533.5 434.489 533.5 434.489 533.5 383 c 2,32,-1
 534.5 0 l 1,33,-1
 17.5 0 l 1,0,-1
EndSplineSet
Fore
SplineSet
21 0 m 1,0,-1
 32 104 l 1,1,-1
 146 151 l 1,2,-1
 146 548 l 2,3,4
 146 657 146 657 188 739.5 c 128,-1,5
 230 822 230 822 307.5 872.5 c 128,-1,6
 385 923 385 923 488.5 948 c 128,-1,7
 592 973 592 973 720 973 c 0,8,9
 1196 972 1196 972 1196 774 c 0,10,11
 1196 714 1196 714 1163 677 c 128,-1,12
 1130 640 1130 640 1060 618 c 1,13,14
 1018 717 1018 717 971 772.5 c 128,-1,15
 924 828 924 828 862 828 c 0,16,17
 819 828 819 828 790.5 803 c 128,-1,18
 762 778 762 778 762 732 c 0,19,20
 762 696 762 696 788 664 c 128,-1,21
 814 632 814 632 856 606 c 128,-1,22
 898 580 898 580 949 554 c 128,-1,23
 1000 528 1000 528 1050.5 499 c 128,-1,24
 1101 470 1101 470 1143 437.5 c 128,-1,25
 1185 405 1185 405 1211.5 360 c 128,-1,26
 1238 315 1238 315 1238 263 c 0,27,28
 1238 203 1238 203 1213.5 153.5 c 128,-1,29
 1189 104 1189 104 1149.5 72 c 128,-1,30
 1110 40 1110 40 1059 17.5 c 128,-1,31
 1008 -5 1008 -5 957.5 -14.5 c 128,-1,32
 907 -24 907 -24 857 -24 c 0,33,34
 724 -24 724 -24 634 -4 c 128,-1,35
 544 16 544 16 504 50 c 1,36,-1
 538 334 l 1,37,-1
 678 312 l 1,38,-1
 707 160 l 1,39,40
 757 110 757 110 855 110 c 0,41,42
 909 110 909 110 944.5 131 c 128,-1,43
 980 152 980 152 980 194 c 0,44,45
 980 221 980 221 955 246 c 128,-1,46
 930 271 930 271 889 293.5 c 128,-1,47
 848 316 848 316 799 340.5 c 128,-1,48
 750 365 750 365 701 394.5 c 128,-1,49
 652 424 652 424 611.5 458 c 128,-1,50
 571 492 571 492 545.5 540 c 128,-1,51
 520 588 520 588 520 642 c 0,52,53
 520 724 520 724 564 778.5 c 128,-1,54
 608 833 608 833 666 848 c 1,55,-1
 666 854 l 1,56,57
 538 863 538 863 479 796.5 c 128,-1,58
 420 730 420 730 420 570 c 2,59,-1
 420 0 l 1,60,-1
 21 0 l 1,0,-1
EndSplineSet
EndChar

StartChar: grave
Encoding: 96 96 113
Width: 508
VWidth: 0
Flags: MW
LayerCount: 2
Fore
SplineSet
75 1658 m 1,0,-1
 292 1696 l 1,1,-1
 432 1356 l 1,2,-1
 275 1323 l 1,3,-1
 75 1658 l 1,0,-1
EndSplineSet
EndChar

StartChar: greater
Encoding: 62 62 114
Width: 825
VWidth: 0
Flags: MW
LayerCount: 2
Fore
SplineSet
40 12 m 1,0,-1
 444 454 l 1,1,-1
 56 870 l 1,2,-1
 157 974 l 1,3,-1
 777 494 l 1,4,-1
 777 419 l 1,5,-1
 144 -84 l 1,6,-1
 40 12 l 1,0,-1
EndSplineSet
EndChar

StartChar: guillemotleft
Encoding: 171 171 115
Width: 757
VWidth: 0
Flags: MW
LayerCount: 2
Fore
SplineSet
407 469 m 1,0,-1
 675 819 l 1,1,-1
 734 736 l 1,2,-1
 594 460 l 1,3,-1
 742 166 l 1,4,-1
 668 76 l 1,5,-1
 406 448 l 1,6,-1
 407 469 l 1,0,-1
87 469 m 1,7,-1
 355 819 l 1,8,-1
 414 736 l 1,9,-1
 274 460 l 1,10,-1
 422 166 l 1,11,-1
 348 76 l 1,12,-1
 86 448 l 1,13,-1
 87 469 l 1,7,-1
EndSplineSet
EndChar

StartChar: guillemotright
Encoding: 187 187 116
Width: 757
VWidth: 0
Flags: MW
LayerCount: 2
Fore
SplineSet
313 469 m 1,0,-1
 314 448 l 1,1,-1
 52 76 l 1,2,-1
 -22 166 l 1,3,-1
 126 460 l 1,4,-1
 -14 736 l 1,5,-1
 45 819 l 1,6,-1
 313 469 l 1,0,-1
633 469 m 1,7,-1
 634 448 l 1,8,-1
 372 76 l 1,9,-1
 298 166 l 1,10,-1
 446 460 l 1,11,-1
 306 736 l 1,12,-1
 365 819 l 1,13,-1
 633 469 l 1,7,-1
EndSplineSet
EndChar

StartChar: guilsinglleft
Encoding: 8249 8249 117
Width: 437
VWidth: 0
Flags: MW
LayerCount: 2
Fore
SplineSet
50 469 m 1,0,-1
 318 819 l 1,1,-1
 377 736 l 1,2,-1
 237 460 l 1,3,-1
 385 166 l 1,4,-1
 311 76 l 1,5,-1
 49 448 l 1,6,-1
 50 469 l 1,0,-1
EndSplineSet
EndChar

StartChar: guilsinglright
Encoding: 8250 8250 118
Width: 437
VWidth: 0
Flags: MW
LayerCount: 2
Fore
SplineSet
350 469 m 1,0,-1
 351 448 l 1,1,-1
 89 76 l 1,2,-1
 15 166 l 1,3,-1
 163 460 l 1,4,-1
 23 736 l 1,5,-1
 82 819 l 1,6,-1
 350 469 l 1,0,-1
EndSplineSet
EndChar

StartChar: h
Encoding: 104 104 119
Width: 1250
VWidth: 845
Flags: MW
LayerCount: 2
Fore
SplineSet
35 842 m 1,0,-1
 53 954 l 1,1,-1
 576 954 l 1,2,-1
 562 838 l 1,3,-1
 458 789 l 1,4,-1
 458 548 l 1,5,-1
 789 548 l 1,6,-1
 789 784 l 1,7,-1
 677 836 l 1,8,-1
 691 954 l 1,9,-1
 1213 954 l 1,10,-1
 1198 842 l 1,11,-1
 1075 789 l 1,12,-1
 1075 162 l 1,13,-1
 1210 114 l 1,14,-1
 1198 0 l 1,15,-1
 670 0 l 1,16,-1
 682 110 l 1,17,-1
 789 169 l 1,18,-1
 789 396 l 1,19,-1
 458 396 l 1,20,-1
 458 162 l 1,21,-1
 576 114 l 1,22,-1
 560 0 l 1,23,-1
 41 0 l 1,24,-1
 51 106 l 1,25,-1
 174 169 l 1,26,-1
 174 784 l 1,27,-1
 35 842 l 1,0,-1
EndSplineSet
EndChar

StartChar: hyphen
Encoding: 45 45 120
Width: 632
VWidth: 0
Flags: MW
LayerCount: 2
Fore
SplineSet
61 378 m 1,0,-1
 75 516 l 1,1,-1
 569 537 l 1,2,-1
 555 394 l 1,3,-1
 61 378 l 1,0,-1
EndSplineSet
EndChar

StartChar: i
Encoding: 105 105 121
Width: 633
VWidth: 845
Flags: MW
LayerCount: 2
Fore
SplineSet
35 842 m 1,0,-1
 50 954 l 1,1,-1
 596 954 l 1,2,-1
 583 836 l 1,3,-1
 454 784 l 1,4,-1
 454 168 l 1,5,-1
 590 120 l 1,6,-1
 578 0 l 1,7,-1
 40 0 l 1,8,-1
 48 108 l 1,9,-1
 175 171 l 1,10,-1
 175 784 l 1,11,-1
 35 842 l 1,0,-1
EndSplineSet
EndChar

StartChar: iacute
Encoding: 237 237 122
Width: 633
VWidth: 0
Flags: MW
LayerCount: 2
Fore
SplineSet
204 1060 m 1,0,-1
 339 1375 l 1,1,-1
 570 1351 l 1,2,-1
 347 1031 l 1,3,-1
 204 1060 l 1,0,-1
35 842 m 1,4,-1
 50 954 l 1,5,-1
 596 954 l 1,6,-1
 583 836 l 1,7,-1
 454 784 l 1,8,-1
 454 168 l 1,9,-1
 590 120 l 1,10,-1
 578 0 l 1,11,-1
 40 0 l 1,12,-1
 48 108 l 1,13,-1
 175 171 l 1,14,-1
 175 784 l 1,15,-1
 35 842 l 1,4,-1
EndSplineSet
EndChar

StartChar: icircumflex
Encoding: 238 238 123
Width: 633
VWidth: 0
Flags: MW
LayerCount: 2
Fore
SplineSet
64 1054 m 1,0,-1
 225 1271 l 1,1,-1
 414 1278 l 1,2,-1
 580 1058 l 1,3,-1
 430 1035 l 1,4,-1
 316 1150 l 1,5,-1
 304 1150 l 1,6,-1
 200 1034 l 1,7,-1
 64 1054 l 1,0,-1
35 842 m 1,8,-1
 50 954 l 1,9,-1
 596 954 l 1,10,-1
 583 836 l 1,11,-1
 454 784 l 1,12,-1
 454 168 l 1,13,-1
 590 120 l 1,14,-1
 578 0 l 1,15,-1
 40 0 l 1,16,-1
 48 108 l 1,17,-1
 175 171 l 1,18,-1
 175 784 l 1,19,-1
 35 842 l 1,8,-1
EndSplineSet
EndChar

StartChar: idieresis
Encoding: 239 239 124
Width: 633
VWidth: 0
Flags: MW
LayerCount: 2
Fore
SplineSet
358 1128 m 0,0,1
 358 1166 358 1166 387 1193 c 128,-1,2
 416 1220 416 1220 469 1220 c 0,3,4
 525 1220 525 1220 554.5 1193 c 128,-1,5
 584 1166 584 1166 584 1128 c 0,6,7
 584 1085 584 1085 554 1059 c 128,-1,8
 524 1033 524 1033 468 1033 c 0,9,10
 412 1033 412 1033 385 1060 c 128,-1,11
 358 1087 358 1087 358 1128 c 0,0,1
69 1128 m 0,12,13
 69 1166 69 1166 98.5 1193 c 128,-1,14
 128 1220 128 1220 180 1220 c 0,15,16
 236 1220 236 1220 266 1193 c 128,-1,17
 296 1166 296 1166 296 1128 c 0,18,19
 296 1085 296 1085 266 1059 c 128,-1,20
 236 1033 236 1033 180 1033 c 128,-1,21
 124 1033 124 1033 96.5 1060.5 c 128,-1,22
 69 1088 69 1088 69 1128 c 0,12,13
35 842 m 1,23,-1
 50 954 l 1,24,-1
 596 954 l 1,25,-1
 583 836 l 1,26,-1
 454 784 l 1,27,-1
 454 168 l 1,28,-1
 590 120 l 1,29,-1
 578 0 l 1,30,-1
 40 0 l 1,31,-1
 48 108 l 1,32,-1
 175 171 l 1,33,-1
 175 784 l 1,34,-1
 35 842 l 1,23,-1
EndSplineSet
EndChar

StartChar: igrave
Encoding: 236 236 125
Width: 633
VWidth: 0
Flags: MW
LayerCount: 2
Fore
SplineSet
49 1350 m 1,0,-1
 282 1374 l 1,1,-1
 420 1055 l 1,2,-1
 276 1025 l 1,3,-1
 49 1350 l 1,0,-1
35 842 m 1,4,-1
 50 954 l 1,5,-1
 596 954 l 1,6,-1
 583 836 l 1,7,-1
 454 784 l 1,8,-1
 454 168 l 1,9,-1
 590 120 l 1,10,-1
 578 0 l 1,11,-1
 40 0 l 1,12,-1
 48 108 l 1,13,-1
 175 171 l 1,14,-1
 175 784 l 1,15,-1
 35 842 l 1,4,-1
EndSplineSet
EndChar

StartChar: j
Encoding: 106 106 126
Width: 645
VWidth: 845
Flags: MW
LayerCount: 2
Fore
SplineSet
-9 -194 m 1,0,1
 97 -102 97 -102 144 -19.5 c 128,-1,2
 191 63 191 63 191 176 c 2,3,-1
 191 784 l 1,4,-1
 48 842 l 1,5,-1
 62 954 l 1,6,-1
 612 954 l 1,7,-1
 596 842 l 1,8,-1
 472 789 l 1,9,-1
 472 320 l 2,10,11
 472 228 472 228 464.5 159 c 128,-1,12
 457 90 457 90 438.5 29.5 c 128,-1,13
 420 -31 420 -31 392 -76 c 128,-1,14
 364 -121 364 -121 318 -164.5 c 128,-1,15
 272 -208 272 -208 215 -245.5 c 128,-1,16
 158 -283 158 -283 76 -326 c 1,17,-1
 -9 -194 l 1,0,1
EndSplineSet
EndChar

StartChar: k
Encoding: 107 107 127
Width: 1206
VWidth: 845
Flags: MW
LayerCount: 2
Fore
SplineSet
498 484 m 1,0,1
 572 561 572 561 612 607 c 2,2,-1
 758 776 l 1,3,-1
 706 836 l 1,4,-1
 724 954 l 1,5,-1
 1134 954 l 1,6,-1
 1113 840 l 1,7,-1
 958 773 l 1,8,-1
 731 516 l 1,9,-1
 830 382 l 1,10,11
 998 157 998 157 1126 116 c 2,12,-1
 1172 102 l 1,13,-1
 1150 0 l 1,14,15
 1074 -22 1074 -22 1008 -22 c 0,16,17
 880 -22 880 -22 772 52.5 c 128,-1,18
 664 127 664 127 586 270 c 1,19,-1
 493 430 l 1,20,-1
 498 484 l 1,0,1
35 842 m 1,21,-1
 58 954 l 1,22,-1
 593 954 l 1,23,-1
 576 832 l 1,24,-1
 468 771 l 1,25,-1
 468 172 l 1,26,-1
 596 124 l 1,27,-1
 579 0 l 1,28,-1
 40 0 l 1,29,-1
 53 106 l 1,30,-1
 190 185 l 1,31,-1
 190 766 l 1,32,-1
 35 842 l 1,21,-1
EndSplineSet
EndChar

StartChar: l
Encoding: 108 108 128
Width: 997
VWidth: 845
Flags: MW
LayerCount: 2
Fore
SplineSet
37 843 m 1,0,-1
 53 954 l 1,1,-1
 620 954 l 1,2,-1
 604 843 l 1,3,-1
 460 770 l 1,4,-1
 460 148 l 1,5,-1
 708 137 l 1,6,-1
 823 354 l 1,7,-1
 962 336 l 1,8,-1
 940 0 l 1,9,-1
 42 0 l 1,10,-1
 54 106 l 1,11,-1
 177 169 l 1,12,-1
 177 768 l 1,13,-1
 37 843 l 1,0,-1
EndSplineSet
EndChar

StartChar: less
Encoding: 60 60 129
Width: 826
VWidth: 0
Flags: MW
LayerCount: 2
Fore
SplineSet
775 12 m 1,0,-1
 671 -84 l 1,1,-1
 38 419 l 1,2,-1
 38 494 l 1,3,-1
 658 974 l 1,4,-1
 759 870 l 1,5,-1
 371 454 l 1,6,-1
 775 12 l 1,0,-1
EndSplineSet
EndChar

StartChar: logicalnot
Encoding: 172 172 130
Width: 908
VWidth: 0
Flags: MW
LayerCount: 2
Fore
SplineSet
56 509 m 1,0,-1
 68 662 l 1,1,-1
 841 662 l 1,2,-1
 843 306 l 1,3,-1
 680 286 l 1,4,-1
 680 509 l 1,5,-1
 56 509 l 1,0,-1
EndSplineSet
EndChar

StartChar: m
Encoding: 109 109 131
Width: 1481
VWidth: 845
Flags: MW
LayerCount: 2
Fore
SplineSet
34 0 m 1,0,-1
 50 114 l 1,1,-1
 178 177 l 1,2,-1
 226 789 l 1,3,-1
 88 838 l 1,4,-1
 101 955 l 1,5,-1
 566 955 l 1,6,-1
 630 756 l 1,7,-1
 753 382 l 1,8,-1
 888 773 l 1,9,-1
 954 955 l 1,10,-1
 1406 955 l 1,11,-1
 1392 838 l 1,12,-1
 1276 792 l 1,13,-1
 1312 172 l 1,14,-1
 1446 120 l 1,15,-1
 1434 0 l 1,16,-1
 936 0 l 1,17,-1
 953 114 l 1,18,-1
 1057 167 l 1,19,-1
 1034 674 l 1,20,-1
 812 70 l 1,21,-1
 602 42 l 1,22,-1
 401 642 l 1,23,-1
 368 172 l 1,24,-1
 474 120 l 1,25,-1
 454 0 l 1,26,-1
 34 0 l 1,0,-1
EndSplineSet
EndChar

StartChar: macron
Encoding: 175 175 132
Width: 619
VWidth: 0
Flags: MW
LayerCount: 2
Fore
SplineSet
77 1379 m 1,0,-1
 94 1526 l 1,1,-1
 541 1526 l 1,2,-1
 524 1379 l 1,3,-1
 77 1379 l 1,0,-1
EndSplineSet
EndChar

StartChar: multiply
Encoding: 215 215 133
Width: 612
VWidth: 0
Flags: MW
LayerCount: 2
Fore
SplineSet
52 319 m 1,0,-1
 207 462 l 1,1,-1
 48 618 l 1,2,-1
 164 708 l 1,3,-1
 312 554 l 1,4,-1
 479 720 l 1,5,-1
 568 602 l 1,6,-1
 408 457 l 1,7,-1
 566 298 l 1,8,-1
 452 204 l 1,9,-1
 304 366 l 1,10,-1
 144 203 l 1,11,-1
 52 319 l 1,0,-1
EndSplineSet
EndChar

StartChar: n
Encoding: 110 110 134
Width: 1172
VWidth: 845
Flags: MW
LayerCount: 2
Fore
SplineSet
37 838 m 1,0,-1
 50 954 l 1,1,-1
 434 954 l 1,2,-1
 848 364 l 1,3,-1
 848 784 l 1,4,-1
 703 842 l 1,5,-1
 721 954 l 1,6,-1
 1162 954 l 1,7,-1
 1144 842 l 1,8,-1
 1016 789 l 1,9,-1
 1016 13 l 1,10,-1
 776 -24 l 1,11,-1
 352 593 l 1,12,-1
 352 162 l 1,13,-1
 494 114 l 1,14,-1
 482 0 l 1,15,-1
 38 0 l 1,16,-1
 48 106 l 1,17,-1
 176 169 l 1,18,-1
 176 770 l 1,19,-1
 37 838 l 1,0,-1
EndSplineSet
EndChar

StartChar: nine
Encoding: 57 57 136
Width: 896
VWidth: 0
Flags: MW
LayerCount: 2
Fore
SplineSet
310 607 m 0,0,1
 310 465 310 465 342.5 398 c 128,-1,2
 375 331 375 331 447 331 c 0,3,4
 519 331 519 331 563 392 c 1,5,6
 572 445 572 445 572 567 c 0,7,8
 572 709 572 709 535.5 796.5 c 128,-1,9
 499 884 499 884 433 884 c 0,10,11
 372 884 372 884 341 818 c 128,-1,12
 310 752 310 752 310 607 c 0,0,1
38 540 m 0,13,14
 38 643 38 643 72 731 c 128,-1,15
 106 819 106 819 163 877 c 128,-1,16
 220 935 220 935 294 967.5 c 128,-1,17
 368 1000 368 1000 449 1000 c 0,18,19
 535 1000 535 1000 603.5 974 c 128,-1,20
 672 948 672 948 718 903.5 c 128,-1,21
 764 859 764 859 794.5 796 c 128,-1,22
 825 733 825 733 838.5 661.5 c 128,-1,23
 852 590 852 590 852 506 c 0,24,25
 852 358 852 358 799.5 220.5 c 128,-1,26
 747 83 747 83 657 -22 c 128,-1,27
 567 -127 567 -127 444.5 -199.5 c 128,-1,28
 322 -272 322 -272 184 -298 c 1,29,-1
 148 -204 l 1,30,31
 322 -136 322 -136 425 -10 c 128,-1,32
 528 116 528 116 554 273 c 1,33,-1
 544 278 l 1,34,35
 514 234 514 234 457.5 208 c 128,-1,36
 401 182 401 182 336 182 c 0,37,38
 191 182 191 182 114.5 278 c 128,-1,39
 38 374 38 374 38 540 c 0,13,14
EndSplineSet
EndChar

StartChar: ntilde
Encoding: 241 241 137
Width: 1172
VWidth: 0
Flags: MW
LayerCount: 2
Fore
SplineSet
303 1046 m 1,0,1
 306 1152 306 1152 367 1210 c 128,-1,2
 428 1268 428 1268 524 1245 c 1,3,-1
 672 1220 l 1,4,5
 713 1209 713 1209 740 1222.5 c 128,-1,6
 767 1236 767 1236 775 1264 c 1,7,-1
 857 1258 l 1,8,9
 851 1154 851 1154 793.5 1093.5 c 128,-1,10
 736 1033 736 1033 638 1057 c 1,11,-1
 492 1083 l 1,12,13
 406 1106 406 1106 381 1036 c 1,14,-1
 303 1046 l 1,0,1
37 838 m 1,15,-1
 50 954 l 1,16,-1
 434 954 l 1,17,-1
 848 364 l 1,18,-1
 848 784 l 1,19,-1
 703 842 l 1,20,-1
 721 954 l 1,21,-1
 1162 954 l 1,22,-1
 1144 842 l 1,23,-1
 1016 789 l 1,24,-1
 1016 13 l 1,25,-1
 776 -24 l 1,26,-1
 352 593 l 1,27,-1
 352 162 l 1,28,-1
 494 114 l 1,29,-1
 482 0 l 1,30,-1
 38 0 l 1,31,-1
 48 106 l 1,32,-1
 176 169 l 1,33,-1
 176 770 l 1,34,-1
 37 838 l 1,15,-1
EndSplineSet
EndChar

StartChar: numbersign
Encoding: 35 35 138
Width: 1033
VWidth: 0
Flags: MW
LayerCount: 2
Fore
SplineSet
78 555 m 1,0,-1
 122 728 l 1,1,-1
 321 728 l 1,2,-1
 358 964 l 1,3,-1
 520 974 l 1,4,-1
 482 728 l 1,5,-1
 636 728 l 1,6,-1
 673 964 l 1,7,-1
 836 974 l 1,8,-1
 797 728 l 1,9,-1
 1010 728 l 1,10,-1
 968 555 l 1,11,-1
 769 555 l 1,12,-1
 744 398 l 1,13,-1
 950 398 l 1,14,-1
 908 224 l 1,15,-1
 717 224 l 1,16,-1
 678 -19 l 1,17,-1
 516 -26 l 1,18,-1
 556 224 l 1,19,-1
 402 224 l 1,20,-1
 364 -19 l 1,21,-1
 201 -26 l 1,22,-1
 241 224 l 1,23,-1
 20 224 l 1,24,-1
 64 398 l 1,25,-1
 268 398 l 1,26,-1
 293 555 l 1,27,-1
 78 555 l 1,0,-1
454 555 m 1,28,-1
 429 398 l 1,29,-1
 583 398 l 1,30,-1
 608 555 l 1,31,-1
 454 555 l 1,28,-1
EndSplineSet
EndChar

StartChar: o
Encoding: 111 111 139
Width: 1084
VWidth: 845
Flags: MW
LayerCount: 2
Fore
SplineSet
342 523 m 0,0,1
 342 472 342 472 348 419.5 c 128,-1,2
 354 367 354 367 369.5 312.5 c 128,-1,3
 385 258 385 258 408 216 c 128,-1,4
 431 174 431 174 468.5 147.5 c 128,-1,5
 506 121 506 121 550 121 c 0,6,7
 648 121 648 121 689.5 207.5 c 128,-1,8
 731 294 731 294 731 453 c 0,9,10
 731 520 731 520 719 585 c 128,-1,11
 707 650 707 650 682.5 707.5 c 128,-1,12
 658 765 658 765 616 800.5 c 128,-1,13
 574 836 574 836 521 836 c 0,14,15
 470 836 470 836 434 813 c 128,-1,16
 398 790 398 790 378.5 746 c 128,-1,17
 359 702 359 702 350.5 647.5 c 128,-1,18
 342 593 342 593 342 523 c 0,0,1
36 464 m 0,19,20
 36 576 36 576 72.5 670 c 128,-1,21
 109 764 109 764 175 830.5 c 128,-1,22
 241 897 241 897 338.5 934.5 c 128,-1,23
 436 972 436 972 556 972 c 0,24,25
 782 972 782 972 915 842 c 128,-1,26
 1048 712 1048 712 1048 481 c 0,27,28
 1048 331 1048 331 981 215.5 c 128,-1,29
 914 100 914 100 791 36.5 c 128,-1,30
 668 -27 668 -27 510 -27 c 0,31,32
 397 -27 397 -27 307 10 c 128,-1,33
 217 47 217 47 158 112.5 c 128,-1,34
 99 178 99 178 67.5 268 c 128,-1,35
 36 358 36 358 36 464 c 0,19,20
EndSplineSet
EndChar

StartChar: oacute
Encoding: 243 243 140
Width: 1084
VWidth: 0
Flags: MW
LayerCount: 2
Fore
SplineSet
431 1058 m 1,0,-1
 565 1373 l 1,1,-1
 796 1348 l 1,2,-1
 574 1029 l 1,3,-1
 431 1058 l 1,0,-1
342 523 m 0,4,5
 342 472 342 472 348 419.5 c 128,-1,6
 354 367 354 367 369.5 312.5 c 128,-1,7
 385 258 385 258 408 216 c 128,-1,8
 431 174 431 174 468.5 147.5 c 128,-1,9
 506 121 506 121 550 121 c 0,10,11
 648 121 648 121 689.5 207.5 c 128,-1,12
 731 294 731 294 731 453 c 0,13,14
 731 520 731 520 719 585 c 128,-1,15
 707 650 707 650 682.5 707.5 c 128,-1,16
 658 765 658 765 616 800.5 c 128,-1,17
 574 836 574 836 521 836 c 0,18,19
 470 836 470 836 434 813 c 128,-1,20
 398 790 398 790 378.5 746 c 128,-1,21
 359 702 359 702 350.5 647.5 c 128,-1,22
 342 593 342 593 342 523 c 0,4,5
36 464 m 0,23,24
 36 576 36 576 72.5 670 c 128,-1,25
 109 764 109 764 175 830.5 c 128,-1,26
 241 897 241 897 338.5 934.5 c 128,-1,27
 436 972 436 972 556 972 c 0,28,29
 782 972 782 972 915 842 c 128,-1,30
 1048 712 1048 712 1048 481 c 0,31,32
 1048 331 1048 331 981 215.5 c 128,-1,33
 914 100 914 100 791 36.5 c 128,-1,34
 668 -27 668 -27 510 -27 c 0,35,36
 397 -27 397 -27 307 10 c 128,-1,37
 217 47 217 47 158 112.5 c 128,-1,38
 99 178 99 178 67.5 268 c 128,-1,39
 36 358 36 358 36 464 c 0,23,24
EndSplineSet
EndChar

StartChar: ocircumflex
Encoding: 244 244 141
Width: 1084
VWidth: 0
Flags: MW
LayerCount: 2
Fore
SplineSet
290 1046 m 1,0,-1
 450 1263 l 1,1,-1
 640 1270 l 1,2,-1
 806 1050 l 1,3,-1
 656 1027 l 1,4,-1
 542 1142 l 1,5,-1
 530 1142 l 1,6,-1
 426 1026 l 1,7,-1
 290 1046 l 1,0,-1
342 523 m 0,8,9
 342 472 342 472 348 419.5 c 128,-1,10
 354 367 354 367 369.5 312.5 c 128,-1,11
 385 258 385 258 408 216 c 128,-1,12
 431 174 431 174 468.5 147.5 c 128,-1,13
 506 121 506 121 550 121 c 0,14,15
 648 121 648 121 689.5 207.5 c 128,-1,16
 731 294 731 294 731 453 c 0,17,18
 731 520 731 520 719 585 c 128,-1,19
 707 650 707 650 682.5 707.5 c 128,-1,20
 658 765 658 765 616 800.5 c 128,-1,21
 574 836 574 836 521 836 c 0,22,23
 470 836 470 836 434 813 c 128,-1,24
 398 790 398 790 378.5 746 c 128,-1,25
 359 702 359 702 350.5 647.5 c 128,-1,26
 342 593 342 593 342 523 c 0,8,9
36 464 m 0,27,28
 36 576 36 576 72.5 670 c 128,-1,29
 109 764 109 764 175 830.5 c 128,-1,30
 241 897 241 897 338.5 934.5 c 128,-1,31
 436 972 436 972 556 972 c 0,32,33
 782 972 782 972 915 842 c 128,-1,34
 1048 712 1048 712 1048 481 c 0,35,36
 1048 331 1048 331 981 215.5 c 128,-1,37
 914 100 914 100 791 36.5 c 128,-1,38
 668 -27 668 -27 510 -27 c 0,39,40
 397 -27 397 -27 307 10 c 128,-1,41
 217 47 217 47 158 112.5 c 128,-1,42
 99 178 99 178 67.5 268 c 128,-1,43
 36 358 36 358 36 464 c 0,27,28
EndSplineSet
EndChar

StartChar: odieresis
Encoding: 246 246 142
Width: 1084
VWidth: 0
Flags: MW
LayerCount: 2
Fore
SplineSet
576 1132 m 0,0,1
 576 1170 576 1170 605 1197 c 128,-1,2
 634 1224 634 1224 687 1224 c 0,3,4
 743 1224 743 1224 772.5 1198 c 128,-1,5
 802 1172 802 1172 802 1134 c 0,6,7
 802 1092 802 1092 772 1065 c 128,-1,8
 742 1038 742 1038 686 1038 c 0,9,10
 630 1038 630 1038 603 1064.5 c 128,-1,11
 576 1091 576 1091 576 1132 c 0,0,1
287 1132 m 0,12,13
 287 1170 287 1170 316.5 1197 c 128,-1,14
 346 1224 346 1224 398 1224 c 0,15,16
 454 1224 454 1224 483.5 1198 c 128,-1,17
 513 1172 513 1172 513 1134 c 0,18,19
 513 1092 513 1092 483.5 1065 c 128,-1,20
 454 1038 454 1038 398 1038 c 128,-1,21
 342 1038 342 1038 314.5 1065 c 128,-1,22
 287 1092 287 1092 287 1132 c 0,12,13
342 523 m 0,23,24
 342 472 342 472 348 419.5 c 128,-1,25
 354 367 354 367 369.5 312.5 c 128,-1,26
 385 258 385 258 408 216 c 128,-1,27
 431 174 431 174 468.5 147.5 c 128,-1,28
 506 121 506 121 550 121 c 0,29,30
 648 121 648 121 689.5 207.5 c 128,-1,31
 731 294 731 294 731 453 c 0,32,33
 731 520 731 520 719 585 c 128,-1,34
 707 650 707 650 682.5 707.5 c 128,-1,35
 658 765 658 765 616 800.5 c 128,-1,36
 574 836 574 836 521 836 c 0,37,38
 470 836 470 836 434 813 c 128,-1,39
 398 790 398 790 378.5 746 c 128,-1,40
 359 702 359 702 350.5 647.5 c 128,-1,41
 342 593 342 593 342 523 c 0,23,24
36 464 m 0,42,43
 36 576 36 576 72.5 670 c 128,-1,44
 109 764 109 764 175 830.5 c 128,-1,45
 241 897 241 897 338.5 934.5 c 128,-1,46
 436 972 436 972 556 972 c 0,47,48
 782 972 782 972 915 842 c 128,-1,49
 1048 712 1048 712 1048 481 c 0,50,51
 1048 331 1048 331 981 215.5 c 128,-1,52
 914 100 914 100 791 36.5 c 128,-1,53
 668 -27 668 -27 510 -27 c 0,54,55
 397 -27 397 -27 307 10 c 128,-1,56
 217 47 217 47 158 112.5 c 128,-1,57
 99 178 99 178 67.5 268 c 128,-1,58
 36 358 36 358 36 464 c 0,42,43
EndSplineSet
EndChar

StartChar: ograve
Encoding: 242 242 143
Width: 1084
VWidth: 0
Flags: MW
LayerCount: 2
Fore
SplineSet
253 1352 m 1,0,-1
 485 1376 l 1,1,-1
 624 1057 l 1,2,-1
 479 1027 l 1,3,-1
 253 1352 l 1,0,-1
342 523 m 0,4,5
 342 472 342 472 348 419.5 c 128,-1,6
 354 367 354 367 369.5 312.5 c 128,-1,7
 385 258 385 258 408 216 c 128,-1,8
 431 174 431 174 468.5 147.5 c 128,-1,9
 506 121 506 121 550 121 c 0,10,11
 648 121 648 121 689.5 207.5 c 128,-1,12
 731 294 731 294 731 453 c 0,13,14
 731 520 731 520 719 585 c 128,-1,15
 707 650 707 650 682.5 707.5 c 128,-1,16
 658 765 658 765 616 800.5 c 128,-1,17
 574 836 574 836 521 836 c 0,18,19
 470 836 470 836 434 813 c 128,-1,20
 398 790 398 790 378.5 746 c 128,-1,21
 359 702 359 702 350.5 647.5 c 128,-1,22
 342 593 342 593 342 523 c 0,4,5
36 464 m 0,23,24
 36 576 36 576 72.5 670 c 128,-1,25
 109 764 109 764 175 830.5 c 128,-1,26
 241 897 241 897 338.5 934.5 c 128,-1,27
 436 972 436 972 556 972 c 0,28,29
 782 972 782 972 915 842 c 128,-1,30
 1048 712 1048 712 1048 481 c 0,31,32
 1048 331 1048 331 981 215.5 c 128,-1,33
 914 100 914 100 791 36.5 c 128,-1,34
 668 -27 668 -27 510 -27 c 0,35,36
 397 -27 397 -27 307 10 c 128,-1,37
 217 47 217 47 158 112.5 c 128,-1,38
 99 178 99 178 67.5 268 c 128,-1,39
 36 358 36 358 36 464 c 0,23,24
EndSplineSet
EndChar

StartChar: one
Encoding: 49 49 144
Width: 739
VWidth: 0
Flags: MW
LayerCount: 2
Fore
SplineSet
40 -2 m 1,0,-1
 53 99 l 1,1,-1
 247 156 l 1,2,-1
 247 774 l 1,3,-1
 62 775 l 1,4,-1
 73 897 l 1,5,-1
 453 986 l 1,6,-1
 512 986 l 1,7,-1
 512 146 l 1,8,-1
 716 106 l 1,9,-1
 704 -2 l 1,10,-1
 40 -2 l 1,0,-1
EndSplineSet
EndChar

StartChar: onehalf
Encoding: 189 189 145
Width: 1713
VWidth: 0
Flags: MW
LayerCount: 2
Fore
SplineSet
253 12 m 1,0,-1
 735 588 l 1,1,-1
 1201 1208 l 1,2,-1
 1441 1206 l 1,3,-1
 1439 1154 l 1,4,-1
 969 591 l 1,5,-1
 537 -26 l 1,6,-1
 253 12 l 1,0,-1
45 530 m 1,7,-1
 55 632 l 1,8,-1
 195 662 l 1,9,-1
 195 1098 l 1,10,-1
 62 1098 l 1,11,-1
 69 1220 l 1,12,-1
 409 1260 l 1,13,-1
 453 1260 l 1,14,-1
 453 656 l 1,15,-1
 598 640 l 1,16,-1
 591 530 l 1,17,-1
 45 530 l 1,7,-1
1049 114 m 1,18,-1
 1185 216 l 2,19,20
 1275 284 1275 284 1324 350 c 128,-1,21
 1373 416 1373 416 1373 466 c 0,22,23
 1373 571 1373 571 1283 571 c 0,24,25
 1238 571 1238 571 1207 536 c 1,26,-1
 1177 386 l 1,27,-1
 1088 393 l 1,28,-1
 1059 592 l 1,29,30
 1102 645 1102 645 1187.5 676.5 c 128,-1,31
 1273 708 1273 708 1367 708 c 0,32,33
 1497 708 1497 708 1567 653.5 c 128,-1,34
 1637 599 1637 599 1637 520 c 0,35,36
 1637 465 1637 465 1611 414.5 c 128,-1,37
 1585 364 1585 364 1537.5 320.5 c 128,-1,38
 1490 277 1490 277 1443.5 245.5 c 128,-1,39
 1397 214 1397 214 1336 180 c 1,40,-1
 1263 141 l 1,41,-1
 1498 131 l 1,42,-1
 1581 268 l 1,43,-1
 1665 254 l 1,44,-1
 1639 -29 l 1,45,-1
 1053 -29 l 1,46,-1
 1049 114 l 1,18,-1
EndSplineSet
EndChar

StartChar: onequarter
Encoding: 188 188 146
Width: 1652
VWidth: 0
Flags: MW
LayerCount: 2
Fore
SplineSet
263 12 m 1,0,-1
 745 588 l 1,1,-1
 1211 1208 l 1,2,-1
 1451 1206 l 1,3,-1
 1449 1154 l 1,4,-1
 979 591 l 1,5,-1
 547 -26 l 1,6,-1
 263 12 l 1,0,-1
45 530 m 1,7,-1
 55 632 l 1,8,-1
 195 662 l 1,9,-1
 195 1098 l 1,10,-1
 62 1098 l 1,11,-1
 69 1220 l 1,12,-1
 409 1260 l 1,13,-1
 453 1260 l 1,14,-1
 453 656 l 1,15,-1
 598 640 l 1,16,-1
 591 530 l 1,17,-1
 45 530 l 1,7,-1
1088 274 m 1,18,-1
 1245 274 l 1,19,-1
 1245 474 l 1,20,-1
 1088 274 l 1,18,-1
933 282 m 1,21,-1
 1387 722 l 1,22,-1
 1471 704 l 1,23,24
 1461 576 1461 576 1461 428 c 2,25,-1
 1461 293 l 1,26,-1
 1609 293 l 1,27,-1
 1600 160 l 1,28,-1
 1461 160 l 1,29,-1
 1461 73 l 1,30,-1
 1571 50 l 1,31,-1
 1565 -30 l 1,32,-1
 1115 -30 l 1,33,-1
 1119 44 l 1,34,-1
 1237 74 l 1,35,-1
 1237 163 l 1,36,-1
 947 163 l 1,37,-1
 933 282 l 1,21,-1
EndSplineSet
EndChar

StartChar: one.superior
Encoding: 185 185 147
Width: 654
VWidth: 0
Flags: MW
LayerCount: 2
Fore
SplineSet
51 530 m 1,0,-1
 60 632 l 1,1,-1
 201 662 l 1,2,-1
 201 1098 l 1,3,-1
 67 1098 l 1,4,-1
 75 1220 l 1,5,-1
 415 1260 l 1,6,-1
 459 1260 l 1,7,-1
 459 656 l 1,8,-1
 603 640 l 1,9,-1
 597 530 l 1,10,-1
 51 530 l 1,0,-1
EndSplineSet
EndChar

StartChar: ordfeminine
Encoding: 170 170 148
Width: 799
VWidth: 0
Flags: MW
LayerCount: 2
Fore
SplineSet
264 733 m 0,0,1
 264 702 264 702 281 680.5 c 128,-1,2
 298 659 298 659 334 659 c 0,3,4
 353 659 353 659 370 666.5 c 128,-1,5
 387 674 387 674 395 681 c 128,-1,6
 403 688 403 688 421 704 c 1,7,-1
 421 854 l 1,8,9
 333 841 333 841 298.5 810.5 c 128,-1,10
 264 780 264 780 264 733 c 0,0,1
51 672 m 0,11,12
 51 722 51 722 73 768 c 128,-1,13
 95 814 95 814 138 852 c 128,-1,14
 181 890 181 890 254 912 c 128,-1,15
 327 934 327 934 421 934 c 1,16,-1
 421 989 l 2,17,18
 421 1151 421 1151 320 1151 c 0,19,20
 281 1151 281 1151 267.5 1115.5 c 128,-1,21
 254 1080 254 1080 245 973 c 1,22,23
 172 970 172 970 125.5 997 c 128,-1,24
 79 1024 79 1024 79 1086 c 0,25,26
 79 1129 79 1129 131.5 1172.5 c 128,-1,27
 184 1216 184 1216 261.5 1242.5 c 128,-1,28
 339 1269 339 1269 409 1269 c 0,29,30
 633 1269 633 1269 633 1024 c 2,31,-1
 633 787 l 2,32,33
 633 724 633 724 649.5 699 c 128,-1,34
 666 674 666 674 719 664 c 2,35,-1
 752 658 l 1,36,-1
 736 559 l 1,37,38
 702 534 702 534 671 523.5 c 128,-1,39
 640 513 640 513 594 513 c 0,40,41
 467 513 467 513 445 614 c 1,42,-1
 443 625 l 1,43,-1
 434 627 l 1,44,45
 414 582 414 582 357.5 546.5 c 128,-1,46
 301 511 301 511 223 511 c 0,47,48
 146 511 146 511 98.5 552.5 c 128,-1,49
 51 594 51 594 51 672 c 0,11,12
EndSplineSet
EndChar

StartChar: ordmasculine
Encoding: 186 186 149
Width: 849
VWidth: 0
Flags: MW
LayerCount: 2
Fore
SplineSet
280 942 m 0,0,1
 280 870 280 870 287.5 816.5 c 128,-1,2
 295 763 295 763 313 718.5 c 128,-1,3
 331 674 331 674 365 650.5 c 128,-1,4
 399 627 399 627 447 627 c 0,5,6
 513 627 513 627 539.5 676 c 128,-1,7
 566 725 566 725 566 818 c 0,8,9
 566 870 566 870 563 911.5 c 128,-1,10
 560 953 560 953 550 999 c 128,-1,11
 540 1045 540 1045 523.5 1076 c 128,-1,12
 507 1107 507 1107 477 1127.5 c 128,-1,13
 447 1148 447 1148 406 1148 c 0,14,15
 334 1148 334 1148 307 1094.5 c 128,-1,16
 280 1041 280 1041 280 942 c 0,0,1
51 888 m 0,17,18
 51 976 51 976 85.5 1050.5 c 128,-1,19
 120 1125 120 1125 176 1173 c 128,-1,20
 232 1221 232 1221 300.5 1247.5 c 128,-1,21
 369 1274 369 1274 439 1274 c 0,22,23
 608 1274 608 1274 702.5 1176.5 c 128,-1,24
 797 1079 797 1079 797 904 c 0,25,26
 797 728 797 728 690.5 619 c 128,-1,27
 584 510 584 510 420 510 c 0,28,29
 326 510 326 510 253.5 540.5 c 128,-1,30
 181 571 181 571 137.5 624 c 128,-1,31
 94 677 94 677 72.5 743.5 c 128,-1,32
 51 810 51 810 51 888 c 0,17,18
EndSplineSet
EndChar

StartChar: oslash
Encoding: 248 248 150
Width: 1080
VWidth: 0
Flags: MW
LayerCount: 2
Fore
SplineSet
50 464 m 0,0,1
 50 576 50 576 86 670 c 128,-1,2
 122 764 122 764 188 830.5 c 128,-1,3
 254 897 254 897 351 934.5 c 128,-1,4
 448 972 448 972 568 972 c 0,5,6
 737 972 737 972 856 898 c 1,7,-1
 920 956 l 1,8,-1
 1090 927 l 1,9,-1
 963 802 l 1,10,11
 1060 676 1060 676 1060 481 c 0,12,13
 1060 331 1060 331 993.5 215.5 c 128,-1,14
 927 100 927 100 804.5 36.5 c 128,-1,15
 682 -27 682 -27 524 -27 c 0,16,17
 373 -27 373 -27 263 38 c 1,18,-1
 204 -20 l 1,19,-1
 28 10 l 1,20,-1
 152 135 l 1,21,22
 50 265 50 265 50 464 c 0,0,1
411 237 m 1,23,24
 466 121 466 121 562 121 c 0,25,26
 660 121 660 121 702 207.5 c 128,-1,27
 744 294 744 294 744 453 c 0,28,29
 744 525 744 525 730 594 c 1,30,-1
 411 237 l 1,23,24
379 326 m 1,31,-1
 703 689 l 1,32,33
 645 836 645 836 534 836 c 0,34,35
 483 836 483 836 447 813 c 128,-1,36
 411 790 411 790 391.5 746 c 128,-1,37
 372 702 372 702 363 647.5 c 128,-1,38
 354 593 354 593 354 523 c 0,39,40
 354 419 354 419 379 326 c 1,31,-1
EndSplineSet
EndChar

StartChar: otilde
Encoding: 245 245 151
Width: 1084
VWidth: 0
Flags: MW
LayerCount: 2
Fore
SplineSet
264 1047 m 1,0,1
 267 1153 267 1153 327.5 1211.5 c 128,-1,2
 388 1270 388 1270 484 1246 c 1,3,-1
 632 1221 l 1,4,5
 673 1210 673 1210 700.5 1224 c 128,-1,6
 728 1238 728 1238 736 1266 c 1,7,-1
 818 1260 l 1,8,9
 815 1211 815 1211 800 1169.5 c 128,-1,10
 785 1128 785 1128 757.5 1098 c 128,-1,11
 730 1068 730 1068 690.5 1057 c 128,-1,12
 651 1046 651 1046 599 1058 c 1,13,-1
 454 1084 l 1,14,15
 368 1107 368 1107 342 1037 c 1,16,-1
 264 1047 l 1,0,1
342 523 m 0,17,18
 342 472 342 472 348 419.5 c 128,-1,19
 354 367 354 367 369.5 312.5 c 128,-1,20
 385 258 385 258 408 216 c 128,-1,21
 431 174 431 174 468.5 147.5 c 128,-1,22
 506 121 506 121 550 121 c 0,23,24
 648 121 648 121 689.5 207.5 c 128,-1,25
 731 294 731 294 731 453 c 0,26,27
 731 520 731 520 719 585 c 128,-1,28
 707 650 707 650 682.5 707.5 c 128,-1,29
 658 765 658 765 616 800.5 c 128,-1,30
 574 836 574 836 521 836 c 0,31,32
 470 836 470 836 434 813 c 128,-1,33
 398 790 398 790 378.5 746 c 128,-1,34
 359 702 359 702 350.5 647.5 c 128,-1,35
 342 593 342 593 342 523 c 0,17,18
36 464 m 0,36,37
 36 576 36 576 72.5 670 c 128,-1,38
 109 764 109 764 175 830.5 c 128,-1,39
 241 897 241 897 338.5 934.5 c 128,-1,40
 436 972 436 972 556 972 c 0,41,42
 782 972 782 972 915 842 c 128,-1,43
 1048 712 1048 712 1048 481 c 0,44,45
 1048 331 1048 331 981 215.5 c 128,-1,46
 914 100 914 100 791 36.5 c 128,-1,47
 668 -27 668 -27 510 -27 c 0,48,49
 397 -27 397 -27 307 10 c 128,-1,50
 217 47 217 47 158 112.5 c 128,-1,51
 99 178 99 178 67.5 268 c 128,-1,52
 36 358 36 358 36 464 c 0,36,37
EndSplineSet
EndChar

StartChar: p
Encoding: 112 112 152
Width: 1012
VWidth: 845
Flags: MW
LayerCount: 2
Fore
SplineSet
35 0 m 1,0,-1
 52 106 l 1,1,-1
 188 169 l 1,2,-1
 188 777 l 1,3,-1
 48 814 l 1,4,-1
 60 932 l 1,5,6
 159 945 159 945 213.5 952 c 128,-1,7
 268 959 268 959 360.5 965.5 c 128,-1,8
 453 972 453 972 540 972 c 0,9,10
 620 972 620 972 684.5 963.5 c 128,-1,11
 749 955 749 955 807 933 c 128,-1,12
 865 911 865 911 904 877 c 128,-1,13
 943 843 943 843 965.5 788.5 c 128,-1,14
 988 734 988 734 988 664 c 0,15,16
 988 548 988 548 925.5 463 c 128,-1,17
 863 378 863 378 758.5 338 c 128,-1,18
 654 298 654 298 526 308 c 1,19,-1
 500 427 l 1,20,-1
 538 428 l 2,21,22
 617 429 617 429 660.5 481.5 c 128,-1,23
 704 534 704 534 704 622 c 0,24,25
 704 713 704 713 655 767.5 c 128,-1,26
 606 822 606 822 510 822 c 0,27,28
 484 822 484 822 462 818 c 1,29,-1
 462 178 l 1,30,-1
 650 124 l 1,31,-1
 632 0 l 1,32,-1
 35 0 l 1,0,-1
EndSplineSet
EndChar

StartChar: paragraph
Encoding: 182 182 153
Width: 1381
VWidth: 0
Flags: MW
LayerCount: 2
Fore
SplineSet
952 0 m 1,0,-1
 952 954 l 1,1,-1
 1325 954 l 1,2,-1
 1310 840 l 1,3,-1
 1159 786 l 1,4,-1
 1159 163 l 1,5,-1
 1324 113 l 1,6,-1
 1312 0 l 1,7,-1
 952 0 l 1,0,-1
98 615 m 0,8,9
 98 722 98 722 157 799.5 c 128,-1,10
 216 877 216 877 318 915.5 c 128,-1,11
 420 954 420 954 554 954 c 2,12,-1
 874 954 l 1,13,-1
 874 0 l 1,14,-1
 430 0 l 1,15,-1
 440 105 l 1,16,-1
 654 168 l 1,17,-1
 654 822 l 1,18,19
 590 828 590 828 558 829 c 0,20,21
 514 829 514 829 478 820.5 c 128,-1,22
 442 812 442 812 411.5 792 c 128,-1,23
 381 772 381 772 364.5 736 c 128,-1,24
 348 700 348 700 348 650 c 0,25,26
 348 460 348 460 586 448 c 1,27,-1
 566 306 l 1,28,29
 335 306 335 306 216.5 386 c 128,-1,30
 98 466 98 466 98 615 c 0,8,9
EndSplineSet
EndChar

StartChar: parenleft
Encoding: 40 40 154
Width: 533
VWidth: 0
Flags: MW
LayerCount: 2
Fore
SplineSet
474 -298 m 1,0,-1
 374 -376 l 1,1,2
 372 -374 372 -374 366 -368 c 0,3,4
 343 -346 343 -346 326 -329 c 128,-1,5
 309 -312 309 -312 272 -267.5 c 128,-1,6
 235 -223 235 -223 207.5 -180 c 128,-1,7
 180 -137 180 -137 145.5 -68 c 128,-1,8
 111 1 111 1 89 72.5 c 128,-1,9
 67 144 67 144 51.5 240 c 128,-1,10
 36 336 36 336 36 436 c 0,11,12
 36 544 36 544 52 643.5 c 128,-1,13
 68 743 68 743 91 817.5 c 128,-1,14
 114 892 114 892 149 961 c 128,-1,15
 184 1030 184 1030 213.5 1074 c 128,-1,16
 243 1118 243 1118 279.5 1160 c 128,-1,17
 316 1202 316 1202 334.5 1219.5 c 128,-1,18
 353 1237 353 1237 374 1255 c 1,19,-1
 464 1160 l 1,20,21
 434 1121 434 1121 411 1084 c 128,-1,22
 388 1047 388 1047 362 985 c 128,-1,23
 336 923 336 923 319 853 c 128,-1,24
 302 783 302 783 291 679.5 c 128,-1,25
 280 576 280 576 280 454 c 0,26,27
 280 2 280 2 474 -298 c 1,0,-1
EndSplineSet
EndChar

StartChar: parenright
Encoding: 41 41 155
Width: 522
VWidth: 0
Flags: MW
LayerCount: 2
Fore
SplineSet
34 -298 m 1,0,1
 228 2 228 2 228 454 c 0,2,3
 228 576 228 576 217 679.5 c 128,-1,4
 206 783 206 783 189 853 c 128,-1,5
 172 923 172 923 146 985 c 128,-1,6
 120 1047 120 1047 97 1083.5 c 128,-1,7
 74 1120 74 1120 44 1160 c 1,8,-1
 134 1255 l 1,9,10
 155 1237 155 1237 173.5 1219.5 c 128,-1,11
 192 1202 192 1202 228.5 1160 c 128,-1,12
 265 1118 265 1118 294.5 1074 c 128,-1,13
 324 1030 324 1030 359 961 c 128,-1,14
 394 892 394 892 417 817.5 c 128,-1,15
 440 743 440 743 456 643.5 c 128,-1,16
 472 544 472 544 472 436 c 0,17,18
 472 335 472 335 456.5 239.5 c 128,-1,19
 441 144 441 144 419 72.5 c 128,-1,20
 397 1 397 1 362.5 -68 c 128,-1,21
 328 -137 328 -137 300.5 -180 c 128,-1,22
 273 -223 273 -223 236 -267.5 c 128,-1,23
 199 -312 199 -312 182 -329 c 128,-1,24
 165 -346 165 -346 142 -368 c 0,25,26
 136 -374 136 -374 134 -376 c 1,27,-1
 34 -298 l 1,0,1
EndSplineSet
EndChar

StartChar: percent
Encoding: 37 37 156
Width: 1186
VWidth: 0
Flags: MW
LayerCount: 2
Fore
SplineSet
857 227 m 0,0,1
 856 58 856 58 930 58 c 0,2,3
 968 58 968 58 982.5 102 c 128,-1,4
 997 146 997 146 997 230 c 0,5,6
 997 312 997 312 980.5 363 c 128,-1,7
 964 414 964 414 930 414 c 0,8,9
 858 414 858 414 857 227 c 0,0,1
665 232 m 0,10,11
 665 338 665 338 750.5 416 c 128,-1,12
 836 494 836 494 930 494 c 0,13,14
 1032 494 1032 494 1107 418 c 128,-1,15
 1182 342 1182 342 1182 228 c 0,16,17
 1182 158 1182 158 1142.5 97 c 128,-1,18
 1103 36 1103 36 1045.5 2.5 c 128,-1,19
 988 -31 988 -31 930 -31 c 0,20,21
 822 -31 822 -31 743.5 41.5 c 128,-1,22
 665 114 665 114 665 232 c 0,10,11
87 11 m 1,23,-1
 502 478 l 1,24,-1
 811 876 l 1,25,-1
 441 874 l 1,26,27
 479 840 479 840 497 787 c 128,-1,28
 515 734 515 734 515 694 c 0,29,30
 515 622 515 622 475 559.5 c 128,-1,31
 435 497 435 497 376.5 462.5 c 128,-1,32
 318 428 318 428 260 428 c 0,33,34
 150 428 150 428 74 500 c 128,-1,35
 -2 572 -2 572 -2 694 c 0,36,37
 -2 758 -2 758 36.5 819.5 c 128,-1,38
 75 881 75 881 135.5 919 c 128,-1,39
 196 957 196 957 256 957 c 0,40,41
 268 956 268 956 278 954 c 1,42,-1
 286 868 l 1,43,44
 270 874 270 874 258 874 c 0,45,46
 190 874 190 874 190 694 c 0,47,48
 190 654 190 654 192.5 624 c 128,-1,49
 195 594 195 594 202.5 568 c 128,-1,50
 210 542 210 542 225 528 c 128,-1,51
 240 514 240 514 260 514 c 0,52,53
 281 514 281 514 295 527.5 c 128,-1,54
 309 541 309 541 316 567 c 128,-1,55
 323 593 323 593 326.5 623.5 c 128,-1,56
 330 654 330 654 330 694 c 0,57,58
 330 850 330 850 309 951 c 1,59,-1
 872 956 l 1,60,-1
 1084 954 l 1,61,-1
 1084 908 l 1,62,-1
 710 482 l 1,63,-1
 334 -22 l 1,64,-1
 87 11 l 1,23,-1
EndSplineSet
EndChar

StartChar: period
Encoding: 46 46 157
Width: 455
VWidth: 0
Flags: MW
LayerCount: 2
Fore
SplineSet
61 110 m 0,0,1
 61 163 61 163 103 202.5 c 128,-1,2
 145 242 145 242 225 242 c 0,3,4
 309 242 309 242 352 203 c 128,-1,5
 395 164 395 164 395 110 c 0,6,7
 395 49 395 49 352 10.5 c 128,-1,8
 309 -28 309 -28 225 -28 c 128,-1,9
 141 -28 141 -28 101 11.5 c 128,-1,10
 61 51 61 51 61 110 c 0,0,1
EndSplineSet
EndChar

StartChar: periodcentered
Encoding: 183 183 158
Width: 473
VWidth: 0
Flags: MW
LayerCount: 2
Fore
SplineSet
100 504 m 0,0,1
 100 558 100 558 142 598 c 128,-1,2
 184 638 184 638 264 638 c 0,3,4
 348 638 348 638 391 599 c 128,-1,5
 434 560 434 560 434 506 c 0,6,7
 434 445 434 445 391 405.5 c 128,-1,8
 348 366 348 366 264 366 c 0,9,10
 180 366 180 366 140 405.5 c 128,-1,11
 100 445 100 445 100 504 c 0,0,1
EndSplineSet
EndChar

StartChar: plus
Encoding: 43 43 159
Width: 702
VWidth: 0
Flags: MW
LayerCount: 2
Fore
SplineSet
52 392 m 1,0,-1
 62 526 l 1,1,-1
 276 526 l 1,2,-1
 276 764 l 1,3,-1
 425 752 l 1,4,-1
 425 526 l 1,5,-1
 648 526 l 1,6,-1
 635 392 l 1,7,-1
 425 392 l 1,8,-1
 426 158 l 1,9,-1
 276 166 l 1,10,-1
 276 392 l 1,11,-1
 52 392 l 1,0,-1
EndSplineSet
EndChar

StartChar: plusminus
Encoding: 177 177 160
Width: 689
VWidth: 0
Flags: MW
LayerCount: 2
Fore
SplineSet
72 552 m 1,0,-1
 82 686 l 1,1,-1
 296 686 l 1,2,-1
 296 924 l 1,3,-1
 445 912 l 1,4,-1
 445 686 l 1,5,-1
 668 686 l 1,6,-1
 655 552 l 1,7,-1
 445 552 l 1,8,-1
 446 318 l 1,9,-1
 296 326 l 1,10,-1
 296 552 l 1,11,-1
 72 552 l 1,0,-1
121 138 m 1,12,-1
 135 276 l 1,13,-1
 629 297 l 1,14,-1
 615 154 l 1,15,-1
 121 138 l 1,12,-1
EndSplineSet
EndChar

StartChar: q
Encoding: 113 113 161
Width: 1073
VWidth: 845
Flags: MW
LayerCount: 2
Fore
SplineSet
335 527 m 0,0,1
 335 414 335 414 361 323.5 c 128,-1,2
 387 233 387 233 442.5 173.5 c 128,-1,3
 498 114 498 114 576 107 c 1,4,5
 661 146 661 146 695 232 c 128,-1,6
 729 318 729 318 729 450 c 0,7,8
 729 515 729 515 715.5 581 c 128,-1,9
 702 647 702 647 676 705.5 c 128,-1,10
 650 764 650 764 606.5 801 c 128,-1,11
 563 838 563 838 510 838 c 0,12,13
 425 838 425 838 380 756 c 128,-1,14
 335 674 335 674 335 527 c 0,0,1
36 470 m 0,15,16
 36 578 36 578 74.5 671.5 c 128,-1,17
 113 765 113 765 181 831 c 128,-1,18
 249 897 249 897 347.5 934.5 c 128,-1,19
 446 972 446 972 562 972 c 0,20,21
 782 972 782 972 909 847 c 128,-1,22
 1036 722 1036 722 1036 502 c 0,23,24
 1036 317 1036 317 936.5 177.5 c 128,-1,25
 837 38 837 38 678 -5 c 1,26,27
 714 -88 714 -88 793 -138 c 128,-1,28
 872 -188 872 -188 982 -192 c 1,29,30
 982 -201 982 -201 975 -241 c 128,-1,31
 968 -281 968 -281 966 -288 c 1,32,33
 877 -336 877 -336 781 -336 c 0,34,35
 653 -336 653 -336 578.5 -250 c 128,-1,36
 504 -164 504 -164 523 -28 c 1,37,38
 409 -30 409 -30 316.5 7 c 128,-1,39
 224 44 224 44 163 111 c 128,-1,40
 102 178 102 178 69 269.5 c 128,-1,41
 36 361 36 361 36 470 c 0,15,16
EndSplineSet
EndChar

StartChar: question
Encoding: 63 63 162
Width: 690
VWidth: 0
Flags: MW
LayerCount: 2
Fore
SplineSet
140 110 m 0,0,1
 140 165 140 165 183 205 c 128,-1,2
 226 245 226 245 306 245 c 0,3,4
 390 245 390 245 433.5 205 c 128,-1,5
 477 165 477 165 477 110 c 0,6,7
 477 48 477 48 434 8.5 c 128,-1,8
 391 -31 391 -31 306 -31 c 128,-1,9
 221 -31 221 -31 180.5 9.5 c 128,-1,10
 140 50 140 50 140 110 c 0,0,1
42 1142 m 0,11,12
 42 1202 42 1202 92 1245.5 c 128,-1,13
 142 1289 142 1289 255 1289 c 0,14,15
 346 1289 346 1289 436 1225 c 128,-1,16
 526 1161 526 1161 584 1054 c 128,-1,17
 642 947 642 947 642 833 c 0,18,19
 642 780 642 780 626 739.5 c 128,-1,20
 610 699 610 699 584.5 674 c 128,-1,21
 559 649 559 649 528.5 630 c 128,-1,22
 498 611 498 611 467.5 596 c 128,-1,23
 437 581 437 581 411.5 565.5 c 128,-1,24
 386 550 386 550 370 527 c 128,-1,25
 354 504 354 504 354 474 c 0,26,27
 354 437 354 437 367 394 c 1,28,-1
 249 370 l 1,29,30
 213 423 213 423 188.5 492 c 128,-1,31
 164 561 164 561 164 610 c 0,32,33
 164 664 164 664 196.5 700.5 c 128,-1,34
 229 737 229 737 275.5 757 c 128,-1,35
 322 777 322 777 368.5 796 c 128,-1,36
 415 815 415 815 447.5 847 c 128,-1,37
 480 879 480 879 480 926 c 0,38,39
 480 976 480 976 438 1011 c 128,-1,40
 396 1046 396 1046 350 1046 c 0,41,42
 293 1046 293 1046 234.5 1026 c 128,-1,43
 176 1006 176 1006 150 978 c 1,44,45
 111 989 111 989 76.5 1038.5 c 128,-1,46
 42 1088 42 1088 42 1142 c 0,11,12
EndSplineSet
EndChar

StartChar: questiondown
Encoding: 191 191 163
Width: 697
VWidth: 0
Flags: MW
LayerCount: 2
Fore
SplineSet
535 1148 m 0,0,1
 535 1093 535 1093 492 1053 c 128,-1,2
 449 1013 449 1013 369 1013 c 0,3,4
 285 1013 285 1013 241.5 1053 c 128,-1,5
 198 1093 198 1093 198 1148 c 0,6,7
 198 1210 198 1210 241 1249.5 c 128,-1,8
 284 1289 284 1289 369 1289 c 128,-1,9
 454 1289 454 1289 494.5 1248.5 c 128,-1,10
 535 1208 535 1208 535 1148 c 0,0,1
633 116 m 0,11,12
 633 56 633 56 583 12.5 c 128,-1,13
 533 -31 533 -31 420 -31 c 0,14,15
 329 -31 329 -31 239 33 c 128,-1,16
 149 97 149 97 91 204 c 128,-1,17
 33 311 33 311 33 425 c 0,18,19
 33 478 33 478 49 518.5 c 128,-1,20
 65 559 65 559 90.5 584 c 128,-1,21
 116 609 116 609 146.5 628 c 128,-1,22
 177 647 177 647 207.5 662 c 128,-1,23
 238 677 238 677 263.5 692.5 c 128,-1,24
 289 708 289 708 305 731 c 128,-1,25
 321 754 321 754 321 784 c 0,26,27
 321 821 321 821 308 864 c 1,28,-1
 426 888 l 1,29,30
 462 835 462 835 486.5 766 c 128,-1,31
 511 697 511 697 511 648 c 0,32,33
 511 594 511 594 478.5 557.5 c 128,-1,34
 446 521 446 521 399.5 501 c 128,-1,35
 353 481 353 481 306.5 462 c 128,-1,36
 260 443 260 443 227.5 411 c 128,-1,37
 195 379 195 379 195 332 c 0,38,39
 195 282 195 282 237 247 c 128,-1,40
 279 212 279 212 325 212 c 0,41,42
 382 212 382 212 440.5 232 c 128,-1,43
 499 252 499 252 525 280 c 1,44,45
 564 269 564 269 598.5 219.5 c 128,-1,46
 633 170 633 170 633 116 c 0,11,12
EndSplineSet
EndChar

StartChar: quotedbl
Encoding: 34 34 164
Width: 620
VWidth: 0
Flags: MW
LayerCount: 2
Fore
SplineSet
344 1302 m 1,0,-1
 592 1282 l 1,1,-1
 543 912 l 1,2,-1
 408 893 l 1,3,-1
 344 1302 l 1,0,-1
75 1302 m 1,4,-1
 322 1282 l 1,5,-1
 274 912 l 1,6,-1
 140 893 l 1,7,-1
 75 1302 l 1,4,-1
EndSplineSet
EndChar

StartChar: quotesinglbase
Encoding: 8218 8218 165
Width: 498
VWidth: 0
Flags: MW
LayerCount: 2
Fore
SplineSet
91 -252 m 1,0,1
 178 -227 178 -227 221 -177.5 c 128,-1,2
 264 -128 264 -128 264 -75 c 0,3,4
 264 -33 264 -33 235.5 -5 c 128,-1,5
 207 23 207 23 163 23 c 0,6,7
 141 23 141 23 121 16 c 1,8,9
 98 62 98 62 98 96 c 0,10,11
 98 167 98 167 145.5 207.5 c 128,-1,12
 193 248 193 248 260 248 c 0,13,14
 355 248 355 248 412 185.5 c 128,-1,15
 469 123 469 123 469 11 c 0,16,17
 469 -41 469 -41 452 -92 c 128,-1,18
 435 -143 435 -143 398 -194 c 128,-1,19
 361 -245 361 -245 290.5 -285.5 c 128,-1,20
 220 -326 220 -326 124 -345 c 1,21,-1
 91 -252 l 1,0,1
EndSplineSet
EndChar

StartChar: quotesingle
Encoding: 39 39 166
Width: 351
VWidth: 0
Flags: MW
LayerCount: 2
Fore
SplineSet
50 1302 m 1,0,-1
 297 1282 l 1,1,-1
 248 912 l 1,2,-1
 114 893 l 1,3,-1
 50 1302 l 1,0,-1
EndSplineSet
EndChar

StartChar: r
Encoding: 114 114 167
Width: 1189
VWidth: 845
Flags: MW
LayerCount: 2
Fore
SplineSet
468 486 m 1,0,-1
 645 486 l 1,1,2
 683 506 683 506 705.5 549 c 128,-1,3
 728 592 728 592 728 655 c 0,4,5
 728 735 728 735 673.5 787.5 c 128,-1,6
 619 840 619 840 526 840 c 0,7,8
 501 840 501 840 468 837 c 1,9,-1
 468 486 l 1,0,-1
35 0 m 1,10,-1
 50 106 l 1,11,-1
 194 169 l 1,12,-1
 194 766 l 1,13,-1
 47 804 l 1,14,-1
 58 923 l 1,15,16
 310 972 310 972 550 972 c 0,17,18
 1014 972 1014 972 1013 697 c 0,19,20
 1013 601 1013 601 956 529.5 c 128,-1,21
 899 458 899 458 814 424 c 1,22,-1
 814 422 l 1,23,-1
 892 326 l 1,24,25
 969 238 969 238 1027.5 188 c 128,-1,26
 1086 138 1086 138 1148 118 c 1,27,-1
 1180 106 l 1,28,-1
 1156 6 l 1,29,30
 1088 -18 1088 -18 984 -18 c 0,31,32
 756 -18 756 -18 630 273 c 1,33,-1
 594 360 l 1,34,-1
 468 360 l 1,35,-1
 468 168 l 1,36,-1
 608 119 l 1,37,-1
 597 0 l 1,38,-1
 35 0 l 1,10,-1
EndSplineSet
EndChar

StartChar: registered
Encoding: 174 174 168
Width: 1147
VWidth: 0
Flags: MW
LayerCount: 2
Fore
SplineSet
158 1036 m 0,0,1
 158 845 158 845 270 735.5 c 128,-1,2
 382 626 382 626 562 626 c 0,3,4
 751 626 751 626 868.5 734 c 128,-1,5
 986 842 986 842 986 1016 c 0,6,7
 986 1209 986 1209 866 1322.5 c 128,-1,8
 746 1436 746 1436 564 1436 c 0,9,10
 374 1436 374 1436 266 1333 c 128,-1,11
 158 1230 158 1230 158 1036 c 0,0,1
45 1022 m 0,12,13
 45 1147 45 1147 88 1246 c 128,-1,14
 131 1345 131 1345 204.5 1406.5 c 128,-1,15
 278 1468 278 1468 369.5 1500 c 128,-1,16
 461 1532 461 1532 564 1532 c 0,17,18
 670 1532 670 1532 764.5 1501.5 c 128,-1,19
 859 1471 859 1471 934.5 1411.5 c 128,-1,20
 1010 1352 1010 1352 1054.5 1252.5 c 128,-1,21
 1099 1153 1099 1153 1099 1026 c 0,22,23
 1099 906 1099 906 1054 810 c 128,-1,24
 1009 714 1009 714 932 654 c 128,-1,25
 855 594 855 594 758.5 562 c 128,-1,26
 662 530 662 530 554 530 c 0,27,28
 454 530 454 530 363.5 561.5 c 128,-1,29
 273 593 273 593 201.5 652.5 c 128,-1,30
 130 712 130 712 87.5 807.5 c 128,-1,31
 45 903 45 903 45 1022 c 0,12,13
510 1071 m 1,32,-1
 579 1071 l 1,33,34
 636 1099 636 1099 636 1165 c 0,35,36
 636 1210 636 1210 609.5 1237 c 128,-1,37
 583 1264 583 1264 533 1264 c 0,38,39
 527 1264 527 1264 519 1263.5 c 128,-1,40
 511 1263 511 1263 510 1263 c 1,41,-1
 510 1071 l 1,32,-1
268 775 m 1,42,-1
 275 830 l 1,43,-1
 353 862 l 1,44,-1
 353 1235 l 1,45,-1
 274 1254 l 1,46,-1
 280 1317 l 1,47,48
 423 1339 423 1339 546 1339 c 0,49,50
 674 1339 674 1339 739.5 1304 c 128,-1,51
 805 1269 805 1269 805 1187 c 0,52,53
 805 1134 805 1134 766.5 1092.5 c 128,-1,54
 728 1051 728 1051 679 1034 c 1,55,-1
 678 1033 l 1,56,-1
 737 956 l 1,57,58
 790 884 790 884 873 841 c 2,59,-1
 890 832 l 1,60,-1
 877 775 l 1,61,62
 839 763 839 763 788 763 c 0,63,64
 651 763 651 763 586 918 c 1,65,-1
 555 990 l 1,66,-1
 510 990 l 1,67,-1
 510 866 l 1,68,-1
 574 836 l 1,69,-1
 569 775 l 1,70,-1
 268 775 l 1,42,-1
EndSplineSet
EndChar

StartChar: ring
Encoding: 730 730 169
Width: 595
VWidth: 0
Flags: MW
LayerCount: 2
Fore
SplineSet
218 1506 m 0,0,1
 218 1466 218 1466 240.5 1439.5 c 128,-1,2
 263 1413 263 1413 300 1413 c 0,3,4
 333 1413 333 1413 354.5 1435.5 c 128,-1,5
 376 1458 376 1458 376 1498 c 0,6,7
 376 1536 376 1536 352 1563.5 c 128,-1,8
 328 1591 328 1591 292 1591 c 0,9,10
 260 1591 260 1591 239 1566 c 128,-1,11
 218 1541 218 1541 218 1506 c 0,0,1
78 1498 m 0,12,13
 78 1571 78 1571 137.5 1620.5 c 128,-1,14
 197 1670 197 1670 303 1670 c 0,15,16
 412 1670 412 1670 468 1626 c 128,-1,17
 524 1582 524 1582 524 1506 c 0,18,19
 524 1434 524 1434 464 1384 c 128,-1,20
 404 1334 404 1334 292 1334 c 0,21,22
 184 1334 184 1334 131 1377 c 128,-1,23
 78 1420 78 1420 78 1498 c 0,12,13
EndSplineSet
EndChar

StartChar: s
Encoding: 115 115 170
Width: 801
VWidth: 845
Flags: MW
LayerCount: 2
Fore
SplineSet
35 52 m 1,0,-1
 68 338 l 1,1,-1
 208 317 l 1,2,-1
 238 168 l 1,3,4
 288 116 288 116 388 116 c 0,5,6
 437 116 437 116 475.5 140 c 128,-1,7
 514 164 514 164 514 202 c 0,8,9
 514 230 514 230 489 256 c 128,-1,10
 464 282 464 282 424 303.5 c 128,-1,11
 384 325 384 325 336 347.5 c 128,-1,12
 288 370 288 370 239.5 399 c 128,-1,13
 191 428 191 428 151 463 c 128,-1,14
 111 498 111 498 86 550.5 c 128,-1,15
 61 603 61 603 61 666 c 0,16,17
 61 805 61 805 168.5 888.5 c 128,-1,18
 276 972 276 972 430 972 c 0,19,20
 521 972 521 972 596.5 958 c 128,-1,21
 672 944 672 944 716 922 c 1,22,-1
 692 635 l 1,23,-1
 556 656 l 1,24,-1
 528 802 l 1,25,26
 512 822 512 822 478.5 836 c 128,-1,27
 445 850 445 850 408 850 c 0,28,29
 349 850 349 850 315.5 824 c 128,-1,30
 282 798 282 798 282 752 c 0,31,32
 282 720 282 720 302.5 692.5 c 128,-1,33
 323 665 323 665 357 644 c 128,-1,34
 391 623 391 623 435 600.5 c 128,-1,35
 479 578 479 578 524.5 557.5 c 128,-1,36
 570 537 570 537 613.5 508 c 128,-1,37
 657 479 657 479 691 448 c 128,-1,38
 725 417 725 417 746 371.5 c 128,-1,39
 767 326 767 326 767 273 c 0,40,41
 767 214 767 214 743 163.5 c 128,-1,42
 719 113 719 113 680.5 79 c 128,-1,43
 642 45 642 45 592.5 21.5 c 128,-1,44
 543 -2 543 -2 492.5 -13 c 128,-1,45
 442 -24 442 -24 394 -24 c 0,46,47
 266 -24 266 -24 170 -3.5 c 128,-1,48
 74 17 74 17 35 52 c 1,0,-1
EndSplineSet
EndChar

StartChar: section
Encoding: 167 167 171
Width: 971
VWidth: 0
Flags: MW
LayerCount: 2
Fore
SplineSet
78 912 m 0,0,1
 78 987 78 987 100.5 1047 c 128,-1,2
 123 1107 123 1107 162 1147.5 c 128,-1,3
 201 1188 201 1188 255.5 1215.5 c 128,-1,4
 310 1243 310 1243 372 1255.5 c 128,-1,5
 434 1268 434 1268 506 1268 c 0,6,7
 601 1268 601 1268 684.5 1244 c 128,-1,8
 768 1220 768 1220 820 1178 c 1,9,-1
 802 893 l 1,10,-1
 668 910 l 1,11,-1
 630 1079 l 1,12,13
 608 1105 608 1105 562 1128 c 128,-1,14
 516 1151 516 1151 470 1151 c 0,15,16
 405 1151 405 1151 363.5 1113 c 128,-1,17
 322 1075 322 1075 322 995 c 0,18,19
 322 953 322 953 346.5 917.5 c 128,-1,20
 371 882 371 882 411.5 857 c 128,-1,21
 452 832 452 832 504 807 c 128,-1,22
 556 782 556 782 610.5 760.5 c 128,-1,23
 665 739 665 739 718 709 c 128,-1,24
 771 679 771 679 813.5 645.5 c 128,-1,25
 856 612 856 612 884.5 563 c 128,-1,26
 913 514 913 514 918 453.5 c 128,-1,27
 923 393 923 393 900 310 c 1,28,-1
 438 536 l 2,29,30
 387 561 387 561 356 576.5 c 128,-1,31
 325 592 325 592 282 617 c 128,-1,32
 239 642 239 642 213.5 662 c 128,-1,33
 188 682 188 682 159 711 c 128,-1,34
 130 740 130 740 114.5 768.5 c 128,-1,35
 99 797 99 797 88.5 834 c 128,-1,36
 78 871 78 871 78 912 c 0,0,1
60 -234 m 1,37,-1
 76 56 l 1,38,-1
 221 31 l 1,39,-1
 264 -164 l 1,40,41
 287 -195 287 -195 344.5 -220.5 c 128,-1,42
 402 -246 402 -246 464 -246 c 0,43,44
 500 -246 500 -246 532 -236.5 c 128,-1,45
 564 -227 564 -227 592.5 -207.5 c 128,-1,46
 621 -188 621 -188 637.5 -154 c 128,-1,47
 654 -120 654 -120 654 -76 c 0,48,49
 654 -31 654 -31 625 6.5 c 128,-1,50
 596 44 596 44 549 70 c 128,-1,51
 502 96 502 96 443.5 125 c 128,-1,52
 385 154 385 154 326 181.5 c 128,-1,53
 267 209 267 209 213.5 248.5 c 128,-1,54
 160 288 160 288 123.5 336 c 128,-1,55
 87 384 87 384 73.5 453.5 c 128,-1,56
 60 523 60 523 80 610 c 1,57,-1
 454 424 l 2,58,59
 483 410 483 410 529 388.5 c 128,-1,60
 575 367 575 367 601 355 c 128,-1,61
 627 343 627 343 665.5 323 c 128,-1,62
 704 303 704 303 726 289.5 c 128,-1,63
 748 276 748 276 778 255.5 c 128,-1,64
 808 235 808 235 824.5 217 c 128,-1,65
 841 199 841 199 860 174.5 c 128,-1,66
 879 150 879 150 888 125 c 128,-1,67
 897 100 897 100 903.5 69 c 128,-1,68
 910 38 910 38 910 3 c 0,69,70
 910 -75 910 -75 879.5 -141.5 c 128,-1,71
 849 -208 849 -208 799.5 -252.5 c 128,-1,72
 750 -297 750 -297 686 -328.5 c 128,-1,73
 622 -360 622 -360 556 -374 c 128,-1,74
 490 -388 490 -388 426 -388 c 0,75,76
 321 -388 321 -388 215.5 -342 c 128,-1,77
 110 -296 110 -296 60 -234 c 1,37,-1
EndSplineSet
EndChar

StartChar: semicolon
Encoding: 59 59 172
Width: 449
VWidth: 0
Flags: MW
LayerCount: 2
Fore
SplineSet
84 -103 m 1,0,1
 162 -80 162 -80 201 -36 c 128,-1,2
 240 8 240 8 240 56 c 0,3,4
 240 94 240 94 214 119.5 c 128,-1,5
 188 145 188 145 149 145 c 0,6,7
 129 145 129 145 111 138 c 1,8,9
 90 179 90 179 90 210 c 0,10,11
 90 274 90 274 133 310.5 c 128,-1,12
 176 347 176 347 236 347 c 0,13,14
 322 347 322 347 373 291 c 128,-1,15
 424 235 424 235 424 134 c 0,16,17
 424 97 424 97 415.5 61 c 128,-1,18
 407 25 407 25 384.5 -14.5 c 128,-1,19
 362 -54 362 -54 328 -86 c 128,-1,20
 294 -118 294 -118 239 -145 c 128,-1,21
 184 -172 184 -172 114 -186 c 1,22,-1
 84 -103 l 1,0,1
84 755 m 0,23,24
 84 803 84 803 122 838.5 c 128,-1,25
 160 874 160 874 232 874 c 0,26,27
 307 874 307 874 346 838.5 c 128,-1,28
 385 803 385 803 385 755 c 0,29,30
 385 700 385 700 346 665.5 c 128,-1,31
 307 631 307 631 231.5 631 c 128,-1,32
 156 631 156 631 120 666.5 c 128,-1,33
 84 702 84 702 84 755 c 0,23,24
EndSplineSet
EndChar

StartChar: seven
Encoding: 55 55 173
Width: 816
VWidth: 0
Flags: MW
LayerCount: 2
Fore
SplineSet
32 592 m 1,0,-1
 78 969 l 1,1,-1
 786 969 l 1,2,-1
 792 834 l 1,3,4
 730 733 730 733 691.5 667.5 c 128,-1,5
 653 602 653 602 603 512 c 128,-1,6
 553 422 553 422 522 356 c 128,-1,7
 491 290 491 290 456 205.5 c 128,-1,8
 421 121 421 121 400 46 c 128,-1,9
 379 -29 379 -29 360.5 -116.5 c 128,-1,10
 342 -204 342 -204 334 -294 c 1,11,12
 266 -302 266 -302 258 -303 c 0,13,14
 182 -303 182 -303 141.5 -265.5 c 128,-1,15
 101 -228 101 -228 101 -158 c 0,16,17
 101 -100 101 -100 150 8 c 128,-1,18
 199 116 199 116 294 270.5 c 128,-1,19
 389 425 389 425 446.5 514 c 128,-1,20
 504 603 504 603 602 748 c 1,21,-1
 198 748 l 1,22,-1
 134 574 l 1,23,-1
 32 592 l 1,0,-1
EndSplineSet
EndChar

StartChar: six
Encoding: 54 54 174
Width: 921
VWidth: 0
Flags: MW
LayerCount: 2
Fore
SplineSet
328 396 m 0,0,1
 328 339 328 339 335.5 287 c 128,-1,2
 343 235 343 235 358 190 c 128,-1,3
 373 145 373 145 400.5 118.5 c 128,-1,4
 428 92 428 92 464 92 c 0,5,6
 524 92 524 92 562 154 c 128,-1,7
 600 216 600 216 600 339 c 0,8,9
 600 383 600 383 594.5 424 c 128,-1,10
 589 465 589 465 575 510 c 128,-1,11
 561 555 561 555 530.5 582 c 128,-1,12
 500 609 500 609 458 609 c 0,13,14
 418 609 418 609 386 589.5 c 128,-1,15
 354 570 354 570 335 542 c 1,16,17
 328 458 328 458 328 396 c 0,0,1
45 420 m 0,18,19
 45 562 45 562 102.5 703.5 c 128,-1,20
 160 845 160 845 252.5 953 c 128,-1,21
 345 1061 345 1061 458.5 1140 c 128,-1,22
 572 1219 572 1219 685 1252 c 1,23,-1
 736 1178 l 1,24,25
 656 1141 656 1141 587.5 1081.5 c 128,-1,26
 519 1022 519 1022 470 953 c 128,-1,27
 421 884 421 884 388 811 c 128,-1,28
 355 738 355 738 340 666 c 1,29,-1
 354 666 l 1,30,31
 396 714 396 714 453.5 739 c 128,-1,32
 511 764 511 764 573 764 c 0,33,34
 673 764 673 764 742.5 717 c 128,-1,35
 812 670 812 670 845 591 c 128,-1,36
 878 512 878 512 878 406 c 0,37,38
 878 309 878 309 841 227.5 c 128,-1,39
 804 146 804 146 743.5 92.5 c 128,-1,40
 683 39 683 39 607.5 9.5 c 128,-1,41
 532 -20 532 -20 453 -20 c 0,42,43
 351 -20 351 -20 271.5 15.5 c 128,-1,44
 192 51 192 51 143.5 112.5 c 128,-1,45
 95 174 95 174 70 252 c 128,-1,46
 45 330 45 330 45 420 c 0,18,19
EndSplineSet
EndChar

StartChar: slash
Encoding: 47 47 175
Width: 720
VWidth: 0
Flags: MW
LayerCount: 2
Fore
SplineSet
37 -368 m 1,0,-1
 499 1230 l 1,1,-1
 680 1244 l 1,2,-1
 214 -356 l 1,3,-1
 37 -368 l 1,0,-1
EndSplineSet
EndChar

StartChar: softhyphen
Encoding: 173 173 176
Width: 587
VWidth: 0
Flags: MW
LayerCount: 2
Fore
SplineSet
61 377 m 1,0,-1
 67 546 l 1,1,-1
 525 604 l 1,2,-1
 518 435 l 1,3,-1
 61 377 l 1,0,-1
EndSplineSet
EndChar

StartChar: sterling
Encoding: 163 163 178
Width: 1235
VWidth: 0
Flags: MW
LayerCount: 2
Fore
SplineSet
71 0 m 1,0,-1
 77 106 l 1,1,-1
 245 153 l 1,2,3
 284 230 284 230 284 356 c 2,4,-1
 284 398 l 1,5,-1
 108 389 l 1,6,-1
 119 512 l 1,7,-1
 289 522 l 1,8,-1
 292 618 l 2,9,10
 296 691 296 691 321 750 c 128,-1,11
 346 809 346 809 386.5 850 c 128,-1,12
 427 891 427 891 481.5 919 c 128,-1,13
 536 947 536 947 597 959.5 c 128,-1,14
 658 972 658 972 725 972 c 0,15,16
 887 972 887 972 968 918.5 c 128,-1,17
 1049 865 1049 865 1049 780 c 0,18,19
 1049 717 1049 717 988 676.5 c 128,-1,20
 927 636 927 636 849 636 c 1,21,22
 838 745 838 745 798.5 802.5 c 128,-1,23
 759 860 759 860 695 860 c 0,24,25
 656 860 656 860 630.5 851 c 128,-1,26
 605 842 605 842 588 824.5 c 128,-1,27
 571 807 571 807 562.5 773.5 c 128,-1,28
 554 740 554 740 551 699 c 128,-1,29
 548 658 548 658 548 596 c 2,30,-1
 548 534 l 1,31,-1
 794 544 l 1,32,-1
 784 422 l 1,33,-1
 545 408 l 1,34,-1
 545 389 l 2,35,36
 546 218 546 218 482 143 c 1,37,-1
 835 128 l 1,38,-1
 958 369 l 1,39,-1
 1081 338 l 1,40,-1
 1060 0 l 1,41,-1
 71 0 l 1,0,-1
EndSplineSet
EndChar

StartChar: t
Encoding: 116 116 179
Width: 1037
VWidth: 845
Flags: MW
LayerCount: 2
Fore
SplineSet
38 954 m 1,0,-1
 1001 954 l 1,1,-1
 970 606 l 1,2,-1
 831 629 l 1,3,-1
 780 822 l 1,4,-1
 655 822 l 1,5,-1
 655 161 l 1,6,-1
 808 116 l 1,7,-1
 794 0 l 1,8,-1
 230 0 l 1,9,-1
 240 107 l 1,10,-1
 378 165 l 1,11,-1
 378 822 l 1,12,-1
 240 822 l 1,13,-1
 174 602 l 1,14,-1
 43 622 l 1,15,-1
 38 954 l 1,0,-1
EndSplineSet
EndChar

StartChar: thorn
Encoding: 254 254 180
Width: 1001
VWidth: 845
Flags: MW
LayerCount: 2
Fore
SplineSet
56 842 m 1,0,-1
 72 954 l 1,1,-1
 621 954 l 1,2,-1
 608 856 l 1,3,-1
 476 809 l 1,4,-1
 476 771 l 1,5,6
 514 772 514 772 552 772 c 0,7,8
 624 772 624 772 681.5 764.5 c 128,-1,9
 739 757 739 757 791.5 737.5 c 128,-1,10
 844 718 844 718 879 688 c 128,-1,11
 914 658 914 658 934.5 610 c 128,-1,12
 955 562 955 562 955 500 c 0,13,14
 955 402 955 402 896.5 329.5 c 128,-1,15
 838 257 838 257 741 223.5 c 128,-1,16
 644 190 644 190 527 198 c 1,17,-1
 502 302 l 1,18,-1
 534 303 l 2,19,20
 604 306 604 306 644 351 c 128,-1,21
 684 396 684 396 684 472 c 0,22,23
 684 549 684 549 643.5 595.5 c 128,-1,24
 603 642 603 642 521 642 c 0,25,26
 500 642 500 642 476 639 c 1,27,-1
 476 148 l 1,28,-1
 611 105 l 1,29,-1
 600 0 l 1,30,-1
 61 0 l 1,31,-1
 70 108 l 1,32,-1
 196 171 l 1,33,-1
 196 784 l 1,34,-1
 56 842 l 1,0,-1
EndSplineSet
EndChar

StartChar: three
Encoding: 51 51 181
Width: 819
VWidth: 0
Flags: MW
LayerCount: 2
Fore
SplineSet
-7 -129 m 0,0,1
 -7 -82 -7 -82 32.5 -38.5 c 128,-1,2
 72 5 72 5 147 16 c 1,3,4
 155 -14 155 -14 169.5 -44.5 c 128,-1,5
 184 -75 184 -75 205.5 -108.5 c 128,-1,6
 227 -142 227 -142 259.5 -163 c 128,-1,7
 292 -184 292 -184 328 -184 c 0,8,9
 426 -184 426 -184 471.5 -131.5 c 128,-1,10
 517 -79 517 -79 517 10 c 0,11,12
 517 58 517 58 498 105.5 c 128,-1,13
 479 153 479 153 444 192 c 128,-1,14
 409 231 409 231 353 253.5 c 128,-1,15
 297 276 297 276 229 273 c 1,16,-1
 211 366 l 1,17,18
 338 405 338 405 411 481.5 c 128,-1,19
 484 558 484 558 484 662 c 0,20,21
 484 725 484 725 448.5 768.5 c 128,-1,22
 413 812 413 812 349 812 c 0,23,24
 204 812 204 812 134 641 c 1,25,-1
 44 698 l 1,26,27
 80 818 80 818 195 902.5 c 128,-1,28
 310 987 310 987 436 987 c 0,29,30
 569 987 569 987 656.5 914.5 c 128,-1,31
 744 842 744 842 744 717 c 0,32,33
 744 650 744 650 705.5 585 c 128,-1,34
 667 520 667 520 609.5 476 c 128,-1,35
 552 432 552 432 488 414 c 1,36,-1
 488 396 l 1,37,38
 559 390 559 390 615.5 361 c 128,-1,39
 672 332 672 332 706.5 288 c 128,-1,40
 741 244 741 244 759 192 c 128,-1,41
 777 140 777 140 777 84 c 0,42,43
 777 9 777 9 737.5 -62 c 128,-1,44
 698 -133 698 -133 632 -186 c 128,-1,45
 566 -239 566 -239 475 -270.5 c 128,-1,46
 384 -302 384 -302 286 -302 c 0,47,48
 151 -302 151 -302 72 -250.5 c 128,-1,49
 -7 -199 -7 -199 -7 -129 c 0,0,1
EndSplineSet
EndChar

StartChar: threequarters
Encoding: 190 190 182
Width: 1640
VWidth: 0
Flags: MW
LayerCount: 2
Fore
SplineSet
1076 274 m 1,0,-1
 1233 274 l 1,1,-1
 1233 474 l 1,2,-1
 1076 274 l 1,0,-1
921 282 m 1,3,-1
 1375 722 l 1,4,-1
 1459 704 l 1,5,6
 1449 576 1449 576 1449 428 c 2,7,-1
 1449 293 l 1,8,-1
 1597 293 l 1,9,-1
 1588 160 l 1,10,-1
 1449 160 l 1,11,-1
 1449 73 l 1,12,-1
 1559 50 l 1,13,-1
 1553 -30 l 1,14,-1
 1103 -30 l 1,15,-1
 1107 44 l 1,16,-1
 1225 74 l 1,17,-1
 1225 163 l 1,18,-1
 935 163 l 1,19,-1
 921 282 l 1,3,-1
257 12 m 1,20,-1
 739 588 l 1,21,-1
 1207 1208 l 1,22,-1
 1445 1206 l 1,23,-1
 1445 1154 l 1,24,-1
 973 591 l 1,25,-1
 541 -26 l 1,26,-1
 257 12 l 1,20,-1
49 532 m 1,27,-1
 87 770 l 1,28,-1
 203 762 l 1,29,-1
 213 634 l 1,30,31
 239 612 239 612 277 612 c 0,32,33
 327 612 327 612 358 640.5 c 128,-1,34
 389 669 389 669 389 718 c 0,35,36
 389 770 389 770 343.5 804.5 c 128,-1,37
 298 839 298 839 227 832 c 1,38,-1
 201 924 l 1,39,40
 268 938 268 938 317 971 c 128,-1,41
 366 1004 366 1004 366 1054 c 0,42,43
 366 1098 366 1098 340 1127.5 c 128,-1,44
 314 1157 314 1157 273 1157 c 0,45,46
 233 1157 233 1157 218 1146 c 1,47,-1
 190 992 l 1,48,-1
 79 998 l 1,49,-1
 54 1183 l 1,50,51
 80 1219 80 1219 165.5 1250.5 c 128,-1,52
 251 1282 251 1282 329 1282 c 0,53,54
 465 1282 465 1282 547 1243 c 128,-1,55
 629 1204 629 1204 629 1122 c 0,56,57
 629 1051 629 1051 565.5 1000 c 128,-1,58
 502 949 502 949 415 927 c 1,59,-1
 415 918 l 1,60,61
 547 916 547 916 606 872 c 128,-1,62
 665 828 665 828 667 743 c 0,63,64
 669 635 669 635 550 559.5 c 128,-1,65
 431 484 431 484 255 484 c 0,66,67
 113 484 113 484 49 532 c 1,27,-1
EndSplineSet
EndChar

StartChar: three.superior
Encoding: 179 179 183
Width: 724
VWidth: 0
Flags: MW
LayerCount: 2
Fore
SplineSet
54 545 m 1,0,-1
 92 783 l 1,1,-1
 208 775 l 1,2,-1
 218 647 l 1,3,4
 244 625 244 625 282 625 c 0,5,6
 332 625 332 625 363 653.5 c 128,-1,7
 394 682 394 682 394 732 c 0,8,9
 394 784 394 784 348.5 818 c 128,-1,10
 303 852 303 852 232 845 c 1,11,-1
 206 937 l 1,12,13
 273 951 273 951 322 984.5 c 128,-1,14
 371 1018 371 1018 371 1068 c 0,15,16
 371 1112 371 1112 345 1141 c 128,-1,17
 319 1170 319 1170 278 1170 c 0,18,19
 238 1170 238 1170 223 1159 c 1,20,-1
 195 1006 l 1,21,-1
 84 1011 l 1,22,-1
 59 1196 l 1,23,24
 85 1233 85 1233 170.5 1264.5 c 128,-1,25
 256 1296 256 1296 334 1296 c 0,26,27
 470 1296 470 1296 552 1257 c 128,-1,28
 634 1218 634 1218 634 1136 c 0,29,30
 634 1065 634 1065 570.5 1013.5 c 128,-1,31
 507 962 507 962 420 940 c 1,32,-1
 420 932 l 1,33,34
 552 930 552 930 611 886 c 128,-1,35
 670 842 670 842 672 756 c 0,36,37
 674 648 674 648 555 572.5 c 128,-1,38
 436 497 436 497 260 497 c 0,39,40
 118 497 118 497 54 545 c 1,0,-1
EndSplineSet
EndChar

StartChar: tilde
Encoding: 732 732 184
Width: 718
VWidth: 0
Flags: MW
LayerCount: 2
Fore
SplineSet
82 1350 m 1,0,1
 85 1456 85 1456 145.5 1514.5 c 128,-1,2
 206 1573 206 1573 302 1550 c 1,3,-1
 450 1524 l 1,4,5
 491 1513 491 1513 518.5 1527.5 c 128,-1,6
 546 1542 546 1542 554 1570 c 1,7,-1
 636 1563 l 1,8,9
 633 1514 633 1514 618 1472.5 c 128,-1,10
 603 1431 603 1431 575 1401.5 c 128,-1,11
 547 1372 547 1372 507.5 1361 c 128,-1,12
 468 1350 468 1350 416 1362 c 1,13,-1
 271 1388 l 1,14,15
 186 1410 186 1410 160 1340 c 1,16,-1
 82 1350 l 1,0,1
EndSplineSet
EndChar

StartChar: two
Encoding: 50 50 185
Width: 876
VWidth: 0
Flags: MW
LayerCount: 2
Back
SplineSet
393.879 1 m 1,0,-1
 89.3628 51 l 1,1,-1
 217.44 192.189 l 1,2,3
 238.359 208.099 238.359 208.099 308.578 267.674 c 0
 378.797 327.249 378.797 327.249 385.74 332.972 c 0,4,5
 446.206 383.687 446.206 383.687 494.834 434.719 c 0,6,7
 541.274 484.47 541.274 484.47 581.187 545.678 c 0,8,9
 620.851 606.505 620.851 606.505 633.002 669.176 c 1,10,11
 646.128 710.868 646.128 710.868 649.5 749.182 c 0,12,13
 653.403 793.511 653.403 793.511 644.385 828.034 c 1,14,15
 634.684 943.124 634.684 943.124 535.102 950.297 c 1,16,17
 452.18 957.883 452.18 957.883 386.994 855.227 c 1,18,19
 381.932 855.227 381.932 855.227 361.78 857.053 c 0
 341.627 858.879 341.627 858.879 330.429 859.015 c 0
 319.231 859.152 319.231 859.152 306.881 855.841 c 1,20,21
 290.81 870.106 290.81 870.106 288.177 877.327 c 0,22,23
 285.445 884.832 285.445 884.832 290.714 883.469 c 0,24,25
 299.53 881.185 299.53 881.185 313.777 874.591 c 1,26,27
 319.996 877.479 319.996 877.479 322.085 882.611 c 0
 324.174 887.744 324.174 887.744 323.564 892 c 0
 322.953 896.257 322.953 896.257 325.237 899.486 c 0
 327.521 902.716 327.521 902.716 334.331 902.716 c 1,28,29
 411.648 933.89 411.648 933.89 466.862 928.776 c 0,30,31
 521.807 923.685 521.807 923.685 551.88 882.801 c 1,32,33
 578.842 887.522 578.842 887.522 609.823 881.805 c 0,34,35
 639.218 876.381 639.218 876.381 667.881 859.039 c 1,36,37
 728.582 841.534 728.582 841.534 748.459 786.387 c 0,38,39
 768.364 731.161 768.364 731.161 755.098 651.169 c 0,40,41
 742.191 578.455 742.191 578.455 691.291 508.065 c 0,42,43
 647.196 447.088 647.196 447.088 583.187 386.394 c 0,44,45
 533.459 339.84 533.459 339.84 455.18 279.839 c 0,46,47
 362.565 208.847 362.565 208.847 339.913 190.013 c 2,48,-1
 260.665 121.611 l 1,49,-1
 677.864 121.611 l 1,50,-1
 775.13 278.991 l 1,51,-1
 836.993 269.953 l 1,52,-1
 393.879 1 l 1,0,-1
EndSplineSet
Fore
SplineSet
42 132 m 1,0,-1
 302 321 l 2,1,2
 408 399 408 399 454.5 484.5 c 128,-1,3
 501 570 501 570 501 650 c 0,4,5
 501 738 501 738 458.5 788 c 128,-1,6
 416 838 416 838 345 838 c 0,7,8
 285 838 285 838 232.5 783 c 128,-1,9
 180 728 180 728 159 650 c 1,10,-1
 64 709 l 1,11,12
 69 744 69 744 88 783.5 c 128,-1,13
 107 823 107 823 142 864 c 128,-1,14
 177 905 177 905 223 938 c 128,-1,15
 269 971 269 971 333.5 992 c 128,-1,16
 398 1013 398 1013 470 1014 c 0,17,18
 532 1014 532 1014 583.5 996 c 128,-1,19
 635 978 635 978 669.5 948.5 c 128,-1,20
 704 919 704 919 727.5 879.5 c 128,-1,21
 751 840 751 840 761.5 798.5 c 128,-1,22
 772 757 772 757 772 715 c 0,23,24
 772 653 772 653 745 589.5 c 128,-1,25
 718 526 718 526 670 467.5 c 128,-1,26
 622 409 622 409 564 357.5 c 128,-1,27
 506 306 506 306 436 258 c 1,28,-1
 314 178 l 1,29,-1
 640 178 l 1,30,-1
 737 338 l 1,31,-1
 840 327 l 1,32,-1
 790 0 l 1,33,-1
 61 0 l 1,34,-1
 42 132 l 1,0,-1
EndSplineSet
EndChar

StartChar: two.superior
Encoding: 178 178 186
Width: 725
VWidth: 0
Flags: MW
LayerCount: 2
Fore
SplineSet
53 672 m 1,0,-1
 189 775 l 2,1,2
 279 843 279 843 328 908.5 c 128,-1,3
 377 974 377 974 377 1024 c 0,4,5
 377 1129 377 1129 287 1129 c 0,6,7
 241 1129 241 1129 211 1095 c 1,8,-1
 181 944 l 1,9,-1
 92 952 l 1,10,-1
 63 1150 l 1,11,12
 106 1203 106 1203 191.5 1234.5 c 128,-1,13
 277 1266 277 1266 371 1266 c 0,14,15
 501 1266 501 1266 571 1211.5 c 128,-1,16
 641 1157 641 1157 641 1078 c 0,17,18
 641 1023 641 1023 615 972.5 c 128,-1,19
 589 922 589 922 541.5 878.5 c 128,-1,20
 494 835 494 835 447.5 803.5 c 128,-1,21
 401 772 401 772 340 738 c 1,22,-1
 267 700 l 1,23,-1
 502 690 l 1,24,-1
 585 826 l 1,25,-1
 669 813 l 1,26,-1
 643 530 l 1,27,-1
 57 530 l 1,28,-1
 53 672 l 1,0,-1
EndSplineSet
EndChar

StartChar: u
Encoding: 117 117 187
Width: 1189
VWidth: 845
Flags: MW
LayerCount: 2
Fore
SplineSet
40 842 m 1,0,-1
 60 954 l 1,1,-1
 602 954 l 1,2,-1
 586 842 l 1,3,-1
 469 789 l 1,4,-1
 469 353 l 2,5,6
 469 149 469 149 648 149 c 0,7,8
 735 149 735 149 780.5 191 c 128,-1,9
 826 233 826 233 826 332 c 2,10,-1
 828 784 l 1,11,-1
 698 842 l 1,12,-1
 714 954 l 1,13,-1
 1155 954 l 1,14,-1
 1141 842 l 1,15,-1
 1016 789 l 1,16,-1
 1011 362 l 1,17,18
 1008 159 1008 159 904 66 c 128,-1,19
 800 -27 800 -27 598 -27 c 0,20,21
 556 -27 556 -27 519.5 -24 c 128,-1,22
 483 -21 483 -21 439.5 -12 c 128,-1,23
 396 -3 396 -3 361.5 12 c 128,-1,24
 327 27 327 27 293 54 c 128,-1,25
 259 81 259 81 236.5 117 c 128,-1,26
 214 153 214 153 200 206 c 128,-1,27
 186 259 186 259 186 324 c 2,28,-1
 186 784 l 1,29,-1
 40 842 l 1,0,-1
EndSplineSet
EndChar

StartChar: uacute
Encoding: 250 250 188
Width: 1189
VWidth: 0
Flags: MW
LayerCount: 2
Fore
SplineSet
528 1059 m 1,0,-1
 662 1374 l 1,1,-1
 892 1349 l 1,2,-1
 670 1030 l 1,3,-1
 528 1059 l 1,0,-1
40 842 m 1,4,-1
 60 954 l 1,5,-1
 602 954 l 1,6,-1
 586 842 l 1,7,-1
 469 789 l 1,8,-1
 469 353 l 2,9,10
 469 149 469 149 648 149 c 0,11,12
 735 149 735 149 780.5 191 c 128,-1,13
 826 233 826 233 826 332 c 2,14,-1
 828 784 l 1,15,-1
 698 842 l 1,16,-1
 714 954 l 1,17,-1
 1155 954 l 1,18,-1
 1141 842 l 1,19,-1
 1016 789 l 1,20,-1
 1011 362 l 1,21,22
 1008 159 1008 159 904 66 c 128,-1,23
 800 -27 800 -27 598 -27 c 0,24,25
 556 -27 556 -27 519.5 -24 c 128,-1,26
 483 -21 483 -21 439.5 -12 c 128,-1,27
 396 -3 396 -3 361.5 12 c 128,-1,28
 327 27 327 27 293 54 c 128,-1,29
 259 81 259 81 236.5 117 c 128,-1,30
 214 153 214 153 200 206 c 128,-1,31
 186 259 186 259 186 324 c 2,32,-1
 186 784 l 1,33,-1
 40 842 l 1,4,-1
EndSplineSet
EndChar

StartChar: ucircumflex
Encoding: 251 251 189
Width: 1189
VWidth: 0
Flags: MW
LayerCount: 2
Fore
SplineSet
364 1053 m 1,0,-1
 525 1270 l 1,1,-1
 715 1278 l 1,2,-1
 881 1057 l 1,3,-1
 730 1034 l 1,4,-1
 616 1150 l 1,5,-1
 604 1150 l 1,6,-1
 500 1033 l 1,7,-1
 364 1053 l 1,0,-1
40 842 m 1,8,-1
 60 954 l 1,9,-1
 602 954 l 1,10,-1
 586 842 l 1,11,-1
 469 789 l 1,12,-1
 469 353 l 2,13,14
 469 149 469 149 648 149 c 0,15,16
 735 149 735 149 780.5 191 c 128,-1,17
 826 233 826 233 826 332 c 2,18,-1
 828 784 l 1,19,-1
 698 842 l 1,20,-1
 714 954 l 1,21,-1
 1155 954 l 1,22,-1
 1141 842 l 1,23,-1
 1016 789 l 1,24,-1
 1011 362 l 1,25,26
 1008 159 1008 159 904 66 c 128,-1,27
 800 -27 800 -27 598 -27 c 0,28,29
 556 -27 556 -27 519.5 -24 c 128,-1,30
 483 -21 483 -21 439.5 -12 c 128,-1,31
 396 -3 396 -3 361.5 12 c 128,-1,32
 327 27 327 27 293 54 c 128,-1,33
 259 81 259 81 236.5 117 c 128,-1,34
 214 153 214 153 200 206 c 128,-1,35
 186 259 186 259 186 324 c 2,36,-1
 186 784 l 1,37,-1
 40 842 l 1,8,-1
EndSplineSet
EndChar

StartChar: udieresis
Encoding: 252 252 190
Width: 1189
VWidth: 0
Flags: MW
LayerCount: 2
Fore
SplineSet
656 1144 m 0,0,1
 656 1182 656 1182 685 1209 c 128,-1,2
 714 1236 714 1236 767 1236 c 0,3,4
 823 1236 823 1236 852.5 1209 c 128,-1,5
 882 1182 882 1182 882 1144 c 0,6,7
 882 1102 882 1102 852 1075.5 c 128,-1,8
 822 1049 822 1049 766 1049 c 0,9,10
 710 1049 710 1049 683 1076 c 128,-1,11
 656 1103 656 1103 656 1144 c 0,0,1
367 1144 m 0,12,13
 367 1182 367 1182 396.5 1209 c 128,-1,14
 426 1236 426 1236 478 1236 c 0,15,16
 534 1236 534 1236 563.5 1209 c 128,-1,17
 593 1182 593 1182 593 1144 c 0,18,19
 593 1102 593 1102 563.5 1075.5 c 128,-1,20
 534 1049 534 1049 478 1049 c 128,-1,21
 422 1049 422 1049 394.5 1076.5 c 128,-1,22
 367 1104 367 1104 367 1144 c 0,12,13
40 842 m 1,23,-1
 60 954 l 1,24,-1
 602 954 l 1,25,-1
 586 842 l 1,26,-1
 469 789 l 1,27,-1
 469 353 l 2,28,29
 469 149 469 149 648 149 c 0,30,31
 735 149 735 149 780.5 191 c 128,-1,32
 826 233 826 233 826 332 c 2,33,-1
 828 784 l 1,34,-1
 698 842 l 1,35,-1
 714 954 l 1,36,-1
 1155 954 l 1,37,-1
 1141 842 l 1,38,-1
 1016 789 l 1,39,-1
 1011 362 l 1,40,41
 1008 159 1008 159 904 66 c 128,-1,42
 800 -27 800 -27 598 -27 c 0,43,44
 556 -27 556 -27 519.5 -24 c 128,-1,45
 483 -21 483 -21 439.5 -12 c 128,-1,46
 396 -3 396 -3 361.5 12 c 128,-1,47
 327 27 327 27 293 54 c 128,-1,48
 259 81 259 81 236.5 117 c 128,-1,49
 214 153 214 153 200 206 c 128,-1,50
 186 259 186 259 186 324 c 2,51,-1
 186 784 l 1,52,-1
 40 842 l 1,23,-1
EndSplineSet
EndChar

StartChar: ugrave
Encoding: 249 249 191
Width: 1189
VWidth: 0
Flags: MW
LayerCount: 2
Fore
SplineSet
348 1350 m 1,0,-1
 580 1374 l 1,1,-1
 719 1055 l 1,2,-1
 574 1025 l 1,3,-1
 348 1350 l 1,0,-1
40 842 m 1,4,-1
 60 954 l 1,5,-1
 602 954 l 1,6,-1
 586 842 l 1,7,-1
 469 789 l 1,8,-1
 469 353 l 2,9,10
 469 149 469 149 648 149 c 0,11,12
 735 149 735 149 780.5 191 c 128,-1,13
 826 233 826 233 826 332 c 2,14,-1
 828 784 l 1,15,-1
 698 842 l 1,16,-1
 714 954 l 1,17,-1
 1155 954 l 1,18,-1
 1141 842 l 1,19,-1
 1016 789 l 1,20,-1
 1011 362 l 1,21,22
 1008 159 1008 159 904 66 c 128,-1,23
 800 -27 800 -27 598 -27 c 0,24,25
 556 -27 556 -27 519.5 -24 c 128,-1,26
 483 -21 483 -21 439.5 -12 c 128,-1,27
 396 -3 396 -3 361.5 12 c 128,-1,28
 327 27 327 27 293 54 c 128,-1,29
 259 81 259 81 236.5 117 c 128,-1,30
 214 153 214 153 200 206 c 128,-1,31
 186 259 186 259 186 324 c 2,32,-1
 186 784 l 1,33,-1
 40 842 l 1,4,-1
EndSplineSet
EndChar

StartChar: underscore
Encoding: 95 95 192
Width: 961
VWidth: 0
Flags: MW
LayerCount: 2
Fore
SplineSet
60 -131 m 1,0,-1
 74 12 l 1,1,-1
 901 12 l 1,2,-1
 888 -131 l 1,3,-1
 60 -131 l 1,0,-1
EndSplineSet
EndChar

StartChar: Germandbls
Encoding: 7838 7838 193
Width: 1479
VWidth: 0
Flags: MW
LayerCount: 2
Fore
SplineSet
34 0 m 1,0,-1
 44 104 l 1,1,-1
 204 166 l 1,2,-1
 204 740 l 2,3,4
 204 846 204 846 238 933 c 128,-1,5
 272 1020 272 1020 330.5 1080 c 128,-1,6
 389 1140 389 1140 469.5 1181 c 128,-1,7
 550 1222 550 1222 641 1240.5 c 128,-1,8
 732 1259 732 1259 832 1259 c 0,9,10
 928 1259 928 1259 1019 1246 c 128,-1,11
 1110 1233 1110 1233 1193 1206 c 128,-1,12
 1276 1179 1276 1179 1327 1129.5 c 128,-1,13
 1378 1080 1378 1080 1378 1015 c 0,14,15
 1378 945 1378 945 1343.5 899.5 c 128,-1,16
 1309 854 1309 854 1235 828 c 1,17,18
 1172 944 1172 944 1108 1007.5 c 128,-1,19
 1044 1071 1044 1071 976 1071 c 0,20,21
 926 1071 926 1071 890 1030.5 c 128,-1,22
 854 990 854 990 854 934 c 0,23,24
 854 888 854 888 886 849.5 c 128,-1,25
 918 811 918 811 969 782.5 c 128,-1,26
 1020 754 1020 754 1082 725.5 c 128,-1,27
 1144 697 1144 697 1205.5 662 c 128,-1,28
 1267 627 1267 627 1318 585 c 128,-1,29
 1369 543 1369 543 1401 478.5 c 128,-1,30
 1433 414 1433 414 1433 334 c 0,31,32
 1433 256 1433 256 1403 193.5 c 128,-1,33
 1373 131 1373 131 1325 91.5 c 128,-1,34
 1277 52 1277 52 1213 25 c 128,-1,35
 1149 -2 1149 -2 1085.5 -13 c 128,-1,36
 1022 -24 1022 -24 956 -24 c 0,37,38
 818 -24 818 -24 712 17 c 128,-1,39
 606 58 606 58 564 124 c 1,40,-1
 588 432 l 1,41,-1
 724 410 l 1,42,-1
 762 228 l 1,43,44
 791 184 791 184 853.5 156 c 128,-1,45
 916 128 916 128 982 128 c 0,46,47
 1058 128 1058 128 1101.5 155 c 128,-1,48
 1145 182 1145 182 1145 250 c 0,49,50
 1145 290 1145 290 1121 323.5 c 128,-1,51
 1097 357 1097 357 1057 380 c 128,-1,52
 1017 403 1017 403 966.5 428 c 128,-1,53
 916 453 916 453 863.5 475 c 128,-1,54
 811 497 811 497 760.5 529.5 c 128,-1,55
 710 562 710 562 670 598.5 c 128,-1,56
 630 635 630 635 606 690.5 c 128,-1,57
 582 746 582 746 582 813 c 0,58,59
 582 925 582 925 646 1004.5 c 128,-1,60
 710 1084 710 1084 798 1102 c 1,61,-1
 794 1109 l 1,62,63
 768 1112 768 1112 729 1112 c 0,64,65
 478 1112 478 1112 478 762 c 2,66,-1
 479 0 l 1,67,-1
 34 0 l 1,0,-1
EndSplineSet
EndChar

StartChar: Germandbls.alt
Encoding: 65536 -1 194
Width: 1476
VWidth: 0
Flags: MW
LayerCount: 2
Back
SplineSet
775.5 479.529 m 0,0,1
 801.023 468.303 801.023 468.303 838.097 466.976 c 0
 875.171 465.65 875.171 465.65 905.286 467.645 c 0
 935.401 469.639 935.401 469.639 963.382 466.608 c 0
 991.362 463.576 991.362 463.576 1007.18 444.035 c 0
 1023 424.493 1023 424.493 1023 385 c 0,2,3
 1023 340 1023 340 1008.5 303.5 c 0
 994 267 994 267 971.5 243.5 c 0
 949 220 949 220 919 204.5 c 0
 889 189 889 189 859.5 182.5 c 0
 830 176 830 176 800.5 176 c 0,4,5
 763.189 176 763.189 176 724.346 167.263 c 0
 685.502 158.526 685.502 158.526 663.42 150.284 c 0
 641.338 142.041 641.338 142.041 622.314 142.044 c 0
 603.291 142.048 603.291 142.048 594 156.5 c 1,6,7
 602.027 143.791 602.027 143.791 629.279 186.428 c 0
 671.667 252.746 671.667 252.746 684.878 266.142 c 0
 701.01 282.5 701.01 282.5 714 282.5 c 0,8,9
 738.283 282.5 738.283 282.5 769.258 286.549 c 0
 800.233 290.597 800.233 290.597 836.422 299.686 c 0
 872.61 308.774 872.61 308.774 896.805 327.955 c 0
 921 347.135 921 347.135 921 373 c 0,10,11
 921 403.178 921 403.178 901.333 421.655 c 0
 881.667 440.132 881.667 440.132 852.167 446.679 c 0
 822.667 453.225 822.667 453.225 788.25 462.562 c 0
 753.833 471.899 753.833 471.899 724.333 482.864 c 0
 694.833 493.828 694.833 493.828 675.167 522.136 c 0
 655.5 550.445 655.5 550.445 655.5 594 c 1,12,13
 670.568 653.915 670.568 653.915 760.569 689.458 c 0
 850.57 725 850.57 725 962.5 725 c 0,14,15
 996 725 996 725 1044.5 726.5 c 0
 1093 728 1093 728 1121 728 c 0
 1149 728 1149 728 1167 725 c 1,16,17
 1167 743.784 1167 743.784 1149.2 749.236 c 0
 1131.41 754.687 1131.41 754.687 1103.9 749.93 c 0
 1076.39 745.174 1076.39 745.174 1041.82 741.52 c 0
 1007.25 737.866 1007.25 737.866 975.147 737.354 c 0
 943.041 736.842 943.041 736.842 914.513 751.941 c 0
 885.985 767.039 885.985 767.039 872 798.702 c 0,18,19
 868.89 805.743 868.89 805.743 838.445 833.791 c 0
 808 861.838 808 861.838 808 878 c 0
EndSplineSet
Fore
SplineSet
34 0 m 1,0,-1
 44 105 l 1,1,-1
 204 166 l 1,2,-1
 204 704 l 2,3,4
 204 823 204 823 238 917.5 c 128,-1,5
 272 1012 272 1012 330.5 1075 c 128,-1,6
 389 1138 389 1138 470 1180.5 c 128,-1,7
 551 1223 551 1223 640.5 1241.5 c 128,-1,8
 730 1260 730 1260 832 1260 c 0,9,10
 985 1260 985 1260 1132.5 1241.5 c 128,-1,11
 1280 1223 1280 1223 1344 1200 c 1,12,-1
 1335 1091 l 1,13,-1
 1012 774 l 1,14,15
 1023 769 1023 769 1046 760 c 0,16,17
 1081 746 1081 746 1100.5 738 c 128,-1,18
 1120 730 1120 730 1156 713.5 c 128,-1,19
 1192 697 1192 697 1214 684 c 128,-1,20
 1236 671 1236 671 1268 649.5 c 128,-1,21
 1300 628 1300 628 1319.5 608 c 128,-1,22
 1339 588 1339 588 1361.5 559.5 c 128,-1,23
 1384 531 1384 531 1396.5 501.5 c 128,-1,24
 1409 472 1409 472 1417.5 434 c 128,-1,25
 1426 396 1426 396 1426 356 c 0,26,27
 1426 278 1426 278 1396 213.5 c 128,-1,28
 1366 149 1366 149 1317.5 106 c 128,-1,29
 1269 63 1269 63 1205.5 33 c 128,-1,30
 1142 3 1142 3 1077.5 -10.5 c 128,-1,31
 1013 -24 1013 -24 949 -24 c 0,32,33
 812 -24 812 -24 705.5 19 c 128,-1,34
 599 62 599 62 557 128 c 1,35,-1
 580 440 l 1,36,-1
 720 418 l 1,37,-1
 760 232 l 1,38,39
 790 187 790 187 849 157.5 c 128,-1,40
 908 128 908 128 974 128 c 0,41,42
 1046 128 1046 128 1092 166 c 128,-1,43
 1138 204 1138 204 1138 274 c 0,44,45
 1138 308 1138 308 1121 342 c 128,-1,46
 1104 376 1104 376 1078.5 404.5 c 128,-1,47
 1053 433 1053 433 1012.5 463 c 128,-1,48
 972 493 972 493 935 514.5 c 128,-1,49
 898 536 898 536 848 561 c 128,-1,50
 798 586 798 586 764 601 c 128,-1,51
 730 616 730 616 684 634 c 1,52,-1
 659 692 l 1,53,-1
 992 1071 l 1,54,-1
 992 1078 l 1,55,56
 947 1095 947 1095 870.5 1106.5 c 128,-1,57
 794 1118 794 1118 754 1118 c 0,58,59
 685 1118 685 1118 635 1097.5 c 128,-1,60
 585 1077 585 1077 549 1031.5 c 128,-1,61
 513 986 513 986 495.5 910 c 128,-1,62
 478 834 478 834 478 726 c 2,63,-1
 479 0 l 1,64,-1
 34 0 l 1,0,-1
EndSplineSet
EndChar

StartChar: v
Encoding: 118 118 195
Width: 1138
VWidth: 845
Flags: MW
LayerCount: 2
Fore
SplineSet
35 838 m 1,0,-1
 50 954 l 1,1,-1
 564 954 l 1,2,-1
 548 838 l 1,3,-1
 452 789 l 1,4,-1
 620 294 l 1,5,-1
 788 786 l 1,6,-1
 690 838 l 1,7,-1
 702 954 l 1,8,-1
 1102 954 l 1,9,-1
 1092 838 l 1,10,-1
 998 789 l 1,11,-1
 680 14 l 1,12,-1
 448 -28 l 1,13,-1
 144 786 l 1,14,-1
 35 838 l 1,0,-1
EndSplineSet
EndChar

StartChar: w
Encoding: 119 119 196
Width: 1571
VWidth: 845
Flags: MW
LayerCount: 2
Fore
SplineSet
35 839 m 1,0,-1
 45 954 l 1,1,-1
 574 954 l 1,2,-1
 549 835 l 1,3,-1
 439 789 l 1,4,-1
 550 348 l 1,5,-1
 694 908 l 1,6,-1
 937 940 l 1,7,-1
 1084 364 l 1,8,-1
 1205 788 l 1,9,-1
 1096 836 l 1,10,-1
 1112 954 l 1,11,-1
 1536 954 l 1,12,-1
 1518 838 l 1,13,-1
 1416 792 l 1,14,-1
 1166 16 l 1,15,-1
 932 -28 l 1,16,-1
 774 546 l 1,17,-1
 625 16 l 1,18,-1
 386 -29 l 1,19,-1
 153 785 l 1,20,-1
 35 839 l 1,0,-1
EndSplineSet
EndChar

StartChar: x
Encoding: 120 120 197
Width: 1086
VWidth: 845
Flags: MW
LayerCount: 2
Fore
SplineSet
35 0 m 1,0,-1
 54 116 l 1,1,-1
 152 177 l 1,2,-1
 398 470 l 1,3,-1
 156 778 l 1,4,-1
 54 826 l 1,5,-1
 74 954 l 1,6,-1
 574 954 l 1,7,-1
 555 832 l 1,8,-1
 478 781 l 1,9,-1
 608 610 l 1,10,-1
 732 780 l 1,11,-1
 654 836 l 1,12,-1
 674 954 l 1,13,-1
 1056 954 l 1,14,-1
 1040 838 l 1,15,-1
 942 783 l 1,16,-1
 712 496 l 1,17,-1
 968 170 l 1,18,-1
 1057 130 l 1,19,-1
 1038 0 l 1,20,-1
 549 0 l 1,21,-1
 570 120 l 1,22,-1
 640 171 l 1,23,-1
 506 353 l 1,24,-1
 374 174 l 1,25,-1
 458 125 l 1,26,-1
 435 0 l 1,27,-1
 35 0 l 1,0,-1
EndSplineSet
EndChar

StartChar: y
Encoding: 121 121 198
Width: 1003
VWidth: 845
Flags: MW
LayerCount: 2
Fore
SplineSet
22 838 m 1,0,-1
 44 954 l 1,1,-1
 526 954 l 1,2,-1
 507 838 l 1,3,-1
 421 789 l 1,4,-1
 554 522 l 1,5,-1
 688 786 l 1,6,-1
 602 838 l 1,7,-1
 618 954 l 1,8,-1
 986 954 l 1,9,-1
 970 838 l 1,10,-1
 886 788 l 1,11,-1
 648 372 l 1,12,-1
 648 168 l 1,13,-1
 782 110 l 1,14,-1
 770 0 l 1,15,-1
 227 0 l 1,16,-1
 241 106 l 1,17,-1
 366 169 l 1,18,-1
 366 353 l 1,19,-1
 122 786 l 1,20,-1
 22 838 l 1,0,-1
EndSplineSet
EndChar

StartChar: yacute
Encoding: 253 253 199
Width: 1003
VWidth: 0
Flags: MW
LayerCount: 2
Fore
SplineSet
444 1059 m 1,0,-1
 578 1374 l 1,1,-1
 808 1349 l 1,2,-1
 586 1030 l 1,3,-1
 444 1059 l 1,0,-1
22 838 m 1,4,-1
 44 954 l 1,5,-1
 526 954 l 1,6,-1
 507 838 l 1,7,-1
 421 789 l 1,8,-1
 554 522 l 1,9,-1
 688 786 l 1,10,-1
 602 838 l 1,11,-1
 618 954 l 1,12,-1
 986 954 l 1,13,-1
 970 838 l 1,14,-1
 886 788 l 1,15,-1
 648 372 l 1,16,-1
 648 168 l 1,17,-1
 782 110 l 1,18,-1
 770 0 l 1,19,-1
 227 0 l 1,20,-1
 241 106 l 1,21,-1
 366 169 l 1,22,-1
 366 353 l 1,23,-1
 122 786 l 1,24,-1
 22 838 l 1,4,-1
EndSplineSet
EndChar

StartChar: ydieresis
Encoding: 255 255 200
Width: 1557
VWidth: 0
Flags: MW
LayerCount: 2
Fore
SplineSet
568 1140 m 0,0,1
 568 1178 568 1178 597 1205 c 128,-1,2
 626 1232 626 1232 679 1232 c 0,3,4
 735 1232 735 1232 764.5 1206 c 128,-1,5
 794 1180 794 1180 794 1142 c 0,6,7
 794 1100 794 1100 764 1073 c 128,-1,8
 734 1046 734 1046 678 1046 c 0,9,10
 622 1046 622 1046 595 1072.5 c 128,-1,11
 568 1099 568 1099 568 1140 c 0,0,1
279 1140 m 0,12,13
 279 1178 279 1178 308.5 1205 c 128,-1,14
 338 1232 338 1232 390 1232 c 0,15,16
 446 1232 446 1232 475.5 1206 c 128,-1,17
 505 1180 505 1180 505 1142 c 0,18,19
 505 1100 505 1100 475.5 1073 c 128,-1,20
 446 1046 446 1046 390 1046 c 128,-1,21
 334 1046 334 1046 306.5 1073 c 128,-1,22
 279 1100 279 1100 279 1140 c 0,12,13
20 838 m 1,23,-1
 41 954 l 1,24,-1
 523 954 l 1,25,-1
 504 838 l 1,26,-1
 418 789 l 1,27,-1
 550 522 l 1,28,-1
 685 786 l 1,29,-1
 598 838 l 1,30,-1
 614 954 l 1,31,-1
 984 954 l 1,32,-1
 968 838 l 1,33,-1
 884 788 l 1,34,-1
 644 372 l 1,35,-1
 644 168 l 1,36,-1
 778 110 l 1,37,-1
 767 0 l 1,38,-1
 224 0 l 1,39,-1
 238 106 l 1,40,-1
 362 169 l 1,41,-1
 362 353 l 1,42,-1
 118 786 l 1,43,-1
 20 838 l 1,23,-1
EndSplineSet
EndChar

StartChar: yen
Encoding: 165 165 201
Width: 1118
VWidth: 0
Flags: MW
LayerCount: 2
Fore
SplineSet
133 499 m 1,0,-1
 148 608 l 1,1,-1
 295 608 l 1,2,-1
 198 787 l 1,3,-1
 94 838 l 1,4,-1
 116 954 l 1,5,-1
 589 954 l 1,6,-1
 570 838 l 1,7,-1
 487 789 l 1,8,-1
 614 476 l 1,9,-1
 757 786 l 1,10,-1
 664 838 l 1,11,-1
 680 954 l 1,12,-1
 1059 954 l 1,13,-1
 1043 838 l 1,14,-1
 945 788 l 1,15,-1
 847 608 l 1,16,-1
 1022 608 l 1,17,-1
 1012 499 l 1,18,-1
 788 499 l 1,19,-1
 734 400 l 1,20,-1
 1022 400 l 1,21,-1
 1012 292 l 1,22,-1
 700 292 l 1,23,-1
 700 167 l 1,24,-1
 841 109 l 1,25,-1
 830 0 l 1,26,-1
 304 0 l 1,27,-1
 318 104 l 1,28,-1
 446 168 l 1,29,-1
 446 292 l 1,30,-1
 133 292 l 1,31,-1
 148 400 l 1,32,-1
 408 400 l 1,33,-1
 354 499 l 1,34,-1
 133 499 l 1,0,-1
EndSplineSet
EndChar

StartChar: z
Encoding: 122 122 202
Width: 938
VWidth: 845
Flags: MW
LayerCount: 2
Fore
SplineSet
36 160 m 1,0,-1
 583 820 l 1,1,-1
 280 820 l 1,2,-1
 210 618 l 1,3,-1
 60 643 l 1,4,-1
 75 954 l 1,5,-1
 892 954 l 1,6,-1
 888 814 l 1,7,-1
 341 153 l 1,8,-1
 653 138 l 1,9,-1
 781 349 l 1,10,-1
 904 330 l 1,11,-1
 870 0 l 1,12,-1
 46 0 l 1,13,-1
 36 160 l 1,0,-1
EndSplineSet
EndChar

StartChar: zero
Encoding: 48 48 203
Width: 935
VWidth: 0
Flags: MW
LayerCount: 2
Fore
SplineSet
345 518 m 0,0,1
 345 388 345 388 353.5 304 c 128,-1,2
 362 220 362 220 379.5 179.5 c 128,-1,3
 397 139 397 139 417 125.5 c 128,-1,4
 437 112 437 112 468 112 c 0,5,6
 498 112 498 112 518.5 125.5 c 128,-1,7
 539 139 539 139 557.5 178 c 128,-1,8
 576 217 576 217 585 298 c 128,-1,9
 594 379 594 379 594 505 c 0,10,11
 594 603 594 603 587.5 673.5 c 128,-1,12
 581 744 581 744 570 785 c 128,-1,13
 559 826 559 826 542.5 849.5 c 128,-1,14
 526 873 526 873 509 880 c 128,-1,15
 492 887 492 887 470 887 c 0,16,17
 440 887 440 887 420 874.5 c 128,-1,18
 400 862 400 862 381.5 826 c 128,-1,19
 363 790 363 790 354 713.5 c 128,-1,20
 345 637 345 637 345 518 c 0,0,1
76 495 m 0,21,22
 76 600 76 600 110.5 696 c 128,-1,23
 145 792 145 792 200 859 c 128,-1,24
 255 926 255 926 327.5 965 c 128,-1,25
 400 1004 400 1004 474 1004 c 0,26,27
 649 1003 649 1003 753.5 867.5 c 128,-1,28
 858 732 858 732 858 511 c 0,29,30
 858 406 858 406 834.5 316.5 c 128,-1,31
 811 227 811 227 772.5 166 c 128,-1,32
 734 105 734 105 683 62 c 128,-1,33
 632 19 632 19 578 -1.5 c 128,-1,34
 524 -22 524 -22 468 -22 c 0,35,36
 412 -22 412 -22 358.5 -5.5 c 128,-1,37
 305 11 305 11 253.5 50 c 128,-1,38
 202 89 202 89 163 147 c 128,-1,39
 124 205 124 205 100 294.5 c 128,-1,40
 76 384 76 384 76 495 c 0,21,22
EndSplineSet
EndChar

StartChar: micro
Encoding: 181 181 204
Width: 1141
VWidth: 0
Flags: MW
LayerCount: 2
Fore
SplineSet
43 754 m 1,0,-1
 66 886 l 1,1,-1
 383 908 l 1,2,-1
 423 868 l 1,3,-1
 423 392 l 2,4,5
 423 290 423 290 452.5 245 c 128,-1,6
 482 200 482 200 541 200 c 0,7,8
 588 200 588 200 622 216.5 c 128,-1,9
 656 233 656 233 697 267 c 1,10,-1
 697 668 l 1,11,-1
 551 726 l 1,12,-1
 573 876 l 1,13,-1
 900 912 l 1,14,-1
 937 872 l 1,15,-1
 937 293 l 2,16,17
 937 220 937 220 963 192 c 128,-1,18
 989 164 989 164 1061 144 c 1,19,-1
 1097 135 l 1,20,-1
 1081 8 l 1,21,22
 978 -30 978 -30 881 -30 c 0,23,24
 802 -30 802 -30 755.5 8.5 c 128,-1,25
 709 47 709 47 709 118 c 2,26,-1
 709 128 l 1,27,-1
 697 132 l 1,28,29
 641 54 641 54 569 13 c 128,-1,30
 497 -28 497 -28 419 -28 c 128,-1,31
 341 -28 341 -28 303 14 c 1,32,-1
 291 12 l 1,33,34
 307 -29 307 -29 315 -133 c 2,35,-1
 335 -388 l 1,36,-1
 135 -362 l 1,37,38
 144 -274 144 -274 159 26 c 128,-1,39
 174 326 174 326 174 494 c 2,40,-1
 174 674 l 1,41,-1
 43 754 l 1,0,-1
EndSplineSet
EndChar

StartChar: quotedblleft
Encoding: 8220 8220 205
Width: 896
VWidth: 0
Flags: MW
LayerCount: 2
Fore
SplineSet
401 1205 m 1,0,1
 314 1180 314 1180 271 1130.5 c 128,-1,2
 228 1081 228 1081 228 1028 c 0,3,4
 228 986 228 986 256.5 958 c 128,-1,5
 285 930 285 930 329 930 c 0,6,7
 351 930 351 930 371 937 c 1,8,9
 394 891 394 891 394 857 c 0,10,11
 394 786 394 786 346.5 745.5 c 128,-1,12
 299 705 299 705 232 705 c 0,13,14
 137 705 137 705 80 767.5 c 128,-1,15
 23 830 23 830 23 942 c 0,16,17
 23 994 23 994 40 1045 c 128,-1,18
 57 1096 57 1096 94 1147 c 128,-1,19
 131 1198 131 1198 201.5 1238.5 c 128,-1,20
 272 1279 272 1279 368 1298 c 1,21,-1
 401 1205 l 1,0,1
811 1205 m 1,22,23
 724 1180 724 1180 681 1130.5 c 128,-1,24
 638 1081 638 1081 638 1028 c 0,25,26
 638 986 638 986 666.5 958 c 128,-1,27
 695 930 695 930 739 930 c 0,28,29
 761 930 761 930 781 937 c 1,30,31
 804 891 804 891 804 857 c 0,32,33
 804 786 804 786 756.5 745.5 c 128,-1,34
 709 705 709 705 642 705 c 0,35,36
 547 705 547 705 490 767.5 c 128,-1,37
 433 830 433 830 433 942 c 0,38,39
 433 994 433 994 450 1045 c 128,-1,40
 467 1096 467 1096 504 1147 c 128,-1,41
 541 1198 541 1198 611.5 1238.5 c 128,-1,42
 682 1279 682 1279 778 1298 c 1,43,-1
 811 1205 l 1,22,23
EndSplineSet
EndChar

StartChar: quotedblright
Encoding: 8221 8221 206
Width: 897
VWidth: 0
Flags: MW
LayerCount: 2
Fore
SplineSet
85 798 m 1,0,1
 172 823 172 823 215 872.5 c 128,-1,2
 258 922 258 922 258 975 c 0,3,4
 258 1017 258 1017 229.5 1045 c 128,-1,5
 201 1073 201 1073 157 1073 c 0,6,7
 135 1073 135 1073 115 1066 c 1,8,9
 92 1112 92 1112 92 1146 c 0,10,11
 92 1217 92 1217 139.5 1257.5 c 128,-1,12
 187 1298 187 1298 254 1298 c 0,13,14
 349 1298 349 1298 406 1235.5 c 128,-1,15
 463 1173 463 1173 463 1061 c 0,16,17
 463 1009 463 1009 446 958 c 128,-1,18
 429 907 429 907 392 856 c 128,-1,19
 355 805 355 805 284.5 764.5 c 128,-1,20
 214 724 214 724 118 705 c 1,21,-1
 85 798 l 1,0,1
495 798 m 1,22,23
 582 823 582 823 625 872.5 c 128,-1,24
 668 922 668 922 668 975 c 0,25,26
 668 1017 668 1017 639.5 1045 c 128,-1,27
 611 1073 611 1073 567 1073 c 0,28,29
 545 1073 545 1073 525 1066 c 1,30,31
 502 1112 502 1112 502 1146 c 0,32,33
 502 1217 502 1217 549.5 1257.5 c 128,-1,34
 597 1298 597 1298 664 1298 c 0,35,36
 759 1298 759 1298 816 1235.5 c 128,-1,37
 873 1173 873 1173 873 1061 c 0,38,39
 873 1009 873 1009 856 958 c 128,-1,40
 839 907 839 907 802 856 c 128,-1,41
 765 805 765 805 694.5 764.5 c 128,-1,42
 624 724 624 724 528 705 c 1,43,-1
 495 798 l 1,22,23
EndSplineSet
EndChar

StartChar: quoteleft
Encoding: 8216 8216 207
Width: 485
VWidth: 0
Flags: MW
LayerCount: 2
Fore
SplineSet
400 1208 m 1,0,1
 313 1183 313 1183 270 1133.5 c 128,-1,2
 227 1084 227 1084 227 1031 c 0,3,4
 227 989 227 989 255.5 961 c 128,-1,5
 284 933 284 933 328 933 c 0,6,7
 350 933 350 933 370 940 c 1,8,9
 393 894 393 894 393 860 c 0,10,11
 393 789 393 789 345.5 748.5 c 128,-1,12
 298 708 298 708 231 708 c 0,13,14
 136 708 136 708 79 770.5 c 128,-1,15
 22 833 22 833 22 945 c 0,16,17
 22 997 22 997 39 1048 c 128,-1,18
 56 1099 56 1099 93 1150 c 128,-1,19
 130 1201 130 1201 200.5 1241.5 c 128,-1,20
 271 1282 271 1282 367 1301 c 1,21,-1
 400 1208 l 1,0,1
EndSplineSet
EndChar

StartChar: quoteright
Encoding: 8217 8217 208
Width: 487
VWidth: 0
Flags: MW
LayerCount: 2
Fore
SplineSet
85 801 m 1,0,1
 172 826 172 826 215 875.5 c 128,-1,2
 258 925 258 925 258 978 c 0,3,4
 258 1020 258 1020 229.5 1048 c 128,-1,5
 201 1076 201 1076 157 1076 c 0,6,7
 135 1076 135 1076 115 1069 c 1,8,9
 92 1115 92 1115 92 1149 c 0,10,11
 92 1220 92 1220 139.5 1260.5 c 128,-1,12
 187 1301 187 1301 254 1301 c 0,13,14
 349 1301 349 1301 406 1238.5 c 128,-1,15
 463 1176 463 1176 463 1064 c 0,16,17
 463 1012 463 1012 446 961 c 128,-1,18
 429 910 429 910 392 859 c 128,-1,19
 355 808 355 808 284.5 767.5 c 128,-1,20
 214 727 214 727 118 708 c 1,21,-1
 85 801 l 1,0,1
EndSplineSet
EndChar

StartChar: germandbls.alt
Encoding: 65537 -1 209
Width: 1246
VWidth: 845
Flags: MW
LayerCount: 2
Back
SplineSet
384 421.5 m 1,0,1
 393.872 421.5 393.872 421.5 408.994 422.17 c 0
 424.116 422.84 424.116 422.84 431.197 422.937 c 0
 438.279 423.033 438.279 423.033 448.205 421.576 c 0
 458.131 420.119 458.131 420.119 463.255 416.237 c 0
 468.38 412.355 468.38 412.355 473.566 404.671 c 0
 478.752 396.986 478.752 396.986 482 385 c 1,2,3
 517.827 396.737 517.827 396.737 566.663 429.305 c 0
 615.5 461.873 615.5 461.873 615.5 485.5 c 0,4,5
 615.5 523.565 615.5 523.565 583.056 586.218 c 0
 550.612 648.872 550.612 648.872 503.504 698.436 c 0
 456.396 748 456.396 748 421 748 c 1,6,7
 306.676 866.918 306.676 866.918 332.854 872.179 c 0
 358.056 877.244 358.056 877.244 494 772.5 c 1,8,9
 551.265 772.5 551.265 772.5 600.243 745.677 c 0
 649.22 718.855 649.22 718.855 680.041 679.302 c 0
 710.863 639.749 710.863 639.749 732.899 593.172 c 0
 754.935 546.595 754.935 546.595 764.217 508.471 c 0
 773.5 470.348 773.5 470.348 773.5 445 c 0,10,11
 773.5 416.511 773.5 416.511 725.744 383.847 c 0
 677.988 351.183 677.988 351.183 631.5 338 c 1,12,13
 618.519 361.797 618.519 361.797 604.223 376.707 c 0
 589.927 391.617 589.927 391.617 573.874 397.576 c 0
 557.821 403.534 557.821 403.534 546.805 405.063 c 0
 535.789 406.592 535.789 406.592 518.58 406.592 c 0,14,15
 513.037 406.592 513.037 406.592 520.161 405.25 c 0
 608.373 388.636 608.373 388.636 611.754 387.726 c 0
 644.5 378.912 644.5 378.912 644.5 370.5 c 0,16,17
 644.5 342.319 644.5 342.319 704.486 379.28 c 0
 715.903 386.314 715.903 386.314 741.13 402.914 c 0
 832.731 463.186 832.731 463.186 862.554 464.182 c 0
 887.42 465.013 887.42 465.013 890.917 436.745 c 0
 891.5 432.032 891.5 432.032 891.5 426.5 c 0,18,19
 891.5 407.178 891.5 407.178 815.662 420.32 c 1
 799.586 424.56 l 1,20,21
 731.991 424.56 731.991 424.56 684.898 433.456 c 0
 637.805 442.351 637.805 442.351 625.5 456 c 1,22,-1
 643 613 l 1,23,24
 632.092 611.229 632.092 611.229 628.702 603.246 c 0
 625.312 595.263 625.312 595.263 627.934 581.91 c 0
 630.556 568.557 630.556 568.557 634.846 554.083 c 0
 639.136 539.608 639.136 539.608 643.318 520.249 c 0
 647.5 500.89 647.5 500.89 647.5 485.5 c 0,25,26
 647.5 448.12 647.5 448.12 672.323 410.304 c 0
 697.146 372.489 697.146 372.489 732.573 342.116 c 0
 768 311.742 768 311.742 803.427 283.664 c 0
 838.854 255.586 838.854 255.586 863.677 227.716 c 0
 888.5 199.845 888.5 199.845 888.5 177 c 1,27,28
 894.126 154.065 894.126 154.065 893.015 139.288 c 0
 891.904 124.51 891.904 124.51 888.207 117.505 c 0
 884.511 110.5 884.511 110.5 880 110.5 c 0,29,30
 873.173 110.5 873.173 110.5 870.319 116.208 c 0
 867.466 121.915 867.466 121.915 862.174 140.312 c 0
 856.883 158.708 856.883 158.708 849 176 c 1,31,32
 849 189.188 849 189.188 823.405 211.925 c 0
 797.809 234.662 797.809 234.662 761.28 262.199 c 0
 724.75 289.737 724.75 289.737 688.22 321.1 c 0
 651.691 352.464 651.691 352.464 626.095 391.775 c 0
 600.5 431.087 600.5 431.087 600.5 468.5 c 0,33,34
 600.5 482.281 600.5 482.281 599.103 499.204 c 0
 597.706 516.128 597.706 516.128 596.774 526.428 c 0
 595.842 536.728 595.842 536.728 596.143 546.728 c 0
 596.443 556.727 596.443 556.727 600.008 562.066 c 0
 603.574 567.405 603.574 567.405 611 569 c 1,35,-1
 594.5 449 l 1,36,37
 564.837 434.233 564.837 434.233 578.688 391.938 c 0
 592.538 349.642 592.538 349.642 654 273 c 1,38,39
 699.364 273 699.364 273 764.598 170.048 c 0
 802.538 110.171 802.538 110.171 807.887 106.202 c 1
 815.204 108.867 815.204 108.867 816.5 122 c 1,40,41
 816.5 214.603 816.5 214.603 466.765 379.203 c 1
 384.226 419.296 384.226 419.296 384 421.5 c 1,0,1
EndSplineSet
Fore
SplineSet
16 0 m 1,0,-1
 26 105 l 1,1,-1
 140 152 l 1,2,-1
 140 558 l 2,3,4
 140 643 140 643 168 712.5 c 128,-1,5
 196 782 196 782 246 830 c 128,-1,6
 296 878 296 878 366.5 910.5 c 128,-1,7
 437 943 437 943 520.5 958 c 128,-1,8
 604 973 604 973 701 973 c 0,9,10
 985 973 985 973 1157 933 c 1,11,-1
 1152 838 l 1,12,-1
 882 577 l 1,13,14
 948 550 948 550 995 527 c 128,-1,15
 1042 504 1042 504 1090 473.5 c 128,-1,16
 1138 443 1138 443 1167 412 c 128,-1,17
 1196 381 1196 381 1214.5 340.5 c 128,-1,18
 1233 300 1233 300 1233 255 c 0,19,20
 1233 196 1233 196 1208 147.5 c 128,-1,21
 1183 99 1183 99 1143.5 68 c 128,-1,22
 1104 37 1104 37 1052.5 15.5 c 128,-1,23
 1001 -6 1001 -6 950.5 -15 c 128,-1,24
 900 -24 900 -24 850 -24 c 0,25,26
 719 -24 719 -24 629 -4 c 128,-1,27
 539 16 539 16 501 50 c 1,28,-1
 536 333 l 1,29,-1
 676 312 l 1,30,-1
 704 158 l 1,31,32
 752 110 752 110 848 110 c 0,33,34
 908 110 908 110 945 135 c 128,-1,35
 982 160 982 160 982 202 c 0,36,37
 982 219 982 219 973.5 236.5 c 128,-1,38
 965 254 965 254 946.5 271.5 c 128,-1,39
 928 289 928 289 909 304 c 128,-1,40
 890 319 890 319 858.5 337 c 128,-1,41
 827 355 827 355 804.5 367 c 128,-1,42
 782 379 782 379 743.5 396.5 c 128,-1,43
 705 414 705 414 684 423 c 128,-1,44
 663 432 663 432 625 448 c 0,45,46
 612 454 612 454 605 456 c 1,47,-1
 580 514 l 1,48,-1
 888 808 l 1,49,-1
 888 814 l 1,50,51
 778 858 778 858 644 858 c 0,52,53
 524 858 524 858 469.5 795 c 128,-1,54
 415 732 415 732 415 582 c 2,55,-1
 415 0 l 1,56,-1
 16 0 l 1,0,-1
EndSplineSet
EndChar
